<mxfile host="app.diagrams.net" modified="2022-07-24T02:56:35.567Z" agent="5.0 (Windows NT 10.0; Win64; x64) AppleWebKit/537.36 (KHTML, like Gecko) Chrome/103.0.5060.114 Safari/537.36 Edg/103.0.1264.62" etag="xtM5NLi_w4U1FcISANZb" version="20.2.0" type="github">
  <diagram id="chODi_v-n7cq65_RIqqo" name="Page-1">
    <mxGraphModel dx="1662" dy="754" grid="1" gridSize="10" guides="1" tooltips="1" connect="1" arrows="1" fold="1" page="1" pageScale="1" pageWidth="827" pageHeight="1169" math="0" shadow="0">
      <root>
        <mxCell id="0" />
        <mxCell id="1" parent="0" />
        <mxCell id="If7hi21jr3shKMRsduzb-184" value="" style="shape=ext;double=1;rounded=0;whiteSpace=wrap;html=1;labelBackgroundColor=none;fontFamily=Helvetica;fontSize=11;strokeColor=default;strokeWidth=1;" parent="1" vertex="1">
          <mxGeometry x="80" y="855" width="1360" height="465" as="geometry" />
        </mxCell>
        <mxCell id="X6huxfXXV4CMVZdoAmuB-3" style="edgeStyle=orthogonalEdgeStyle;rounded=0;orthogonalLoop=1;jettySize=auto;html=1;entryX=0.5;entryY=0;entryDx=0;entryDy=0;fontSize=16;fontFamily=Helvetica;" parent="1" source="X6huxfXXV4CMVZdoAmuB-1" target="X6huxfXXV4CMVZdoAmuB-2" edge="1">
          <mxGeometry relative="1" as="geometry" />
        </mxCell>
        <mxCell id="X6huxfXXV4CMVZdoAmuB-1" value="&lt;font style=&quot;font-size: 16px;&quot;&gt;初始化配置信息config&lt;/font&gt;" style="rounded=0;whiteSpace=wrap;html=1;fontFamily=Helvetica;" parent="1" vertex="1">
          <mxGeometry x="100" y="60" width="110" height="60" as="geometry" />
        </mxCell>
        <mxCell id="hTme4FrNAQkry3wzWzrD-23" style="edgeStyle=orthogonalEdgeStyle;rounded=0;orthogonalLoop=1;jettySize=auto;html=1;exitX=0.5;exitY=1;exitDx=0;exitDy=0;entryX=0.5;entryY=0;entryDx=0;entryDy=0;fontSize=10;fontFamily=Helvetica;" parent="1" source="X6huxfXXV4CMVZdoAmuB-2" target="hTme4FrNAQkry3wzWzrD-6" edge="1">
          <mxGeometry relative="1" as="geometry" />
        </mxCell>
        <mxCell id="X6huxfXXV4CMVZdoAmuB-2" value="&lt;font style=&quot;font-size: 16px;&quot;&gt;初始化服务器webserver&lt;/font&gt;" style="rounded=0;whiteSpace=wrap;html=1;fontFamily=Helvetica;" parent="1" vertex="1">
          <mxGeometry x="100" y="160" width="110" height="60" as="geometry" />
        </mxCell>
        <mxCell id="tHm_pdnACIAALHQ7IJnF-1" value="webserver-init函数" style="swimlane;fontStyle=0;childLayout=stackLayout;horizontal=1;startSize=30;horizontalStack=0;resizeParent=1;resizeParentMax=0;resizeLast=0;collapsible=1;marginBottom=0;fontFamily=Helvetica;" parent="1" vertex="1">
          <mxGeometry x="260" y="220" width="150" height="50" as="geometry">
            <mxRectangle x="260" y="220" width="110" height="30" as="alternateBounds" />
          </mxGeometry>
        </mxCell>
        <mxCell id="tHm_pdnACIAALHQ7IJnF-2" value="初始化配置信息" style="text;strokeColor=#d6b656;fillColor=#fff2cc;align=left;verticalAlign=middle;spacingLeft=4;spacingRight=4;overflow=hidden;points=[[0,0.5],[1,0.5]];portConstraint=eastwest;rotatable=0;fontSize=10;fontFamily=Helvetica;" parent="tHm_pdnACIAALHQ7IJnF-1" vertex="1">
          <mxGeometry y="30" width="150" height="20" as="geometry" />
        </mxCell>
        <mxCell id="SK1pImSEw0LsBvb1q7Pm-3" value="webserver-构造函数" style="swimlane;fontStyle=0;childLayout=stackLayout;horizontal=1;startSize=30;horizontalStack=0;resizeParent=1;resizeParentMax=0;resizeLast=0;collapsible=1;marginBottom=0;fontFamily=Helvetica;" parent="1" vertex="1">
          <mxGeometry x="260" y="130" width="150" height="90" as="geometry">
            <mxRectangle x="260" y="130" width="110" height="30" as="alternateBounds" />
          </mxGeometry>
        </mxCell>
        <mxCell id="SK1pImSEw0LsBvb1q7Pm-4" value="初始化http请求类（http_conn）" style="text;strokeColor=#d6b656;fillColor=#fff2cc;align=left;verticalAlign=middle;spacingLeft=4;spacingRight=4;overflow=hidden;points=[[0,0.5],[1,0.5]];portConstraint=eastwest;rotatable=0;fontSize=10;fontFamily=Helvetica;" parent="SK1pImSEw0LsBvb1q7Pm-3" vertex="1">
          <mxGeometry y="30" width="150" height="20" as="geometry" />
        </mxCell>
        <mxCell id="SK1pImSEw0LsBvb1q7Pm-5" value="设置root文件夹路径（m_root）" style="text;strokeColor=#d6b656;fillColor=#fff2cc;align=left;verticalAlign=middle;spacingLeft=4;spacingRight=4;overflow=hidden;points=[[0,0.5],[1,0.5]];portConstraint=eastwest;rotatable=0;fontSize=10;fontFamily=Helvetica;" parent="SK1pImSEw0LsBvb1q7Pm-3" vertex="1">
          <mxGeometry y="50" width="150" height="20" as="geometry" />
        </mxCell>
        <mxCell id="SK1pImSEw0LsBvb1q7Pm-6" value="初始化定时器（client_data）" style="text;strokeColor=#d6b656;fillColor=#fff2cc;align=left;verticalAlign=middle;spacingLeft=4;spacingRight=4;overflow=hidden;points=[[0,0.5],[1,0.5]];portConstraint=eastwest;rotatable=0;fontSize=10;fontFamily=Helvetica;" parent="SK1pImSEw0LsBvb1q7Pm-3" vertex="1">
          <mxGeometry y="70" width="150" height="20" as="geometry" />
        </mxCell>
        <mxCell id="tHm_pdnACIAALHQ7IJnF-5" value="" style="strokeWidth=2;html=1;shape=mxgraph.flowchart.annotation_2;align=left;labelPosition=right;pointerEvents=1;fontFamily=Helvetica;" parent="1" vertex="1">
          <mxGeometry x="210" y="150" width="50" height="80" as="geometry" />
        </mxCell>
        <mxCell id="hTme4FrNAQkry3wzWzrD-2" value="" style="line;strokeWidth=2;html=1;fontSize=10;fontFamily=Helvetica;" parent="1" vertex="1">
          <mxGeometry x="210" y="85" width="50" height="10" as="geometry" />
        </mxCell>
        <mxCell id="hTme4FrNAQkry3wzWzrD-5" value="&lt;font style=&quot;font-size: 12px;&quot;&gt;命令行解析&lt;/font&gt;" style="rounded=0;whiteSpace=wrap;html=1;fontFamily=Helvetica;" parent="1" vertex="1">
          <mxGeometry x="260" y="80" width="80" height="20" as="geometry" />
        </mxCell>
        <mxCell id="hTme4FrNAQkry3wzWzrD-116" value="" style="edgeStyle=orthogonalEdgeStyle;rounded=0;orthogonalLoop=1;jettySize=auto;html=1;fontSize=11;fontColor=#000000;fontFamily=Helvetica;" parent="1" source="hTme4FrNAQkry3wzWzrD-6" target="hTme4FrNAQkry3wzWzrD-115" edge="1">
          <mxGeometry relative="1" as="geometry" />
        </mxCell>
        <mxCell id="hTme4FrNAQkry3wzWzrD-6" value="&lt;font style=&quot;font-size: 16px;&quot;&gt;初始化日志系统Log&lt;/font&gt;" style="rounded=0;whiteSpace=wrap;html=1;fontFamily=Helvetica;" parent="1" vertex="1">
          <mxGeometry x="100" y="275" width="110" height="60" as="geometry" />
        </mxCell>
        <mxCell id="hTme4FrNAQkry3wzWzrD-22" value="" style="line;strokeWidth=2;html=1;fontSize=10;fontFamily=Helvetica;" parent="1" vertex="1">
          <mxGeometry x="210" y="300" width="50" height="10" as="geometry" />
        </mxCell>
        <mxCell id="If7hi21jr3shKMRsduzb-65" value="" style="edgeStyle=orthogonalEdgeStyle;rounded=0;orthogonalLoop=1;jettySize=auto;html=1;fontFamily=Helvetica;fontSize=10;" parent="1" source="hTme4FrNAQkry3wzWzrD-115" target="If7hi21jr3shKMRsduzb-64" edge="1">
          <mxGeometry relative="1" as="geometry" />
        </mxCell>
        <mxCell id="hTme4FrNAQkry3wzWzrD-115" value="&lt;span style=&quot;font-size: 16px;&quot;&gt;初始化数据库连接池connection_pool&lt;/span&gt;" style="whiteSpace=wrap;html=1;rounded=0;fontFamily=Helvetica;" parent="1" vertex="1">
          <mxGeometry x="80" y="400" width="150" height="60" as="geometry" />
        </mxCell>
        <mxCell id="hTme4FrNAQkry3wzWzrD-128" value="connection_pool-init函数" style="swimlane;fontStyle=0;childLayout=stackLayout;horizontal=1;startSize=30;horizontalStack=0;resizeParent=1;resizeParentMax=0;resizeLast=0;collapsible=1;marginBottom=0;labelBackgroundColor=#FFFFFF;labelBorderColor=none;fontSize=12;strokeWidth=1;fontFamily=Helvetica;" parent="1" vertex="1">
          <mxGeometry x="260" y="400" width="230" height="70" as="geometry">
            <mxRectangle x="260" y="400" width="170" height="30" as="alternateBounds" />
          </mxGeometry>
        </mxCell>
        <mxCell id="hTme4FrNAQkry3wzWzrD-129" value="初始化若干数据库连接" style="text;strokeColor=#D6B656;fillColor=#fff2cc;align=left;verticalAlign=middle;spacingLeft=4;spacingRight=4;overflow=hidden;points=[[0,0.5],[1,0.5]];portConstraint=eastwest;rotatable=0;labelBackgroundColor=none;labelBorderColor=none;fontSize=9;whiteSpace=wrap;fontStyle=0;fontFamily=Helvetica;" parent="hTme4FrNAQkry3wzWzrD-128" vertex="1">
          <mxGeometry y="30" width="230" height="20" as="geometry" />
        </mxCell>
        <mxCell id="hTme4FrNAQkry3wzWzrD-130" value="将数据库连接插入连接池（connList）中" style="text;strokeColor=#d6b656;fillColor=#fff2cc;align=left;verticalAlign=middle;spacingLeft=4;spacingRight=4;overflow=hidden;points=[[0,0.5],[1,0.5]];portConstraint=eastwest;rotatable=0;labelBackgroundColor=none;labelBorderColor=none;fontSize=9;whiteSpace=wrap;fontFamily=Helvetica;" parent="hTme4FrNAQkry3wzWzrD-128" vertex="1">
          <mxGeometry y="50" width="230" height="20" as="geometry" />
        </mxCell>
        <mxCell id="hTme4FrNAQkry3wzWzrD-132" value="" style="line;strokeWidth=2;html=1;fontSize=10;fontFamily=Helvetica;" parent="1" vertex="1">
          <mxGeometry x="230" y="410" width="30" height="10" as="geometry" />
        </mxCell>
        <mxCell id="hTme4FrNAQkry3wzWzrD-92" value="线程同步类" style="shape=table;startSize=20;container=1;collapsible=0;childLayout=tableLayout;fixedRows=1;rowLines=0;fontStyle=1;labelBackgroundColor=#FFFFFF;labelBorderColor=none;fontSize=11;fontColor=#000000;strokeColor=default;fontFamily=Helvetica;" parent="1" vertex="1">
          <mxGeometry x="950" y="200" width="140" height="90" as="geometry" />
        </mxCell>
        <mxCell id="hTme4FrNAQkry3wzWzrD-93" value="" style="shape=tableRow;horizontal=0;startSize=0;swimlaneHead=0;swimlaneBody=0;top=0;left=0;bottom=0;right=0;collapsible=0;dropTarget=0;fillColor=none;points=[[0,0.5],[1,0.5]];portConstraint=eastwest;labelBackgroundColor=#FFFFFF;labelBorderColor=none;fontSize=11;fontColor=#000000;strokeColor=default;fontFamily=Helvetica;" parent="hTme4FrNAQkry3wzWzrD-92" vertex="1">
          <mxGeometry y="20" width="140" height="20" as="geometry" />
        </mxCell>
        <mxCell id="hTme4FrNAQkry3wzWzrD-94" value="1" style="shape=partialRectangle;html=1;whiteSpace=wrap;connectable=0;fillColor=none;top=0;left=0;bottom=0;right=0;overflow=hidden;pointerEvents=1;labelBackgroundColor=#FFFFFF;labelBorderColor=none;fontSize=11;fontColor=#000000;strokeColor=default;fontFamily=Helvetica;" parent="hTme4FrNAQkry3wzWzrD-93" vertex="1">
          <mxGeometry width="19" height="20" as="geometry">
            <mxRectangle width="19" height="20" as="alternateBounds" />
          </mxGeometry>
        </mxCell>
        <mxCell id="hTme4FrNAQkry3wzWzrD-95" value="互斥锁locker" style="shape=partialRectangle;html=1;whiteSpace=wrap;connectable=0;fillColor=none;top=0;left=0;bottom=0;right=0;align=center;spacingLeft=6;overflow=hidden;labelBackgroundColor=#FFFFFF;labelBorderColor=none;fontSize=11;fontColor=#000000;strokeColor=default;fontFamily=Helvetica;" parent="hTme4FrNAQkry3wzWzrD-93" vertex="1">
          <mxGeometry x="19" width="121" height="20" as="geometry">
            <mxRectangle width="121" height="20" as="alternateBounds" />
          </mxGeometry>
        </mxCell>
        <mxCell id="hTme4FrNAQkry3wzWzrD-96" value="" style="shape=tableRow;horizontal=0;startSize=0;swimlaneHead=0;swimlaneBody=0;top=0;left=0;bottom=0;right=0;collapsible=0;dropTarget=0;fillColor=none;points=[[0,0.5],[1,0.5]];portConstraint=eastwest;labelBackgroundColor=#FFFFFF;labelBorderColor=none;fontSize=11;fontColor=#000000;strokeColor=default;fontFamily=Helvetica;" parent="hTme4FrNAQkry3wzWzrD-92" vertex="1">
          <mxGeometry y="40" width="140" height="20" as="geometry" />
        </mxCell>
        <mxCell id="hTme4FrNAQkry3wzWzrD-97" value="2" style="shape=partialRectangle;html=1;whiteSpace=wrap;connectable=0;fillColor=none;top=0;left=0;bottom=0;right=0;overflow=hidden;labelBackgroundColor=#FFFFFF;labelBorderColor=none;fontSize=11;fontColor=#000000;strokeColor=default;fontFamily=Helvetica;" parent="hTme4FrNAQkry3wzWzrD-96" vertex="1">
          <mxGeometry width="19" height="20" as="geometry">
            <mxRectangle width="19" height="20" as="alternateBounds" />
          </mxGeometry>
        </mxCell>
        <mxCell id="hTme4FrNAQkry3wzWzrD-98" value="信号量sem" style="shape=partialRectangle;html=1;whiteSpace=wrap;connectable=0;fillColor=none;top=0;left=0;bottom=0;right=0;align=center;spacingLeft=6;overflow=hidden;labelBackgroundColor=#FFFFFF;labelBorderColor=none;fontSize=11;fontColor=#000000;strokeColor=default;fontFamily=Helvetica;" parent="hTme4FrNAQkry3wzWzrD-96" vertex="1">
          <mxGeometry x="19" width="121" height="20" as="geometry">
            <mxRectangle width="121" height="20" as="alternateBounds" />
          </mxGeometry>
        </mxCell>
        <mxCell id="hTme4FrNAQkry3wzWzrD-99" value="" style="shape=tableRow;horizontal=0;startSize=0;swimlaneHead=0;swimlaneBody=0;top=0;left=0;bottom=0;right=0;collapsible=0;dropTarget=0;fillColor=none;points=[[0,0.5],[1,0.5]];portConstraint=eastwest;labelBackgroundColor=#FFFFFF;labelBorderColor=none;fontSize=11;fontColor=#000000;strokeColor=default;fontFamily=Helvetica;" parent="hTme4FrNAQkry3wzWzrD-92" vertex="1">
          <mxGeometry y="60" width="140" height="20" as="geometry" />
        </mxCell>
        <mxCell id="hTme4FrNAQkry3wzWzrD-100" value="3" style="shape=partialRectangle;html=1;whiteSpace=wrap;connectable=0;fillColor=none;top=0;left=0;bottom=0;right=0;overflow=hidden;labelBackgroundColor=#FFFFFF;labelBorderColor=none;fontSize=11;fontColor=#000000;strokeColor=default;fontFamily=Helvetica;" parent="hTme4FrNAQkry3wzWzrD-99" vertex="1">
          <mxGeometry width="19" height="20" as="geometry">
            <mxRectangle width="19" height="20" as="alternateBounds" />
          </mxGeometry>
        </mxCell>
        <mxCell id="hTme4FrNAQkry3wzWzrD-101" value="条件变量cond" style="shape=partialRectangle;html=1;whiteSpace=wrap;connectable=0;fillColor=none;top=0;left=0;bottom=0;right=0;align=center;spacingLeft=6;overflow=hidden;labelBackgroundColor=#FFFFFF;labelBorderColor=none;fontSize=11;fontColor=#000000;strokeColor=default;fontFamily=Helvetica;" parent="hTme4FrNAQkry3wzWzrD-99" vertex="1">
          <mxGeometry x="19" width="121" height="20" as="geometry">
            <mxRectangle width="121" height="20" as="alternateBounds" />
          </mxGeometry>
        </mxCell>
        <mxCell id="If7hi21jr3shKMRsduzb-15" value="日志类Log" style="shape=table;startSize=30;container=1;collapsible=0;childLayout=tableLayout;fixedRows=1;rowLines=0;fontStyle=1;labelBackgroundColor=#FFFFFF;labelBorderColor=none;fontSize=11;fontColor=#000000;strokeColor=default;fontFamily=Helvetica;" parent="1" vertex="1">
          <mxGeometry x="950" y="310" width="140" height="90" as="geometry" />
        </mxCell>
        <mxCell id="If7hi21jr3shKMRsduzb-16" value="" style="shape=tableRow;horizontal=0;startSize=0;swimlaneHead=0;swimlaneBody=0;top=0;left=0;bottom=0;right=0;collapsible=0;dropTarget=0;fillColor=none;points=[[0,0.5],[1,0.5]];portConstraint=eastwest;labelBackgroundColor=#FFFFFF;labelBorderColor=none;fontSize=11;fontColor=#000000;strokeColor=default;fontFamily=Helvetica;" parent="If7hi21jr3shKMRsduzb-15" vertex="1">
          <mxGeometry y="30" width="140" height="20" as="geometry" />
        </mxCell>
        <mxCell id="If7hi21jr3shKMRsduzb-17" value="1" style="shape=partialRectangle;html=1;whiteSpace=wrap;connectable=0;fillColor=none;top=0;left=0;bottom=0;right=0;overflow=hidden;pointerEvents=1;labelBackgroundColor=#FFFFFF;labelBorderColor=none;fontSize=11;fontColor=#000000;strokeColor=default;fontFamily=Helvetica;" parent="If7hi21jr3shKMRsduzb-16" vertex="1">
          <mxGeometry width="19" height="20" as="geometry">
            <mxRectangle width="19" height="20" as="alternateBounds" />
          </mxGeometry>
        </mxCell>
        <mxCell id="If7hi21jr3shKMRsduzb-18" value="init初始化函数" style="shape=partialRectangle;html=1;whiteSpace=wrap;connectable=0;fillColor=none;top=0;left=0;bottom=0;right=0;align=center;spacingLeft=6;overflow=hidden;labelBackgroundColor=#FFFFFF;labelBorderColor=none;fontSize=11;fontColor=#000000;strokeColor=default;fontFamily=Helvetica;" parent="If7hi21jr3shKMRsduzb-16" vertex="1">
          <mxGeometry x="19" width="121" height="20" as="geometry">
            <mxRectangle width="121" height="20" as="alternateBounds" />
          </mxGeometry>
        </mxCell>
        <mxCell id="If7hi21jr3shKMRsduzb-19" value="" style="shape=tableRow;horizontal=0;startSize=0;swimlaneHead=0;swimlaneBody=0;top=0;left=0;bottom=0;right=0;collapsible=0;dropTarget=0;fillColor=none;points=[[0,0.5],[1,0.5]];portConstraint=eastwest;labelBackgroundColor=#FFFFFF;labelBorderColor=none;fontSize=11;fontColor=#000000;strokeColor=default;fontFamily=Helvetica;" parent="If7hi21jr3shKMRsduzb-15" vertex="1">
          <mxGeometry y="50" width="140" height="20" as="geometry" />
        </mxCell>
        <mxCell id="If7hi21jr3shKMRsduzb-20" value="2" style="shape=partialRectangle;html=1;whiteSpace=wrap;connectable=0;fillColor=none;top=0;left=0;bottom=0;right=0;overflow=hidden;labelBackgroundColor=#FFFFFF;labelBorderColor=none;fontSize=11;fontColor=#000000;strokeColor=default;fontFamily=Helvetica;" parent="If7hi21jr3shKMRsduzb-19" vertex="1">
          <mxGeometry width="19" height="20" as="geometry">
            <mxRectangle width="19" height="20" as="alternateBounds" />
          </mxGeometry>
        </mxCell>
        <mxCell id="If7hi21jr3shKMRsduzb-21" value="write_log函数" style="shape=partialRectangle;html=1;whiteSpace=wrap;connectable=0;fillColor=none;top=0;left=0;bottom=0;right=0;align=center;spacingLeft=6;overflow=hidden;labelBackgroundColor=#FFFFFF;labelBorderColor=none;fontSize=11;fontColor=#000000;strokeColor=default;fontFamily=Helvetica;" parent="If7hi21jr3shKMRsduzb-19" vertex="1">
          <mxGeometry x="19" width="121" height="20" as="geometry">
            <mxRectangle width="121" height="20" as="alternateBounds" />
          </mxGeometry>
        </mxCell>
        <mxCell id="If7hi21jr3shKMRsduzb-22" value="" style="shape=tableRow;horizontal=0;startSize=0;swimlaneHead=0;swimlaneBody=0;top=0;left=0;bottom=0;right=0;collapsible=0;dropTarget=0;fillColor=none;points=[[0,0.5],[1,0.5]];portConstraint=eastwest;labelBackgroundColor=#FFFFFF;labelBorderColor=none;fontSize=11;fontColor=#000000;strokeColor=default;fontFamily=Helvetica;" parent="If7hi21jr3shKMRsduzb-15" vertex="1">
          <mxGeometry y="70" width="140" height="20" as="geometry" />
        </mxCell>
        <mxCell id="If7hi21jr3shKMRsduzb-23" value="3" style="shape=partialRectangle;html=1;whiteSpace=wrap;connectable=0;fillColor=none;top=0;left=0;bottom=0;right=0;overflow=hidden;labelBackgroundColor=#FFFFFF;labelBorderColor=none;fontSize=11;fontColor=#000000;strokeColor=default;fontFamily=Helvetica;" parent="If7hi21jr3shKMRsduzb-22" vertex="1">
          <mxGeometry width="19" height="20" as="geometry">
            <mxRectangle width="19" height="20" as="alternateBounds" />
          </mxGeometry>
        </mxCell>
        <mxCell id="If7hi21jr3shKMRsduzb-24" value="flush刷新函数" style="shape=partialRectangle;html=1;whiteSpace=wrap;connectable=0;fillColor=none;top=0;left=0;bottom=0;right=0;align=center;spacingLeft=6;overflow=hidden;labelBackgroundColor=#FFFFFF;labelBorderColor=none;fontSize=11;fontColor=#000000;strokeColor=default;fontFamily=Helvetica;" parent="If7hi21jr3shKMRsduzb-22" vertex="1">
          <mxGeometry x="19" width="121" height="20" as="geometry">
            <mxRectangle width="121" height="20" as="alternateBounds" />
          </mxGeometry>
        </mxCell>
        <mxCell id="If7hi21jr3shKMRsduzb-33" value="write_log函数" style="swimlane;fontStyle=0;childLayout=stackLayout;horizontal=1;startSize=20;horizontalStack=0;resizeParent=1;resizeParentMax=0;resizeLast=0;collapsible=1;marginBottom=0;labelBackgroundColor=none;fontFamily=Helvetica;fontSize=11;" parent="1" vertex="1">
          <mxGeometry x="1120" y="430" width="180" height="140" as="geometry">
            <mxRectangle x="1120" y="430" width="100" height="20" as="alternateBounds" />
          </mxGeometry>
        </mxCell>
        <mxCell id="If7hi21jr3shKMRsduzb-91" value="更新日志文件名" style="text;strokeColor=#d6b656;fillColor=#fff2cc;align=left;verticalAlign=middle;spacingLeft=4;spacingRight=4;overflow=hidden;points=[[0,0.5],[1,0.5]];portConstraint=eastwest;rotatable=0;labelBackgroundColor=none;fontFamily=Helvetica;fontSize=10;whiteSpace=wrap;" parent="If7hi21jr3shKMRsduzb-33" vertex="1">
          <mxGeometry y="20" width="180" height="20" as="geometry" />
        </mxCell>
        <mxCell id="If7hi21jr3shKMRsduzb-34" value="同步-直接写&#xa;异步-将字符串插入到阻塞队列等待异步线程处理" style="text;strokeColor=#d6b656;fillColor=#fff2cc;align=left;verticalAlign=middle;spacingLeft=4;spacingRight=4;overflow=hidden;points=[[0,0.5],[1,0.5]];portConstraint=eastwest;rotatable=0;labelBackgroundColor=none;fontFamily=Helvetica;fontSize=10;whiteSpace=wrap;" parent="If7hi21jr3shKMRsduzb-33" vertex="1">
          <mxGeometry y="40" width="180" height="50" as="geometry" />
        </mxCell>
        <mxCell id="If7hi21jr3shKMRsduzb-92" value="四种日志&#xa;LOG_DEBUG、LOG_INFO、LOG_WARN、LOG_ERROR" style="text;strokeColor=#d6b656;fillColor=#fff2cc;align=left;verticalAlign=middle;spacingLeft=4;spacingRight=4;overflow=hidden;points=[[0,0.5],[1,0.5]];portConstraint=eastwest;rotatable=0;labelBackgroundColor=none;fontFamily=Helvetica;fontSize=10;whiteSpace=wrap;" parent="If7hi21jr3shKMRsduzb-33" vertex="1">
          <mxGeometry y="90" width="180" height="50" as="geometry" />
        </mxCell>
        <mxCell id="If7hi21jr3shKMRsduzb-67" value="" style="edgeStyle=orthogonalEdgeStyle;rounded=0;orthogonalLoop=1;jettySize=auto;html=1;fontFamily=Helvetica;fontSize=16;" parent="1" source="If7hi21jr3shKMRsduzb-64" target="If7hi21jr3shKMRsduzb-66" edge="1">
          <mxGeometry relative="1" as="geometry" />
        </mxCell>
        <mxCell id="If7hi21jr3shKMRsduzb-64" value="&lt;font style=&quot;font-size: 16px;&quot;&gt;初始化线程池threadpool&lt;/font&gt;" style="rounded=0;whiteSpace=wrap;html=1;" parent="1" vertex="1">
          <mxGeometry x="95" y="540" width="120" height="60" as="geometry" />
        </mxCell>
        <mxCell id="If7hi21jr3shKMRsduzb-69" value="" style="edgeStyle=orthogonalEdgeStyle;rounded=0;orthogonalLoop=1;jettySize=auto;html=1;fontFamily=Helvetica;fontSize=16;" parent="1" source="If7hi21jr3shKMRsduzb-66" target="If7hi21jr3shKMRsduzb-68" edge="1">
          <mxGeometry relative="1" as="geometry" />
        </mxCell>
        <mxCell id="If7hi21jr3shKMRsduzb-66" value="&lt;font style=&quot;font-size: 16px;&quot;&gt;设置触发模式&lt;/font&gt;" style="whiteSpace=wrap;html=1;rounded=0;" parent="1" vertex="1">
          <mxGeometry x="95" y="640" width="120" height="60" as="geometry" />
        </mxCell>
        <mxCell id="If7hi21jr3shKMRsduzb-138" value="" style="edgeStyle=orthogonalEdgeStyle;rounded=0;orthogonalLoop=1;jettySize=auto;html=1;fontFamily=Helvetica;fontSize=10;" parent="1" source="If7hi21jr3shKMRsduzb-68" target="If7hi21jr3shKMRsduzb-137" edge="1">
          <mxGeometry relative="1" as="geometry" />
        </mxCell>
        <mxCell id="If7hi21jr3shKMRsduzb-68" value="&lt;font style=&quot;font-size: 16px;&quot;&gt;监听eventListen&lt;/font&gt;" style="whiteSpace=wrap;html=1;rounded=0;" parent="1" vertex="1">
          <mxGeometry x="95" y="740" width="120" height="60" as="geometry" />
        </mxCell>
        <mxCell id="If7hi21jr3shKMRsduzb-70" value="" style="line;strokeWidth=2;html=1;fontSize=10;fontFamily=Helvetica;" parent="1" vertex="1">
          <mxGeometry x="215" y="765" width="50" height="10" as="geometry" />
        </mxCell>
        <mxCell id="If7hi21jr3shKMRsduzb-71" value="eventListen" style="swimlane;fontStyle=0;childLayout=stackLayout;horizontal=1;startSize=30;horizontalStack=0;resizeParent=1;resizeParentMax=0;resizeLast=0;collapsible=1;marginBottom=0;fontSize=12;fontFamily=Helvetica;" parent="1" vertex="1">
          <mxGeometry x="265" y="755" width="135" height="90" as="geometry">
            <mxRectangle x="265" y="755" width="220" height="30" as="alternateBounds" />
          </mxGeometry>
        </mxCell>
        <mxCell id="If7hi21jr3shKMRsduzb-72" value="socket-bind-listen" style="text;strokeColor=#d6b656;fillColor=#fff2cc;align=left;verticalAlign=middle;spacingLeft=4;spacingRight=4;overflow=hidden;points=[[0,0.5],[1,0.5]];portConstraint=eastwest;rotatable=0;fontSize=10;labelBorderColor=none;labelBackgroundColor=none;fontFamily=Helvetica;" parent="If7hi21jr3shKMRsduzb-71" vertex="1">
          <mxGeometry y="30" width="135" height="20" as="geometry" />
        </mxCell>
        <mxCell id="If7hi21jr3shKMRsduzb-73" value="epoll监听" style="text;strokeColor=#d6b656;fillColor=#fff2cc;align=left;verticalAlign=middle;spacingLeft=4;spacingRight=4;overflow=hidden;points=[[0,0.5],[1,0.5]];portConstraint=eastwest;rotatable=0;fontSize=10;fontFamily=Helvetica;" parent="If7hi21jr3shKMRsduzb-71" vertex="1">
          <mxGeometry y="50" width="135" height="20" as="geometry" />
        </mxCell>
        <mxCell id="If7hi21jr3shKMRsduzb-74" value="utils工具类" style="text;strokeColor=#d6b656;fillColor=#fff2cc;align=left;verticalAlign=middle;spacingLeft=4;spacingRight=4;overflow=hidden;points=[[0,0.5],[1,0.5]];portConstraint=eastwest;rotatable=0;fontSize=10;fontFamily=Helvetica;" parent="If7hi21jr3shKMRsduzb-71" vertex="1">
          <mxGeometry y="70" width="135" height="20" as="geometry" />
        </mxCell>
        <mxCell id="If7hi21jr3shKMRsduzb-93" value="utils工具类" style="swimlane;fontStyle=0;childLayout=stackLayout;horizontal=1;startSize=20;horizontalStack=0;resizeParent=1;resizeParentMax=0;resizeLast=0;collapsible=1;marginBottom=0;fontSize=12;fontFamily=Helvetica;" parent="1" vertex="1">
          <mxGeometry x="1120" y="690" width="120" height="120" as="geometry">
            <mxRectangle x="1120" y="690" width="120" height="20" as="alternateBounds" />
          </mxGeometry>
        </mxCell>
        <mxCell id="If7hi21jr3shKMRsduzb-94" value="设置超时时间" style="text;strokeColor=#d6b656;fillColor=#fff2cc;align=left;verticalAlign=middle;spacingLeft=4;spacingRight=4;overflow=hidden;points=[[0,0.5],[1,0.5]];portConstraint=eastwest;rotatable=0;fontSize=10;labelBorderColor=none;labelBackgroundColor=none;fontFamily=Helvetica;" parent="If7hi21jr3shKMRsduzb-93" vertex="1">
          <mxGeometry y="20" width="120" height="20" as="geometry" />
        </mxCell>
        <mxCell id="If7hi21jr3shKMRsduzb-95" value="设置管道读端非阻塞" style="text;strokeColor=#d6b656;fillColor=#fff2cc;align=left;verticalAlign=middle;spacingLeft=4;spacingRight=4;overflow=hidden;points=[[0,0.5],[1,0.5]];portConstraint=eastwest;rotatable=0;fontSize=9;fontFamily=Helvetica;fontStyle=0" parent="If7hi21jr3shKMRsduzb-93" vertex="1">
          <mxGeometry y="40" width="120" height="20" as="geometry" />
        </mxCell>
        <mxCell id="If7hi21jr3shKMRsduzb-135" value="设置signal信号处理函数" style="text;strokeColor=#d6b656;fillColor=#fff2cc;align=left;verticalAlign=middle;spacingLeft=4;spacingRight=4;overflow=hidden;points=[[0,0.5],[1,0.5]];portConstraint=eastwest;rotatable=0;fontSize=10;fontFamily=Helvetica;" parent="If7hi21jr3shKMRsduzb-93" vertex="1">
          <mxGeometry y="60" width="120" height="20" as="geometry" />
        </mxCell>
        <mxCell id="If7hi21jr3shKMRsduzb-96" value="设置定时处理任务" style="text;strokeColor=#d6b656;fillColor=#fff2cc;align=left;verticalAlign=middle;spacingLeft=4;spacingRight=4;overflow=hidden;points=[[0,0.5],[1,0.5]];portConstraint=eastwest;rotatable=0;fontSize=10;fontFamily=Helvetica;" parent="If7hi21jr3shKMRsduzb-93" vertex="1">
          <mxGeometry y="80" width="120" height="20" as="geometry" />
        </mxCell>
        <mxCell id="If7hi21jr3shKMRsduzb-136" value="显示错误信息" style="text;strokeColor=#d6b656;fillColor=#fff2cc;align=left;verticalAlign=middle;spacingLeft=4;spacingRight=4;overflow=hidden;points=[[0,0.5],[1,0.5]];portConstraint=eastwest;rotatable=0;fontSize=10;fontFamily=Helvetica;" parent="If7hi21jr3shKMRsduzb-93" vertex="1">
          <mxGeometry y="100" width="120" height="20" as="geometry" />
        </mxCell>
        <mxCell id="If7hi21jr3shKMRsduzb-98" value="init初始化函数" style="swimlane;fontStyle=0;childLayout=stackLayout;horizontal=1;startSize=20;horizontalStack=0;resizeParent=1;resizeParentMax=0;resizeLast=0;collapsible=1;marginBottom=0;labelBackgroundColor=none;fontFamily=Helvetica;fontSize=11;" parent="1" vertex="1">
          <mxGeometry x="1120" y="340" width="180" height="90" as="geometry">
            <mxRectangle x="1120" y="340" width="100" height="20" as="alternateBounds" />
          </mxGeometry>
        </mxCell>
        <mxCell id="If7hi21jr3shKMRsduzb-106" value="若为异步，则定义阻塞队列block_queue&#xa;和异步处理线程" style="text;strokeColor=#d6b656;fillColor=#fff2cc;align=left;verticalAlign=middle;spacingLeft=4;spacingRight=4;overflow=hidden;points=[[0,0.5],[1,0.5]];portConstraint=eastwest;rotatable=0;fontSize=10;labelBorderColor=none;labelBackgroundColor=none;fontFamily=Helvetica;" parent="If7hi21jr3shKMRsduzb-98" vertex="1">
          <mxGeometry y="20" width="180" height="30" as="geometry" />
        </mxCell>
        <mxCell id="If7hi21jr3shKMRsduzb-108" value="设置日志文件路径并打开日志文件" style="text;strokeColor=#d6b656;fillColor=#fff2cc;align=left;verticalAlign=middle;spacingLeft=4;spacingRight=4;overflow=hidden;points=[[0,0.5],[1,0.5]];portConstraint=eastwest;rotatable=0;fontSize=10;fontFamily=Helvetica;" parent="If7hi21jr3shKMRsduzb-98" vertex="1">
          <mxGeometry y="50" width="180" height="20" as="geometry" />
        </mxCell>
        <mxCell id="If7hi21jr3shKMRsduzb-107" value="初始化日志缓冲区（m_buf）" style="text;strokeColor=#d6b656;fillColor=#fff2cc;align=left;verticalAlign=middle;spacingLeft=4;spacingRight=4;overflow=hidden;points=[[0,0.5],[1,0.5]];portConstraint=eastwest;rotatable=0;fontSize=9;fontFamily=Helvetica;" parent="If7hi21jr3shKMRsduzb-98" vertex="1">
          <mxGeometry y="70" width="180" height="20" as="geometry" />
        </mxCell>
        <mxCell id="If7hi21jr3shKMRsduzb-110" value="" style="edgeStyle=orthogonalEdgeStyle;rounded=0;orthogonalLoop=1;jettySize=auto;html=1;fontSize=12;fontColor=#000000;fontFamily=Helvetica;" parent="1" source="If7hi21jr3shKMRsduzb-119" edge="1">
          <mxGeometry relative="1" as="geometry">
            <mxPoint x="1460.0000000000002" y="400" as="targetPoint" />
          </mxGeometry>
        </mxCell>
        <UserObject label="调用" placeholders="1" name="Variable" id="If7hi21jr3shKMRsduzb-111">
          <mxCell style="text;html=1;strokeColor=none;fillColor=none;align=center;verticalAlign=middle;whiteSpace=wrap;overflow=hidden;labelBackgroundColor=#FFFFFF;labelBorderColor=none;fontSize=12;fontColor=#000000;fontFamily=Helvetica;" parent="1" vertex="1">
            <mxGeometry x="1420" y="380" width="30" height="20" as="geometry" />
          </mxCell>
        </UserObject>
        <mxCell id="If7hi21jr3shKMRsduzb-112" value="异步写日志函数async_write_log" style="swimlane;labelBackgroundColor=#FFFFFF;labelBorderColor=none;fontSize=11;fillColor=#f8cecc;strokeColor=#b85450;fontFamily=Helvetica;" parent="1" vertex="1">
          <mxGeometry x="1460" y="390" width="210" height="60" as="geometry">
            <mxRectangle x="640" y="350" width="190" height="30" as="alternateBounds" />
          </mxGeometry>
        </mxCell>
        <mxCell id="If7hi21jr3shKMRsduzb-113" style="edgeStyle=orthogonalEdgeStyle;rounded=0;orthogonalLoop=1;jettySize=auto;html=1;exitX=1;exitY=0.5;exitDx=0;exitDy=0;entryX=0;entryY=0.5;entryDx=0;entryDy=0;fontSize=11;fontColor=#000000;fontFamily=Helvetica;" parent="If7hi21jr3shKMRsduzb-112" source="If7hi21jr3shKMRsduzb-114" target="If7hi21jr3shKMRsduzb-115" edge="1">
          <mxGeometry relative="1" as="geometry" />
        </mxCell>
        <mxCell id="If7hi21jr3shKMRsduzb-114" value="&lt;font style=&quot;font-size: 11px;&quot;&gt;从阻塞队列中取出一个日志（队列pop）&lt;/font&gt;" style="text;html=1;strokeColor=default;fillColor=default;align=center;verticalAlign=middle;whiteSpace=wrap;rounded=0;labelBackgroundColor=#FFFFFF;labelBorderColor=none;fontSize=11;fontColor=#000000;strokeWidth=1;fontFamily=Helvetica;" parent="If7hi21jr3shKMRsduzb-112" vertex="1">
          <mxGeometry x="10" y="25" width="110" height="30" as="geometry" />
        </mxCell>
        <mxCell id="If7hi21jr3shKMRsduzb-115" value="将日志写入文件" style="text;html=1;strokeColor=default;fillColor=none;align=center;verticalAlign=middle;whiteSpace=wrap;rounded=0;labelBackgroundColor=#FFFFFF;labelBorderColor=none;fontSize=11;fontColor=#000000;strokeWidth=1;fontFamily=Helvetica;" parent="If7hi21jr3shKMRsduzb-112" vertex="1">
          <mxGeometry x="140" y="25" width="60" height="30" as="geometry" />
        </mxCell>
        <mxCell id="If7hi21jr3shKMRsduzb-116" value="" style="group" parent="1" connectable="0" vertex="1">
          <mxGeometry x="1300" y="320" width="120" height="100" as="geometry" />
        </mxCell>
        <mxCell id="If7hi21jr3shKMRsduzb-117" value="阻塞队列中维护一个数组m_array" style="whiteSpace=wrap;html=1;align=center;labelBackgroundColor=#FFFFFF;labelBorderColor=none;fontSize=12;fontColor=#000000;strokeColor=default;fontFamily=Helvetica;" parent="If7hi21jr3shKMRsduzb-116" vertex="1">
          <mxGeometry x="20" width="100" height="40" as="geometry" />
        </mxCell>
        <mxCell id="If7hi21jr3shKMRsduzb-118" value="" style="shape=curlyBracket;whiteSpace=wrap;html=1;rounded=1;labelBackgroundColor=#FFFFFF;labelBorderColor=none;fontSize=12;fontColor=#000000;strokeColor=default;fontFamily=Helvetica;" parent="If7hi21jr3shKMRsduzb-116" vertex="1">
          <mxGeometry y="10" width="20" height="80" as="geometry" />
        </mxCell>
        <mxCell id="If7hi21jr3shKMRsduzb-119" value="静态线程回调函数flush_log_thread" style="whiteSpace=wrap;html=1;align=center;labelBackgroundColor=#FFFFFF;labelBorderColor=none;fontSize=12;fontColor=#000000;strokeColor=default;fontFamily=Helvetica;" parent="If7hi21jr3shKMRsduzb-116" vertex="1">
          <mxGeometry x="20" y="60" width="100" height="40" as="geometry" />
        </mxCell>
        <mxCell id="If7hi21jr3shKMRsduzb-120" value="" style="line;strokeWidth=2;html=1;fontSize=10;fontFamily=Helvetica;" parent="1" vertex="1">
          <mxGeometry x="1090" y="345" width="30" height="10" as="geometry" />
        </mxCell>
        <mxCell id="If7hi21jr3shKMRsduzb-123" value="" style="line;strokeWidth=2;html=1;fontSize=10;fontFamily=Helvetica;rotation=90;" parent="1" vertex="1">
          <mxGeometry x="1070" y="400" width="70" height="10" as="geometry" />
        </mxCell>
        <mxCell id="If7hi21jr3shKMRsduzb-130" value="" style="line;strokeWidth=2;html=1;labelBackgroundColor=none;fontFamily=Helvetica;fontSize=10;" parent="1" vertex="1">
          <mxGeometry x="1104" y="435" width="16" height="10" as="geometry" />
        </mxCell>
        <mxCell id="If7hi21jr3shKMRsduzb-131" value="" style="line;strokeWidth=2;html=1;labelBackgroundColor=none;fontFamily=Helvetica;fontSize=10;" parent="1" vertex="1">
          <mxGeometry x="1090" y="365" width="16" height="10" as="geometry" />
        </mxCell>
        <mxCell id="If7hi21jr3shKMRsduzb-132" value="" style="line;strokeWidth=2;html=1;fontSize=10;fontFamily=Helvetica;" parent="1" vertex="1">
          <mxGeometry x="1090" y="695" width="30" height="10" as="geometry" />
        </mxCell>
        <mxCell id="If7hi21jr3shKMRsduzb-137" value="&lt;font style=&quot;font-size: 16px;&quot;&gt;运行&lt;/font&gt;" style="whiteSpace=wrap;html=1;rounded=0;" parent="1" vertex="1">
          <mxGeometry x="95" y="880" width="120" height="30" as="geometry" />
        </mxCell>
        <mxCell id="If7hi21jr3shKMRsduzb-139" value="读取Epoll监听事件集" style="swimlane;fontStyle=0;childLayout=stackLayout;horizontal=1;startSize=30;horizontalStack=0;resizeParent=1;resizeParentMax=0;resizeLast=0;collapsible=1;marginBottom=0;fontSize=12;fontFamily=Helvetica;" parent="1" vertex="1">
          <mxGeometry x="265" y="880" width="185" height="110" as="geometry">
            <mxRectangle x="265" y="755" width="220" height="30" as="alternateBounds" />
          </mxGeometry>
        </mxCell>
        <mxCell id="If7hi21jr3shKMRsduzb-140" value="监听到listenfd" style="text;strokeColor=#d6b656;fillColor=#fff2cc;align=left;verticalAlign=middle;spacingLeft=4;spacingRight=4;overflow=hidden;points=[[0,0.5],[1,0.5]];portConstraint=eastwest;rotatable=0;fontSize=10;labelBorderColor=none;labelBackgroundColor=none;fontFamily=Helvetica;" parent="If7hi21jr3shKMRsduzb-139" vertex="1">
          <mxGeometry y="30" width="185" height="20" as="geometry" />
        </mxCell>
        <mxCell id="If7hi21jr3shKMRsduzb-141" value="监听到http连接错误信号" style="text;strokeColor=#d6b656;fillColor=#fff2cc;align=left;verticalAlign=middle;spacingLeft=4;spacingRight=4;overflow=hidden;points=[[0,0.5],[1,0.5]];portConstraint=eastwest;rotatable=0;fontSize=10;fontFamily=Helvetica;" parent="If7hi21jr3shKMRsduzb-139" vertex="1">
          <mxGeometry y="50" width="185" height="20" as="geometry" />
        </mxCell>
        <mxCell id="If7hi21jr3shKMRsduzb-142" value="监听到子线程信号" style="text;strokeColor=#d6b656;fillColor=#fff2cc;align=left;verticalAlign=middle;spacingLeft=4;spacingRight=4;overflow=hidden;points=[[0,0.5],[1,0.5]];portConstraint=eastwest;rotatable=0;fontSize=10;fontFamily=Helvetica;" parent="If7hi21jr3shKMRsduzb-139" vertex="1">
          <mxGeometry y="70" width="185" height="20" as="geometry" />
        </mxCell>
        <mxCell id="If7hi21jr3shKMRsduzb-144" value="监听到读写事件" style="text;strokeColor=#d6b656;fillColor=#fff2cc;align=left;verticalAlign=middle;spacingLeft=4;spacingRight=4;overflow=hidden;points=[[0,0.5],[1,0.5]];portConstraint=eastwest;rotatable=0;fontSize=10;fontFamily=Helvetica;" parent="If7hi21jr3shKMRsduzb-139" vertex="1">
          <mxGeometry y="90" width="185" height="20" as="geometry" />
        </mxCell>
        <mxCell id="If7hi21jr3shKMRsduzb-143" value="" style="line;strokeWidth=2;html=1;fontSize=10;fontFamily=Helvetica;" parent="1" vertex="1">
          <mxGeometry x="215" y="890" width="50" height="10" as="geometry" />
        </mxCell>
        <mxCell id="If7hi21jr3shKMRsduzb-148" value="dealclinetdata" style="swimlane;fontStyle=0;childLayout=stackLayout;horizontal=1;startSize=30;horizontalStack=0;resizeParent=1;resizeParentMax=0;resizeLast=0;collapsible=1;marginBottom=0;fontSize=12;fontFamily=Helvetica;" parent="1" vertex="1">
          <mxGeometry x="480" y="880" width="280" height="90" as="geometry">
            <mxRectangle x="480" y="880" width="220" height="30" as="alternateBounds" />
          </mxGeometry>
        </mxCell>
        <mxCell id="If7hi21jr3shKMRsduzb-149" value="accept获得新的文件描述符connfd，并添加到epoll内核中" style="text;strokeColor=#d6b656;fillColor=#fff2cc;align=left;verticalAlign=middle;spacingLeft=4;spacingRight=4;overflow=hidden;points=[[0,0.5],[1,0.5]];portConstraint=eastwest;rotatable=0;fontSize=10;labelBorderColor=none;labelBackgroundColor=none;fontFamily=Helvetica;" parent="If7hi21jr3shKMRsduzb-148" vertex="1">
          <mxGeometry y="30" width="280" height="20" as="geometry" />
        </mxCell>
        <mxCell id="If7hi21jr3shKMRsduzb-166" value="timer函数：初始化http_conn连接，创建该http连接的定时器，并加入定时器链表中" style="text;strokeColor=#d6b656;fillColor=#fff2cc;align=left;verticalAlign=middle;spacingLeft=4;spacingRight=4;overflow=hidden;points=[[0,0.5],[1,0.5]];portConstraint=eastwest;rotatable=0;fontSize=10;labelBorderColor=none;labelBackgroundColor=none;fontFamily=Helvetica;whiteSpace=wrap;" parent="If7hi21jr3shKMRsduzb-148" vertex="1">
          <mxGeometry y="50" width="280" height="40" as="geometry" />
        </mxCell>
        <mxCell id="If7hi21jr3shKMRsduzb-153" value="监听到读写请求" style="swimlane;fontStyle=0;childLayout=stackLayout;horizontal=1;startSize=30;horizontalStack=0;resizeParent=1;resizeParentMax=0;resizeLast=0;collapsible=1;marginBottom=0;fontSize=12;fontFamily=Helvetica;" parent="1" vertex="1">
          <mxGeometry x="480" y="1099" width="185" height="70" as="geometry">
            <mxRectangle x="480" y="1050" width="220" height="30" as="alternateBounds" />
          </mxGeometry>
        </mxCell>
        <mxCell id="If7hi21jr3shKMRsduzb-154" value="读事件：dealwithread" style="text;strokeColor=#d6b656;fillColor=#fff2cc;align=left;verticalAlign=middle;spacingLeft=4;spacingRight=4;overflow=hidden;points=[[0,0.5],[1,0.5]];portConstraint=eastwest;rotatable=0;fontSize=10;labelBorderColor=none;labelBackgroundColor=none;fontFamily=Helvetica;" parent="If7hi21jr3shKMRsduzb-153" vertex="1">
          <mxGeometry y="30" width="185" height="20" as="geometry" />
        </mxCell>
        <mxCell id="If7hi21jr3shKMRsduzb-155" value="写事件：dealwithwrite" style="text;strokeColor=#d6b656;fillColor=#fff2cc;align=left;verticalAlign=middle;spacingLeft=4;spacingRight=4;overflow=hidden;points=[[0,0.5],[1,0.5]];portConstraint=eastwest;rotatable=0;fontSize=10;labelBorderColor=none;labelBackgroundColor=none;fontFamily=Helvetica;" parent="If7hi21jr3shKMRsduzb-153" vertex="1">
          <mxGeometry y="50" width="185" height="20" as="geometry" />
        </mxCell>
        <mxCell id="If7hi21jr3shKMRsduzb-156" value="dealwithsignal" style="swimlane;fontStyle=0;childLayout=stackLayout;horizontal=1;startSize=30;horizontalStack=0;resizeParent=1;resizeParentMax=0;resizeLast=0;collapsible=1;marginBottom=0;fontSize=12;fontFamily=Helvetica;" parent="1" vertex="1">
          <mxGeometry x="480" y="1039" width="185" height="50" as="geometry">
            <mxRectangle x="480" y="990" width="220" height="30" as="alternateBounds" />
          </mxGeometry>
        </mxCell>
        <mxCell id="If7hi21jr3shKMRsduzb-157" value="处理客户端连接" style="text;strokeColor=#d6b656;fillColor=#fff2cc;align=left;verticalAlign=middle;spacingLeft=4;spacingRight=4;overflow=hidden;points=[[0,0.5],[1,0.5]];portConstraint=eastwest;rotatable=0;fontSize=10;labelBorderColor=none;labelBackgroundColor=none;fontFamily=Helvetica;" parent="If7hi21jr3shKMRsduzb-156" vertex="1">
          <mxGeometry y="30" width="185" height="20" as="geometry" />
        </mxCell>
        <mxCell id="If7hi21jr3shKMRsduzb-160" value="&lt;font style=&quot;font-size: 11px;&quot;&gt;服务器端关闭连接&lt;br&gt;移除对应的定时器&lt;/font&gt;" style="rounded=0;whiteSpace=wrap;html=1;labelBackgroundColor=none;fontFamily=Helvetica;fontSize=16;strokeWidth=1;" parent="1" vertex="1">
          <mxGeometry x="480" y="980" width="130" height="40" as="geometry" />
        </mxCell>
        <mxCell id="If7hi21jr3shKMRsduzb-167" value="读事件：dealwithread" style="swimlane;fontStyle=0;childLayout=stackLayout;horizontal=1;startSize=31;horizontalStack=0;resizeParent=1;resizeParentMax=0;resizeLast=0;collapsible=1;marginBottom=0;fontSize=12;fontFamily=Helvetica;" parent="1" vertex="1">
          <mxGeometry x="720" y="1099" width="160" height="71" as="geometry">
            <mxRectangle x="480" y="1050" width="220" height="30" as="alternateBounds" />
          </mxGeometry>
        </mxCell>
        <mxCell id="If7hi21jr3shKMRsduzb-168" value="reactor" style="text;strokeColor=#d6b656;fillColor=#fff2cc;align=left;verticalAlign=middle;spacingLeft=4;spacingRight=4;overflow=hidden;points=[[0,0.5],[1,0.5]];portConstraint=eastwest;rotatable=0;fontSize=10;labelBorderColor=none;labelBackgroundColor=none;fontFamily=Helvetica;" parent="If7hi21jr3shKMRsduzb-167" vertex="1">
          <mxGeometry y="31" width="160" height="20" as="geometry" />
        </mxCell>
        <mxCell id="If7hi21jr3shKMRsduzb-169" value="proactor" style="text;strokeColor=#d6b656;fillColor=#fff2cc;align=left;verticalAlign=middle;spacingLeft=4;spacingRight=4;overflow=hidden;points=[[0,0.5],[1,0.5]];portConstraint=eastwest;rotatable=0;fontSize=10;labelBorderColor=none;labelBackgroundColor=none;fontFamily=Helvetica;" parent="If7hi21jr3shKMRsduzb-167" vertex="1">
          <mxGeometry y="51" width="160" height="20" as="geometry" />
        </mxCell>
        <mxCell id="If7hi21jr3shKMRsduzb-170" value="&lt;span style=&quot;font-size: 10px; background-color: initial;&quot;&gt;读取数据&lt;/span&gt;&lt;br&gt;&lt;span style=&quot;font-size: 10px; background-color: initial;&quot;&gt;将事件插入请求队列&lt;/span&gt;&lt;br&gt;&lt;span style=&quot;font-size: 10px; background-color: initial;&quot;&gt;调整计时器&lt;/span&gt;" style="text;strokeColor=default;fillColor=none;html=1;whiteSpace=wrap;verticalAlign=middle;overflow=hidden;labelBackgroundColor=none;fontFamily=Helvetica;fontSize=11;fillOpacity=100;imageAlign=left;deletable=1;" parent="1" vertex="1">
          <mxGeometry x="920" y="1150" width="140" height="50" as="geometry" />
        </mxCell>
        <mxCell id="If7hi21jr3shKMRsduzb-171" value="&lt;span style=&quot;font-size: 10px;&quot;&gt;调整计时器&lt;/span&gt;&lt;br&gt;&lt;span style=&quot;font-size: 10px; background-color: initial;&quot;&gt;将事件插入请求队列&lt;/span&gt;&lt;br&gt;&lt;span style=&quot;font-size: 10px; background-color: initial;&quot;&gt;等待&lt;/span&gt;&lt;span style=&quot;font-size: 10px;&quot;&gt;工作&lt;/span&gt;&lt;span style=&quot;font-size: 10px; background-color: initial;&quot;&gt;线程处理完数据&lt;/span&gt;" style="text;strokeColor=default;fillColor=none;html=1;whiteSpace=wrap;verticalAlign=middle;overflow=hidden;labelBackgroundColor=none;fontFamily=Helvetica;fontSize=11;fillOpacity=100;imageAlign=left;deletable=1;" parent="1" vertex="1">
          <mxGeometry x="920" y="1100" width="140" height="50" as="geometry" />
        </mxCell>
        <mxCell id="If7hi21jr3shKMRsduzb-172" value="" style="endArrow=classic;html=1;rounded=0;fontFamily=Helvetica;fontSize=11;curved=1;entryX=0;entryY=0.5;entryDx=0;entryDy=0;exitX=1;exitY=0.5;exitDx=0;exitDy=0;" parent="1" source="If7hi21jr3shKMRsduzb-168" target="If7hi21jr3shKMRsduzb-171" edge="1">
          <mxGeometry width="50" height="50" relative="1" as="geometry">
            <mxPoint x="910" y="1140" as="sourcePoint" />
            <mxPoint x="900" y="1150" as="targetPoint" />
          </mxGeometry>
        </mxCell>
        <mxCell id="If7hi21jr3shKMRsduzb-174" value="" style="endArrow=classic;html=1;rounded=0;fontFamily=Helvetica;fontSize=11;curved=1;entryX=0;entryY=0.5;entryDx=0;entryDy=0;exitX=1;exitY=0.5;exitDx=0;exitDy=0;" parent="1" source="If7hi21jr3shKMRsduzb-169" target="If7hi21jr3shKMRsduzb-170" edge="1">
          <mxGeometry width="50" height="50" relative="1" as="geometry">
            <mxPoint x="905" y="1165" as="sourcePoint" />
            <mxPoint x="920" y="1149" as="targetPoint" />
          </mxGeometry>
        </mxCell>
        <mxCell id="If7hi21jr3shKMRsduzb-175" value="写事件：dealwithwrite" style="swimlane;fontStyle=0;childLayout=stackLayout;horizontal=1;startSize=31;horizontalStack=0;resizeParent=1;resizeParentMax=0;resizeLast=0;collapsible=1;marginBottom=0;fontSize=12;fontFamily=Helvetica;" parent="1" vertex="1">
          <mxGeometry x="720" y="1170" width="160" height="71" as="geometry">
            <mxRectangle x="480" y="1050" width="220" height="30" as="alternateBounds" />
          </mxGeometry>
        </mxCell>
        <mxCell id="If7hi21jr3shKMRsduzb-176" value="reactor" style="text;strokeColor=#d6b656;fillColor=#fff2cc;align=left;verticalAlign=middle;spacingLeft=4;spacingRight=4;overflow=hidden;points=[[0,0.5],[1,0.5]];portConstraint=eastwest;rotatable=0;fontSize=10;labelBorderColor=none;labelBackgroundColor=none;fontFamily=Helvetica;" parent="If7hi21jr3shKMRsduzb-175" vertex="1">
          <mxGeometry y="31" width="160" height="20" as="geometry" />
        </mxCell>
        <mxCell id="If7hi21jr3shKMRsduzb-177" value="proactor" style="text;strokeColor=#d6b656;fillColor=#fff2cc;align=left;verticalAlign=middle;spacingLeft=4;spacingRight=4;overflow=hidden;points=[[0,0.5],[1,0.5]];portConstraint=eastwest;rotatable=0;fontSize=10;labelBorderColor=none;labelBackgroundColor=none;fontFamily=Helvetica;" parent="If7hi21jr3shKMRsduzb-175" vertex="1">
          <mxGeometry y="51" width="160" height="20" as="geometry" />
        </mxCell>
        <mxCell id="If7hi21jr3shKMRsduzb-178" value="&lt;span style=&quot;font-size: 10px;&quot;&gt;处理子线程发出的SIGALRM、&lt;/span&gt;&lt;span style=&quot;font-size: 10px;&quot;&gt;SIGTERM信号&lt;/span&gt;" style="text;strokeColor=default;fillColor=none;html=1;whiteSpace=wrap;verticalAlign=middle;overflow=hidden;labelBackgroundColor=none;fontFamily=Helvetica;fontSize=11;fillOpacity=100;imageAlign=left;deletable=1;" parent="1" vertex="1">
          <mxGeometry x="720" y="1039" width="130" height="50" as="geometry" />
        </mxCell>
        <mxCell id="If7hi21jr3shKMRsduzb-179" value="" style="endArrow=classic;html=1;rounded=0;fontFamily=Helvetica;fontSize=11;entryX=0;entryY=0.5;entryDx=0;entryDy=0;exitX=1;exitY=0.5;exitDx=0;exitDy=0;" parent="1" source="If7hi21jr3shKMRsduzb-157" target="If7hi21jr3shKMRsduzb-178" edge="1">
          <mxGeometry width="50" height="50" relative="1" as="geometry">
            <mxPoint x="679.9999999999998" y="1089" as="sourcePoint" />
            <mxPoint x="695" y="1073" as="targetPoint" />
          </mxGeometry>
        </mxCell>
        <mxCell id="If7hi21jr3shKMRsduzb-180" value="" style="endArrow=classic;html=1;rounded=0;fontFamily=Helvetica;fontSize=11;exitX=1;exitY=0.5;exitDx=0;exitDy=0;entryX=0;entryY=0.169;entryDx=0;entryDy=0;entryPerimeter=0;" parent="1" source="If7hi21jr3shKMRsduzb-140" target="If7hi21jr3shKMRsduzb-148" edge="1">
          <mxGeometry width="50" height="50" relative="1" as="geometry">
            <mxPoint x="450" y="925" as="sourcePoint" />
            <mxPoint x="470" y="910" as="targetPoint" />
          </mxGeometry>
        </mxCell>
        <mxCell id="If7hi21jr3shKMRsduzb-181" value="" style="endArrow=classic;html=1;rounded=0;fontFamily=Helvetica;fontSize=11;exitX=1;exitY=0.5;exitDx=0;exitDy=0;entryX=0;entryY=0.5;entryDx=0;entryDy=0;" parent="1" source="If7hi21jr3shKMRsduzb-141" target="If7hi21jr3shKMRsduzb-160" edge="1">
          <mxGeometry width="50" height="50" relative="1" as="geometry">
            <mxPoint x="450" y="945" as="sourcePoint" />
            <mxPoint x="470" y="960" as="targetPoint" />
          </mxGeometry>
        </mxCell>
        <mxCell id="If7hi21jr3shKMRsduzb-182" value="" style="endArrow=classic;html=1;rounded=0;fontFamily=Helvetica;fontSize=11;exitX=1;exitY=0.5;exitDx=0;exitDy=0;" parent="1" source="If7hi21jr3shKMRsduzb-142" edge="1">
          <mxGeometry width="50" height="50" relative="1" as="geometry">
            <mxPoint x="460" y="950" as="sourcePoint" />
            <mxPoint x="480" y="1055" as="targetPoint" />
          </mxGeometry>
        </mxCell>
        <mxCell id="If7hi21jr3shKMRsduzb-183" value="" style="endArrow=classic;html=1;rounded=0;fontFamily=Helvetica;fontSize=11;exitX=1;exitY=0.5;exitDx=0;exitDy=0;" parent="1" source="If7hi21jr3shKMRsduzb-144" edge="1">
          <mxGeometry width="50" height="50" relative="1" as="geometry">
            <mxPoint x="470" y="960" as="sourcePoint" />
            <mxPoint x="480" y="1115" as="targetPoint" />
          </mxGeometry>
        </mxCell>
        <mxCell id="If7hi21jr3shKMRsduzb-185" value="&lt;span style=&quot;&quot;&gt;使用单例模式（懒汉）创建唯一Log对象&lt;/span&gt;" style="rounded=0;whiteSpace=wrap;html=1;fontFamily=Helvetica;" parent="1" vertex="1">
          <mxGeometry x="260" y="290" width="220" height="30" as="geometry" />
        </mxCell>
        <mxCell id="If7hi21jr3shKMRsduzb-187" value="读取数据：read_once函数" style="swimlane;fontStyle=0;childLayout=stackLayout;horizontal=1;startSize=20;horizontalStack=0;resizeParent=1;resizeParentMax=0;resizeLast=0;collapsible=1;marginBottom=0;fontSize=12;fontFamily=Helvetica;" parent="1" vertex="1">
          <mxGeometry x="1095" y="1150" width="185" height="60" as="geometry">
            <mxRectangle x="480" y="1050" width="220" height="30" as="alternateBounds" />
          </mxGeometry>
        </mxCell>
        <mxCell id="If7hi21jr3shKMRsduzb-188" value="水平触发" style="text;strokeColor=#d6b656;fillColor=#fff2cc;align=left;verticalAlign=middle;spacingLeft=4;spacingRight=4;overflow=hidden;points=[[0,0.5],[1,0.5]];portConstraint=eastwest;rotatable=0;fontSize=10;labelBorderColor=none;labelBackgroundColor=none;fontFamily=Helvetica;" parent="If7hi21jr3shKMRsduzb-187" vertex="1">
          <mxGeometry y="20" width="185" height="20" as="geometry" />
        </mxCell>
        <mxCell id="If7hi21jr3shKMRsduzb-189" value="边沿触发（循环读取直至没有数据）" style="text;strokeColor=#d6b656;fillColor=#fff2cc;align=left;verticalAlign=middle;spacingLeft=4;spacingRight=4;overflow=hidden;points=[[0,0.5],[1,0.5]];portConstraint=eastwest;rotatable=0;fontSize=10;labelBorderColor=none;labelBackgroundColor=none;fontFamily=Helvetica;" parent="If7hi21jr3shKMRsduzb-187" vertex="1">
          <mxGeometry y="40" width="185" height="20" as="geometry" />
        </mxCell>
        <mxCell id="If7hi21jr3shKMRsduzb-195" value="&lt;span style=&quot;font-size: 10px; background-color: initial;&quot;&gt;写入数据&lt;/span&gt;&lt;br&gt;&lt;span style=&quot;font-size: 10px; background-color: initial;&quot;&gt;将事件插入请求队列&lt;/span&gt;&lt;br&gt;&lt;span style=&quot;font-size: 10px; background-color: initial;&quot;&gt;调整计时器&lt;/span&gt;" style="text;strokeColor=default;fillColor=none;html=1;whiteSpace=wrap;verticalAlign=middle;overflow=hidden;labelBackgroundColor=none;fontFamily=Helvetica;fontSize=11;fillOpacity=100;imageAlign=left;deletable=1;" parent="1" vertex="1">
          <mxGeometry x="920" y="1250" width="140" height="50" as="geometry" />
        </mxCell>
        <mxCell id="If7hi21jr3shKMRsduzb-196" value="&lt;span style=&quot;font-size: 10px;&quot;&gt;调整计时器&lt;/span&gt;&lt;br&gt;&lt;span style=&quot;font-size: 10px; background-color: initial;&quot;&gt;将事件插入请求队列&lt;/span&gt;&lt;br&gt;&lt;span style=&quot;font-size: 10px; background-color: initial;&quot;&gt;等待工作线程处理完数据&lt;/span&gt;" style="text;strokeColor=default;fillColor=none;html=1;whiteSpace=wrap;verticalAlign=middle;overflow=hidden;labelBackgroundColor=none;fontFamily=Helvetica;fontSize=11;fillOpacity=100;imageAlign=left;deletable=1;" parent="1" vertex="1">
          <mxGeometry x="920" y="1200" width="140" height="50" as="geometry" />
        </mxCell>
        <mxCell id="If7hi21jr3shKMRsduzb-197" value="" style="endArrow=classic;html=1;rounded=0;fontFamily=Helvetica;fontSize=11;curved=1;entryX=0;entryY=0.5;entryDx=0;entryDy=0;exitX=1;exitY=0.5;exitDx=0;exitDy=0;" parent="1" source="If7hi21jr3shKMRsduzb-176" target="If7hi21jr3shKMRsduzb-196" edge="1">
          <mxGeometry width="50" height="50" relative="1" as="geometry">
            <mxPoint x="880" y="1216" as="sourcePoint" />
            <mxPoint x="920" y="1200" as="targetPoint" />
          </mxGeometry>
        </mxCell>
        <mxCell id="If7hi21jr3shKMRsduzb-198" value="" style="endArrow=classic;html=1;rounded=0;fontFamily=Helvetica;fontSize=11;curved=1;entryX=0;entryY=0.5;entryDx=0;entryDy=0;" parent="1" target="If7hi21jr3shKMRsduzb-195" edge="1">
          <mxGeometry width="50" height="50" relative="1" as="geometry">
            <mxPoint x="880" y="1230" as="sourcePoint" />
            <mxPoint x="930" y="1235" as="targetPoint" />
          </mxGeometry>
        </mxCell>
        <mxCell id="If7hi21jr3shKMRsduzb-199" value="写入数据：write()函数" style="swimlane;fontStyle=0;childLayout=stackLayout;horizontal=1;startSize=20;horizontalStack=0;resizeParent=1;resizeParentMax=0;resizeLast=0;collapsible=1;marginBottom=0;fontSize=12;fontFamily=Helvetica;" parent="1" vertex="1">
          <mxGeometry x="1095" y="1250" width="185" height="60" as="geometry">
            <mxRectangle x="480" y="1050" width="220" height="30" as="alternateBounds" />
          </mxGeometry>
        </mxCell>
        <mxCell id="If7hi21jr3shKMRsduzb-200" value="向对应套接字写入数据" style="text;strokeColor=#d6b656;fillColor=#fff2cc;align=left;verticalAlign=middle;spacingLeft=4;spacingRight=4;overflow=hidden;points=[[0,0.5],[1,0.5]];portConstraint=eastwest;rotatable=0;fontSize=10;labelBorderColor=none;labelBackgroundColor=none;fontFamily=Helvetica;" parent="If7hi21jr3shKMRsduzb-199" vertex="1">
          <mxGeometry y="20" width="185" height="20" as="geometry" />
        </mxCell>
        <mxCell id="If7hi21jr3shKMRsduzb-201" value="修改套接字监听读事件" style="text;strokeColor=#d6b656;fillColor=#fff2cc;align=left;verticalAlign=middle;spacingLeft=4;spacingRight=4;overflow=hidden;points=[[0,0.5],[1,0.5]];portConstraint=eastwest;rotatable=0;fontSize=10;labelBorderColor=none;labelBackgroundColor=none;fontFamily=Helvetica;" parent="If7hi21jr3shKMRsduzb-199" vertex="1">
          <mxGeometry y="40" width="185" height="20" as="geometry" />
        </mxCell>
        <mxCell id="If7hi21jr3shKMRsduzb-208" value="" style="endArrow=classic;html=1;rounded=0;fontFamily=Helvetica;fontSize=11;curved=1;entryX=0;entryY=0.167;entryDx=0;entryDy=0;entryPerimeter=0;" parent="1" target="If7hi21jr3shKMRsduzb-187" edge="1">
          <mxGeometry width="50" height="50" relative="1" as="geometry">
            <mxPoint x="980" y="1160" as="sourcePoint" />
            <mxPoint x="1095" y="1149" as="targetPoint" />
          </mxGeometry>
        </mxCell>
        <mxCell id="If7hi21jr3shKMRsduzb-209" value="" style="endArrow=classic;html=1;rounded=0;fontFamily=Helvetica;fontSize=11;curved=1;" parent="1" edge="1">
          <mxGeometry width="50" height="50" relative="1" as="geometry">
            <mxPoint x="980" y="1260" as="sourcePoint" />
            <mxPoint x="1095" y="1260" as="targetPoint" />
          </mxGeometry>
        </mxCell>
        <mxCell id="If7hi21jr3shKMRsduzb-216" value="" style="edgeStyle=none;rounded=0;orthogonalLoop=1;jettySize=auto;html=1;fontFamily=Helvetica;fontSize=11;" parent="1" source="If7hi21jr3shKMRsduzb-210" target="If7hi21jr3shKMRsduzb-213" edge="1">
          <mxGeometry relative="1" as="geometry" />
        </mxCell>
        <mxCell id="If7hi21jr3shKMRsduzb-210" value="工作线程" style="swimlane;fontStyle=0;childLayout=stackLayout;horizontal=1;startSize=31;horizontalStack=0;resizeParent=1;resizeParentMax=0;resizeLast=0;collapsible=1;marginBottom=0;fontSize=12;fontFamily=Helvetica;" parent="1" vertex="1">
          <mxGeometry x="850" y="880" width="190" height="71" as="geometry">
            <mxRectangle x="480" y="1050" width="220" height="30" as="alternateBounds" />
          </mxGeometry>
        </mxCell>
        <mxCell id="If7hi21jr3shKMRsduzb-211" value="reactor：读数据后处理请求或者写数据" style="text;strokeColor=#d6b656;fillColor=#fff2cc;align=left;verticalAlign=middle;spacingLeft=4;spacingRight=4;overflow=hidden;points=[[0,0.5],[1,0.5]];portConstraint=eastwest;rotatable=0;fontSize=10;labelBorderColor=none;labelBackgroundColor=none;fontFamily=Helvetica;" parent="If7hi21jr3shKMRsduzb-210" vertex="1">
          <mxGeometry y="31" width="190" height="20" as="geometry" />
        </mxCell>
        <mxCell id="If7hi21jr3shKMRsduzb-212" value="proactor：直接处理请求" style="text;strokeColor=#d6b656;fillColor=#fff2cc;align=left;verticalAlign=middle;spacingLeft=4;spacingRight=4;overflow=hidden;points=[[0,0.5],[1,0.5]];portConstraint=eastwest;rotatable=0;fontSize=10;labelBorderColor=none;labelBackgroundColor=none;fontFamily=Helvetica;" parent="If7hi21jr3shKMRsduzb-210" vertex="1">
          <mxGeometry y="51" width="190" height="20" as="geometry" />
        </mxCell>
        <mxCell id="If7hi21jr3shKMRsduzb-213" value="处理请求：http_conn-process函数" style="swimlane;fontStyle=0;childLayout=stackLayout;horizontal=1;startSize=31;horizontalStack=0;resizeParent=1;resizeParentMax=0;resizeLast=0;collapsible=1;marginBottom=0;fontSize=12;fontFamily=Helvetica;" parent="1" vertex="1">
          <mxGeometry x="1110" y="880" width="190" height="71" as="geometry">
            <mxRectangle x="480" y="1050" width="220" height="30" as="alternateBounds" />
          </mxGeometry>
        </mxCell>
        <mxCell id="If7hi21jr3shKMRsduzb-214" value="解析http报文：process_read" style="text;strokeColor=#d6b656;fillColor=#fff2cc;align=left;verticalAlign=middle;spacingLeft=4;spacingRight=4;overflow=hidden;points=[[0,0.5],[1,0.5]];portConstraint=eastwest;rotatable=0;fontSize=10;labelBorderColor=none;labelBackgroundColor=none;fontFamily=Helvetica;" parent="If7hi21jr3shKMRsduzb-213" vertex="1">
          <mxGeometry y="31" width="190" height="20" as="geometry" />
        </mxCell>
        <mxCell id="If7hi21jr3shKMRsduzb-215" value="发送http响应报文:process_write" style="text;strokeColor=#d6b656;fillColor=#fff2cc;align=left;verticalAlign=middle;spacingLeft=4;spacingRight=4;overflow=hidden;points=[[0,0.5],[1,0.5]];portConstraint=eastwest;rotatable=0;fontSize=10;labelBorderColor=none;labelBackgroundColor=none;fontFamily=Helvetica;" parent="If7hi21jr3shKMRsduzb-213" vertex="1">
          <mxGeometry y="51" width="190" height="20" as="geometry" />
        </mxCell>
        <mxCell id="If7hi21jr3shKMRsduzb-218" value="解析请求行&#xa;解析请求头&#xa;解析请求内容" style="text;strokeColor=#d6b656;fillColor=#fff2cc;align=center;verticalAlign=middle;spacingLeft=4;spacingRight=4;overflow=hidden;points=[[0,0.5],[1,0.5]];portConstraint=eastwest;rotatable=0;fontSize=10;labelBorderColor=none;labelBackgroundColor=none;fontFamily=Helvetica;" parent="1" vertex="1">
          <mxGeometry x="1320" y="900" width="80" height="40" as="geometry" />
        </mxCell>
        <mxCell id="If7hi21jr3shKMRsduzb-219" style="edgeStyle=none;rounded=0;orthogonalLoop=1;jettySize=auto;html=1;entryX=0;entryY=0.5;entryDx=0;entryDy=0;fontFamily=Helvetica;fontSize=11;" parent="1" source="If7hi21jr3shKMRsduzb-214" target="If7hi21jr3shKMRsduzb-218" edge="1">
          <mxGeometry relative="1" as="geometry" />
        </mxCell>
        <mxCell id="If7hi21jr3shKMRsduzb-239" value="" style="edgeStyle=none;rounded=0;orthogonalLoop=1;jettySize=auto;html=1;fontFamily=Helvetica;fontSize=11;exitX=1;exitY=0.5;exitDx=0;exitDy=0;" parent="1" source="If7hi21jr3shKMRsduzb-224" target="If7hi21jr3shKMRsduzb-238" edge="1">
          <mxGeometry relative="1" as="geometry" />
        </mxCell>
        <mxCell id="If7hi21jr3shKMRsduzb-254" value="" style="edgeStyle=none;rounded=0;orthogonalLoop=1;jettySize=auto;html=1;fontFamily=Helvetica;fontSize=11;exitX=1;exitY=0.5;exitDx=0;exitDy=0;entryX=-0.001;entryY=0.669;entryDx=0;entryDy=0;entryPerimeter=0;" parent="1" source="If7hi21jr3shKMRsduzb-221" target="If7hi21jr3shKMRsduzb-253" edge="1">
          <mxGeometry relative="1" as="geometry" />
        </mxCell>
        <mxCell id="If7hi21jr3shKMRsduzb-220" value="数据库相关" style="shape=table;startSize=30;container=1;collapsible=0;childLayout=tableLayout;fixedRows=1;rowLines=0;fontStyle=1;labelBackgroundColor=#FFFFFF;labelBorderColor=none;fontSize=11;fontColor=#000000;strokeColor=default;fontFamily=Helvetica;" parent="1" vertex="1">
          <mxGeometry x="1350" y="600" width="140" height="70" as="geometry" />
        </mxCell>
        <mxCell id="If7hi21jr3shKMRsduzb-221" value="" style="shape=tableRow;horizontal=0;startSize=0;swimlaneHead=0;swimlaneBody=0;top=0;left=0;bottom=0;right=0;collapsible=0;dropTarget=0;fillColor=none;points=[[0,0.5],[1,0.5]];portConstraint=eastwest;labelBackgroundColor=#FFFFFF;labelBorderColor=none;fontSize=11;fontColor=#000000;strokeColor=default;fontFamily=Helvetica;" parent="If7hi21jr3shKMRsduzb-220" vertex="1">
          <mxGeometry y="30" width="140" height="20" as="geometry" />
        </mxCell>
        <mxCell id="If7hi21jr3shKMRsduzb-222" value="1" style="shape=partialRectangle;html=1;whiteSpace=wrap;connectable=0;fillColor=none;top=0;left=0;bottom=0;right=0;overflow=hidden;pointerEvents=1;labelBackgroundColor=#FFFFFF;labelBorderColor=none;fontSize=11;fontColor=#000000;strokeColor=default;fontFamily=Helvetica;" parent="If7hi21jr3shKMRsduzb-221" vertex="1">
          <mxGeometry width="19" height="20" as="geometry">
            <mxRectangle width="19" height="20" as="alternateBounds" />
          </mxGeometry>
        </mxCell>
        <mxCell id="If7hi21jr3shKMRsduzb-223" value="connection_pool" style="shape=partialRectangle;html=1;whiteSpace=wrap;connectable=0;fillColor=none;top=0;left=0;bottom=0;right=0;align=center;spacingLeft=6;overflow=hidden;labelBackgroundColor=#FFFFFF;labelBorderColor=none;fontSize=11;fontColor=#000000;strokeColor=default;fontFamily=Helvetica;" parent="If7hi21jr3shKMRsduzb-221" vertex="1">
          <mxGeometry x="19" width="121" height="20" as="geometry">
            <mxRectangle width="121" height="20" as="alternateBounds" />
          </mxGeometry>
        </mxCell>
        <mxCell id="If7hi21jr3shKMRsduzb-224" value="" style="shape=tableRow;horizontal=0;startSize=0;swimlaneHead=0;swimlaneBody=0;top=0;left=0;bottom=0;right=0;collapsible=0;dropTarget=0;fillColor=none;points=[[0,0.5],[1,0.5]];portConstraint=eastwest;labelBackgroundColor=#FFFFFF;labelBorderColor=none;fontSize=11;fontColor=#000000;strokeColor=default;fontFamily=Helvetica;" parent="If7hi21jr3shKMRsduzb-220" vertex="1">
          <mxGeometry y="50" width="140" height="20" as="geometry" />
        </mxCell>
        <mxCell id="If7hi21jr3shKMRsduzb-225" value="2" style="shape=partialRectangle;html=1;whiteSpace=wrap;connectable=0;fillColor=none;top=0;left=0;bottom=0;right=0;overflow=hidden;labelBackgroundColor=#FFFFFF;labelBorderColor=none;fontSize=11;fontColor=#000000;strokeColor=default;fontFamily=Helvetica;" parent="If7hi21jr3shKMRsduzb-224" vertex="1">
          <mxGeometry width="19" height="20" as="geometry">
            <mxRectangle width="19" height="20" as="alternateBounds" />
          </mxGeometry>
        </mxCell>
        <mxCell id="If7hi21jr3shKMRsduzb-226" value="connectionRAII" style="shape=partialRectangle;html=1;whiteSpace=wrap;connectable=0;fillColor=none;top=0;left=0;bottom=0;right=0;align=center;spacingLeft=6;overflow=hidden;labelBackgroundColor=#FFFFFF;labelBorderColor=none;fontSize=11;fontColor=#000000;strokeColor=default;fontFamily=Helvetica;" parent="If7hi21jr3shKMRsduzb-224" vertex="1">
          <mxGeometry x="19" width="121" height="20" as="geometry">
            <mxRectangle width="121" height="20" as="alternateBounds" />
          </mxGeometry>
        </mxCell>
        <mxCell id="If7hi21jr3shKMRsduzb-238" value="&lt;span style=&quot;font-weight: normal;&quot;&gt;&lt;font style=&quot;font-size: 11px;&quot;&gt;实现数据库连接的自动释放&lt;/font&gt;&lt;/span&gt;" style="whiteSpace=wrap;html=1;fontSize=11;fontColor=#000000;startSize=30;fontStyle=1;labelBackgroundColor=#FFFFFF;labelBorderColor=none;" parent="1" vertex="1">
          <mxGeometry x="1520" y="650" width="170" height="20" as="geometry" />
        </mxCell>
        <mxCell id="If7hi21jr3shKMRsduzb-244" value="sort_timer_lst类" style="shape=partialRectangle;html=1;whiteSpace=wrap;connectable=0;fillColor=none;top=0;left=0;bottom=0;right=0;align=center;spacingLeft=6;overflow=hidden;labelBackgroundColor=#FFFFFF;labelBorderColor=none;fontSize=11;fontColor=#000000;strokeColor=default;fontFamily=Helvetica;" parent="1" vertex="1">
          <mxGeometry x="969" y="690" width="121" height="20" as="geometry">
            <mxRectangle width="121" height="20" as="alternateBounds" />
          </mxGeometry>
        </mxCell>
        <mxCell id="If7hi21jr3shKMRsduzb-246" value="" style="group" parent="1" connectable="0" vertex="1">
          <mxGeometry x="950" y="600" width="140" height="110" as="geometry" />
        </mxCell>
        <mxCell id="If7hi21jr3shKMRsduzb-80" value="定时器相关" style="shape=table;startSize=30;container=1;collapsible=0;childLayout=tableLayout;fixedRows=1;rowLines=0;fontStyle=1;labelBackgroundColor=#FFFFFF;labelBorderColor=none;fontSize=11;fontColor=#000000;strokeColor=default;fontFamily=Helvetica;" parent="If7hi21jr3shKMRsduzb-246" vertex="1">
          <mxGeometry width="140" height="110" as="geometry" />
        </mxCell>
        <mxCell id="If7hi21jr3shKMRsduzb-81" value="" style="shape=tableRow;horizontal=0;startSize=0;swimlaneHead=0;swimlaneBody=0;top=0;left=0;bottom=0;right=0;collapsible=0;dropTarget=0;fillColor=none;points=[[0,0.5],[1,0.5]];portConstraint=eastwest;labelBackgroundColor=#FFFFFF;labelBorderColor=none;fontSize=11;fontColor=#000000;strokeColor=default;fontFamily=Helvetica;" parent="If7hi21jr3shKMRsduzb-80" vertex="1">
          <mxGeometry y="30" width="140" height="20" as="geometry" />
        </mxCell>
        <mxCell id="If7hi21jr3shKMRsduzb-82" value="1" style="shape=partialRectangle;html=1;whiteSpace=wrap;connectable=0;fillColor=none;top=0;left=0;bottom=0;right=0;overflow=hidden;pointerEvents=1;labelBackgroundColor=#FFFFFF;labelBorderColor=none;fontSize=11;fontColor=#000000;strokeColor=default;fontFamily=Helvetica;" parent="If7hi21jr3shKMRsduzb-81" vertex="1">
          <mxGeometry width="19" height="20" as="geometry">
            <mxRectangle width="19" height="20" as="alternateBounds" />
          </mxGeometry>
        </mxCell>
        <mxCell id="If7hi21jr3shKMRsduzb-83" value="client_data" style="shape=partialRectangle;html=1;whiteSpace=wrap;connectable=0;fillColor=none;top=0;left=0;bottom=0;right=0;align=center;spacingLeft=6;overflow=hidden;labelBackgroundColor=#FFFFFF;labelBorderColor=none;fontSize=11;fontColor=#000000;strokeColor=default;fontFamily=Helvetica;" parent="If7hi21jr3shKMRsduzb-81" vertex="1">
          <mxGeometry x="19" width="121" height="20" as="geometry">
            <mxRectangle width="121" height="20" as="alternateBounds" />
          </mxGeometry>
        </mxCell>
        <mxCell id="If7hi21jr3shKMRsduzb-84" value="" style="shape=tableRow;horizontal=0;startSize=0;swimlaneHead=0;swimlaneBody=0;top=0;left=0;bottom=0;right=0;collapsible=0;dropTarget=0;fillColor=none;points=[[0,0.5],[1,0.5]];portConstraint=eastwest;labelBackgroundColor=#FFFFFF;labelBorderColor=none;fontSize=11;fontColor=#000000;strokeColor=default;fontFamily=Helvetica;" parent="If7hi21jr3shKMRsduzb-80" vertex="1">
          <mxGeometry y="50" width="140" height="20" as="geometry" />
        </mxCell>
        <mxCell id="If7hi21jr3shKMRsduzb-85" value="2" style="shape=partialRectangle;html=1;whiteSpace=wrap;connectable=0;fillColor=none;top=0;left=0;bottom=0;right=0;overflow=hidden;labelBackgroundColor=#FFFFFF;labelBorderColor=none;fontSize=11;fontColor=#000000;strokeColor=default;fontFamily=Helvetica;" parent="If7hi21jr3shKMRsduzb-84" vertex="1">
          <mxGeometry width="19" height="20" as="geometry">
            <mxRectangle width="19" height="20" as="alternateBounds" />
          </mxGeometry>
        </mxCell>
        <mxCell id="If7hi21jr3shKMRsduzb-86" value="util_timer类" style="shape=partialRectangle;html=1;whiteSpace=wrap;connectable=0;fillColor=none;top=0;left=0;bottom=0;right=0;align=center;spacingLeft=6;overflow=hidden;labelBackgroundColor=#FFFFFF;labelBorderColor=none;fontSize=11;fontColor=#000000;strokeColor=default;fontFamily=Helvetica;" parent="If7hi21jr3shKMRsduzb-84" vertex="1">
          <mxGeometry x="19" width="121" height="20" as="geometry">
            <mxRectangle width="121" height="20" as="alternateBounds" />
          </mxGeometry>
        </mxCell>
        <mxCell id="If7hi21jr3shKMRsduzb-87" value="" style="shape=tableRow;horizontal=0;startSize=0;swimlaneHead=0;swimlaneBody=0;top=0;left=0;bottom=0;right=0;collapsible=0;dropTarget=0;fillColor=none;points=[[0,0.5],[1,0.5]];portConstraint=eastwest;labelBackgroundColor=#FFFFFF;labelBorderColor=none;fontSize=11;fontColor=#000000;strokeColor=default;fontFamily=Helvetica;" parent="If7hi21jr3shKMRsduzb-80" vertex="1">
          <mxGeometry y="70" width="140" height="20" as="geometry" />
        </mxCell>
        <mxCell id="If7hi21jr3shKMRsduzb-88" value="3" style="shape=partialRectangle;html=1;whiteSpace=wrap;connectable=0;fillColor=none;top=0;left=0;bottom=0;right=0;overflow=hidden;labelBackgroundColor=#FFFFFF;labelBorderColor=none;fontSize=11;fontColor=#000000;strokeColor=default;fontFamily=Helvetica;" parent="If7hi21jr3shKMRsduzb-87" vertex="1">
          <mxGeometry width="19" height="20" as="geometry">
            <mxRectangle width="19" height="20" as="alternateBounds" />
          </mxGeometry>
        </mxCell>
        <mxCell id="If7hi21jr3shKMRsduzb-89" value="Utils类" style="shape=partialRectangle;html=1;whiteSpace=wrap;connectable=0;fillColor=none;top=0;left=0;bottom=0;right=0;align=center;spacingLeft=6;overflow=hidden;labelBackgroundColor=#FFFFFF;labelBorderColor=none;fontSize=11;fontColor=#000000;strokeColor=default;fontFamily=Helvetica;" parent="If7hi21jr3shKMRsduzb-87" vertex="1">
          <mxGeometry x="19" width="121" height="20" as="geometry">
            <mxRectangle width="121" height="20" as="alternateBounds" />
          </mxGeometry>
        </mxCell>
        <mxCell id="If7hi21jr3shKMRsduzb-245" value="4" style="shape=partialRectangle;html=1;whiteSpace=wrap;connectable=0;fillColor=none;top=0;left=0;bottom=0;right=0;overflow=hidden;labelBackgroundColor=#FFFFFF;labelBorderColor=none;fontSize=11;fontColor=#000000;strokeColor=default;fontFamily=Helvetica;" parent="If7hi21jr3shKMRsduzb-246" vertex="1">
          <mxGeometry y="90" width="19" height="20" as="geometry">
            <mxRectangle width="19" height="20" as="alternateBounds" />
          </mxGeometry>
        </mxCell>
        <mxCell id="If7hi21jr3shKMRsduzb-247" value="&lt;span style=&quot;font-weight: normal;&quot;&gt;定时器相关数据&lt;/span&gt;" style="whiteSpace=wrap;html=1;fontSize=11;fontColor=#000000;startSize=30;fontStyle=1;labelBackgroundColor=#FFFFFF;labelBorderColor=none;" parent="1" vertex="1">
          <mxGeometry x="1120" y="630" width="120" height="20" as="geometry" />
        </mxCell>
        <mxCell id="If7hi21jr3shKMRsduzb-248" value="" style="edgeStyle=none;rounded=0;orthogonalLoop=1;jettySize=auto;html=1;fontFamily=Helvetica;fontSize=11;exitX=1;exitY=0.5;exitDx=0;exitDy=0;" parent="1" source="If7hi21jr3shKMRsduzb-81" target="If7hi21jr3shKMRsduzb-247" edge="1">
          <mxGeometry relative="1" as="geometry" />
        </mxCell>
        <mxCell id="If7hi21jr3shKMRsduzb-249" value="&lt;span style=&quot;font-weight: 400;&quot;&gt;定时器类&lt;/span&gt;" style="whiteSpace=wrap;html=1;fontSize=11;fontColor=#000000;startSize=30;fontStyle=1;labelBackgroundColor=#FFFFFF;labelBorderColor=none;" parent="1" vertex="1">
          <mxGeometry x="1120" y="650" width="120" height="20" as="geometry" />
        </mxCell>
        <mxCell id="If7hi21jr3shKMRsduzb-250" value="&lt;span style=&quot;font-weight: normal;&quot;&gt;定时器容器（链表）&lt;/span&gt;" style="whiteSpace=wrap;html=1;fontSize=11;fontColor=#000000;startSize=30;fontStyle=1;labelBackgroundColor=#FFFFFF;labelBorderColor=none;" parent="1" vertex="1">
          <mxGeometry x="1120" y="670" width="120" height="20" as="geometry" />
        </mxCell>
        <mxCell id="If7hi21jr3shKMRsduzb-251" value="" style="edgeStyle=none;rounded=0;orthogonalLoop=1;jettySize=auto;html=1;fontFamily=Helvetica;fontSize=11;exitX=1;exitY=0.5;exitDx=0;exitDy=0;" parent="1" edge="1">
          <mxGeometry relative="1" as="geometry">
            <mxPoint x="1090" y="659.95" as="sourcePoint" />
            <mxPoint x="1120" y="659.95" as="targetPoint" />
          </mxGeometry>
        </mxCell>
        <mxCell id="If7hi21jr3shKMRsduzb-252" value="" style="edgeStyle=none;rounded=0;orthogonalLoop=1;jettySize=auto;html=1;fontFamily=Helvetica;fontSize=11;exitX=1;exitY=0.5;exitDx=0;exitDy=0;" parent="1" edge="1">
          <mxGeometry relative="1" as="geometry">
            <mxPoint x="1090" y="679.95" as="sourcePoint" />
            <mxPoint x="1120" y="679.95" as="targetPoint" />
          </mxGeometry>
        </mxCell>
        <mxCell id="If7hi21jr3shKMRsduzb-253" value="&lt;span style=&quot;font-weight: normal;&quot;&gt;数据库连接池：维护若干个数据库连接&lt;/span&gt;" style="whiteSpace=wrap;html=1;fontSize=11;fontColor=#000000;startSize=30;fontStyle=1;labelBackgroundColor=#FFFFFF;labelBorderColor=none;" parent="1" vertex="1">
          <mxGeometry x="1520" y="620" width="170" height="30" as="geometry" />
        </mxCell>
        <mxCell id="XWN4lsLQh2MdpYptvqTv-1" value="使用mutex的init和destroy构造析构；&lt;br&gt;lock和unlock上锁和解锁；&lt;br&gt;私有数据，互斥锁，C，get函数获取" style="rounded=0;whiteSpace=wrap;html=1;" parent="1" vertex="1">
          <mxGeometry x="1247.5" y="115" width="225" height="90" as="geometry" />
        </mxCell>
        <mxCell id="XWN4lsLQh2MdpYptvqTv-2" value="C封装&lt;br&gt;私有：类型&lt;br&gt;公有：函数" style="rounded=0;whiteSpace=wrap;html=1;" parent="1" vertex="1">
          <mxGeometry x="960" y="130" width="120" height="60" as="geometry" />
        </mxCell>
        <mxCell id="XWN4lsLQh2MdpYptvqTv-3" value="构造失败，即非0，抛出异常" style="rounded=0;whiteSpace=wrap;html=1;" parent="1" vertex="1">
          <mxGeometry x="1104" y="130" width="120" height="60" as="geometry" />
        </mxCell>
        <mxCell id="XWN4lsLQh2MdpYptvqTv-4" value="条件变量cond&lt;br&gt;wait（&lt;b&gt;经常在while循环使用&lt;/b&gt;），线程阻塞（和唤醒函数配套使用，脱离阻塞）&lt;br&gt;唤醒至少一个signal&lt;br&gt;全部唤醒broadcast&lt;br&gt;线程上锁的，解锁，阻塞，唤醒后，重新上锁" style="rounded=0;whiteSpace=wrap;html=1;" parent="1" vertex="1">
          <mxGeometry x="2037.5" y="1542.5" width="350" height="90" as="geometry" />
        </mxCell>
        <mxCell id="XWN4lsLQh2MdpYptvqTv-5" value="Sem，信号量/灯，资源&lt;br&gt;wait，等待信号量（加锁，为0阻塞，每次调用-1资源）&lt;br&gt;post，增加信号量（解锁，+1资源）" style="rounded=0;whiteSpace=wrap;html=1;" parent="1" vertex="1">
          <mxGeometry x="2427.5" y="1542.5" width="250" height="90" as="geometry" />
        </mxCell>
        <mxCell id="XWN4lsLQh2MdpYptvqTv-6" value="线程同步，有pthread前缀" style="rounded=1;whiteSpace=wrap;html=1;" parent="1" vertex="1">
          <mxGeometry x="1300" y="30" width="120" height="60" as="geometry" />
        </mxCell>
        <mxCell id="XWN4lsLQh2MdpYptvqTv-7" value="Sem有进程、线程选项&lt;br&gt;生产信号灯，消费信号灯&lt;br&gt;初始，左有，右无&lt;br&gt;总资源为1，单生产单消费，状态转移，顺序执行同步；&lt;br&gt;&lt;b&gt;总资源大于1，需要互斥锁&lt;/b&gt;保持同步&lt;br&gt;多生产、消费，生产" style="rounded=1;whiteSpace=wrap;html=1;" parent="1" vertex="1">
          <mxGeometry x="2347.5" y="1647.5" width="410" height="100" as="geometry" />
        </mxCell>
        <mxCell id="XWN4lsLQh2MdpYptvqTv-8" value="trylock、trywait不会阻塞" style="ellipse;whiteSpace=wrap;html=1;" parent="1" vertex="1">
          <mxGeometry x="1590" y="20" width="130" height="80" as="geometry" />
        </mxCell>
        <mxCell id="XWN4lsLQh2MdpYptvqTv-9" value="资源大于1，需要先信号灯，然后上锁；不然会出现，消费者上锁，生产者生产不了，死锁" style="ellipse;whiteSpace=wrap;html=1;" parent="1" vertex="1">
          <mxGeometry x="2456.5" y="1447.5" width="172" height="80" as="geometry" />
        </mxCell>
        <mxCell id="nItbhOzDQ_j7M3Wcagtx-1" value="线程池，任务队列的数据类型是啥，函数" style="rounded=0;whiteSpace=wrap;html=1;" parent="1" vertex="1">
          <mxGeometry x="294" y="540" width="120" height="60" as="geometry" />
        </mxCell>
        <mxCell id="nItbhOzDQ_j7M3Wcagtx-2" value="" style="whiteSpace=wrap;html=1;aspect=fixed;" parent="1" vertex="1">
          <mxGeometry x="540" y="130" width="390" height="390" as="geometry" />
        </mxCell>
        <mxCell id="nItbhOzDQ_j7M3Wcagtx-3" value="append任务队列时，上锁，保证不超出任务队列大小时加入，消费者信号灯post，+1" style="rounded=0;whiteSpace=wrap;html=1;" parent="1" vertex="1">
          <mxGeometry x="510" y="382.5" width="120" height="75" as="geometry" />
        </mxCell>
        <mxCell id="nItbhOzDQ_j7M3Wcagtx-4" value="只要访问公共资源任务队列，就需要上锁" style="ellipse;whiteSpace=wrap;html=1;" parent="1" vertex="1">
          <mxGeometry x="512.5" y="275" width="120" height="80" as="geometry" />
        </mxCell>
        <mxCell id="nItbhOzDQ_j7M3Wcagtx-5" value="新信号灯（只有消费者信号灯，-1）wait再锁" style="rounded=0;whiteSpace=wrap;html=1;" parent="1" vertex="1">
          <mxGeometry x="835" y="385" width="120" height="60" as="geometry" />
        </mxCell>
        <mxCell id="nItbhOzDQ_j7M3Wcagtx-6" value="信号灯再append，post；&lt;br&gt;在work，wait" style="ellipse;whiteSpace=wrap;html=1;" parent="1" vertex="1">
          <mxGeometry x="298" y="630" width="120" height="80" as="geometry" />
        </mxCell>
        <mxCell id="nItbhOzDQ_j7M3Wcagtx-7" value="2.构造函数：&lt;br&gt;进行了线程的创建，使用this传入，保证了静态函数worker（线程执行函数）可以访问类内成员。并进行了线程的分离，保证不会主线程终止带来子线程的终止；" style="rounded=1;whiteSpace=wrap;html=1;" parent="1" vertex="1">
          <mxGeometry x="635" y="210" width="200" height="90" as="geometry" />
        </mxCell>
        <mxCell id="nItbhOzDQ_j7M3Wcagtx-9" value="1.线程池类：&lt;br&gt;规定了创建线程的数量和任务请求队列的最大数量，描述小城吃的数组，以及一系列状态、信号量、互斥锁；" style="rounded=1;whiteSpace=wrap;html=1;" parent="1" vertex="1">
          <mxGeometry x="630" y="135" width="200" height="70" as="geometry" />
        </mxCell>
        <mxCell id="nItbhOzDQ_j7M3Wcagtx-10" value="&lt;br&gt;&lt;br&gt;3.线程的执行函数worker：&lt;br&gt;运行run，while检测（线程池是否停止运行），&lt;br&gt;取出任务队列中任务前，防止多个线程访问公共资源任务队列，进行互斥锁，同时使用信号量保证消费者线程（工作线程）的个数&lt;br&gt;&lt;br&gt;检测到任务队列不为空，取出任务request执行任务" style="rounded=1;whiteSpace=wrap;html=1;" parent="1" vertex="1">
          <mxGeometry x="640" y="320" width="190" height="185" as="geometry" />
        </mxCell>
        <mxCell id="0q4AZMgEHPv3-rVPQX4F-1" value="一个线程池类（线程池中的任务是&lt;b&gt;http连接类型&lt;/b&gt;）" style="rounded=1;whiteSpace=wrap;html=1;" parent="1" vertex="1">
          <mxGeometry x="1800" y="2010" width="120" height="60" as="geometry" />
        </mxCell>
        <mxCell id="0q4AZMgEHPv3-rVPQX4F-2" value="users，&lt;b&gt;客户端信息数组&lt;/b&gt;；http连接类型" style="rounded=1;whiteSpace=wrap;html=1;" parent="1" vertex="1">
          <mxGeometry x="1943" y="2010" width="120" height="60" as="geometry" />
        </mxCell>
        <mxCell id="0q4AZMgEHPv3-rVPQX4F-3" value="epoll的events，&lt;b&gt;传出的事件数组&lt;/b&gt;，就绪" style="rounded=1;whiteSpace=wrap;html=1;" parent="1" vertex="1">
          <mxGeometry x="2090" y="2010" width="120" height="60" as="geometry" />
        </mxCell>
        <mxCell id="0q4AZMgEHPv3-rVPQX4F-5" value="琐碎" style="swimlane;fontStyle=0;childLayout=stackLayout;horizontal=1;startSize=30;horizontalStack=0;resizeParent=1;resizeParentMax=0;resizeLast=0;collapsible=1;marginBottom=0;" parent="1" vertex="1">
          <mxGeometry x="1800" y="1850" width="410" height="120" as="geometry" />
        </mxCell>
        <mxCell id="0q4AZMgEHPv3-rVPQX4F-6" value="进行信号捕捉，对SIGPIPE信号的默认进行修改" style="text;strokeColor=none;fillColor=none;align=left;verticalAlign=middle;spacingLeft=4;spacingRight=4;overflow=hidden;points=[[0,0.5],[1,0.5]];portConstraint=eastwest;rotatable=0;" parent="0q4AZMgEHPv3-rVPQX4F-5" vertex="1">
          <mxGeometry y="30" width="410" height="30" as="geometry" />
        </mxCell>
        <mxCell id="0q4AZMgEHPv3-rVPQX4F-7" value="定义一个指向线程池类（模板类）的指针，任务队列类型为http连接任务" style="text;strokeColor=none;fillColor=none;align=left;verticalAlign=middle;spacingLeft=4;spacingRight=4;overflow=hidden;points=[[0,0.5],[1,0.5]];portConstraint=eastwest;rotatable=0;" parent="0q4AZMgEHPv3-rVPQX4F-5" vertex="1">
          <mxGeometry y="60" width="410" height="30" as="geometry" />
        </mxCell>
        <mxCell id="0q4AZMgEHPv3-rVPQX4F-8" value="try，catch，try建立了线程池，catch到异常执行退出" style="text;strokeColor=none;fillColor=none;align=left;verticalAlign=middle;spacingLeft=4;spacingRight=4;overflow=hidden;points=[[0,0.5],[1,0.5]];portConstraint=eastwest;rotatable=0;" parent="0q4AZMgEHPv3-rVPQX4F-5" vertex="1">
          <mxGeometry y="90" width="410" height="30" as="geometry" />
        </mxCell>
        <mxCell id="0q4AZMgEHPv3-rVPQX4F-13" value="三个主要的初始化，3" style="rounded=0;whiteSpace=wrap;html=1;" parent="1" vertex="1">
          <mxGeometry x="1640" y="2010" width="120" height="60" as="geometry" />
        </mxCell>
        <mxCell id="0q4AZMgEHPv3-rVPQX4F-14" value="&lt;b&gt;socket&lt;/b&gt;创建监听的&lt;b&gt;Listenfd&lt;/b&gt;，ipv4，tcp字节流&amp;nbsp;" style="rounded=1;whiteSpace=wrap;html=1;" parent="1" vertex="1">
          <mxGeometry x="1945" y="2110" width="120" height="60" as="geometry" />
        </mxCell>
        <mxCell id="0q4AZMgEHPv3-rVPQX4F-15" value="bind和本地ip和port（大端）" style="rounded=1;whiteSpace=wrap;html=1;" parent="1" vertex="1">
          <mxGeometry x="1943" y="2267.5" width="120" height="60" as="geometry" />
        </mxCell>
        <mxCell id="0q4AZMgEHPv3-rVPQX4F-16" value="设置I/O端口复用setsocketopt，在bind前设置" style="rounded=1;whiteSpace=wrap;html=1;" parent="1" vertex="1">
          <mxGeometry x="1945" y="2185" width="120" height="60" as="geometry" />
        </mxCell>
        <mxCell id="0q4AZMgEHPv3-rVPQX4F-17" value="监听listen()" style="rounded=1;whiteSpace=wrap;html=1;" parent="1" vertex="1">
          <mxGeometry x="1945" y="2360" width="120" height="60" as="geometry" />
        </mxCell>
        <mxCell id="0q4AZMgEHPv3-rVPQX4F-18" value="closesocket后，可以继续重用该socket" style="ellipse;whiteSpace=wrap;html=1;" parent="1" vertex="1">
          <mxGeometry x="2110" y="2175" width="120" height="80" as="geometry" />
        </mxCell>
        <mxCell id="0q4AZMgEHPv3-rVPQX4F-20" value="创建epoll，得到&lt;b&gt;epollfd&lt;/b&gt;" style="rounded=1;whiteSpace=wrap;html=1;" parent="1" vertex="1">
          <mxGeometry x="1943" y="2450" width="120" height="60" as="geometry" />
        </mxCell>
        <mxCell id="0q4AZMgEHPv3-rVPQX4F-21" value="&lt;b&gt;Listenfd加入&lt;/b&gt;&lt;b&gt;epollfd中，epollctl&lt;/b&gt;" style="rounded=1;whiteSpace=wrap;html=1;" parent="1" vertex="1">
          <mxGeometry x="1943" y="2535" width="120" height="60" as="geometry" />
        </mxCell>
        <mxCell id="0q4AZMgEHPv3-rVPQX4F-23" value="&lt;font style=&quot;font-size: 18px;&quot;&gt;&lt;b&gt;主线程的流程&lt;/b&gt;&lt;/font&gt;" style="ellipse;shape=cloud;whiteSpace=wrap;html=1;" parent="1" vertex="1">
          <mxGeometry x="1621.5" y="2095" width="180" height="105" as="geometry" />
        </mxCell>
        <mxCell id="0q4AZMgEHPv3-rVPQX4F-24" value="" style="strokeWidth=2;html=1;shape=mxgraph.flowchart.annotation_1;align=left;pointerEvents=1;" parent="1" vertex="1">
          <mxGeometry x="1730" y="2614" width="50" height="166" as="geometry" />
        </mxCell>
        <mxCell id="0q4AZMgEHPv3-rVPQX4F-25" value="" style="rounded=1;whiteSpace=wrap;html=1;absoluteArcSize=1;arcSize=14;strokeWidth=2;" parent="1" vertex="1">
          <mxGeometry x="1710" y="2465" width="100" height="100" as="geometry" />
        </mxCell>
        <mxCell id="0q4AZMgEHPv3-rVPQX4F-26" value="epoll_wait()循环检测，" style="rounded=1;whiteSpace=wrap;html=1;" parent="1" vertex="1">
          <mxGeometry x="1945" y="2630" width="120" height="60" as="geometry" />
        </mxCell>
        <mxCell id="0q4AZMgEHPv3-rVPQX4F-28" value="&lt;font style=&quot;font-size: 12px;&quot;&gt;判断连接数量，未超过限定产生connfd，注册到epollfd中，设置非阻塞&lt;/font&gt;" style="rounded=1;whiteSpace=wrap;html=1;fontSize=18;" parent="1" vertex="1">
          <mxGeometry x="1876.5" y="2927.5" width="150" height="60" as="geometry" />
        </mxCell>
        <mxCell id="0q4AZMgEHPv3-rVPQX4F-29" value="&lt;font style=&quot;font-size: 12px;&quot;&gt;就绪的文件描述符Events（for遍历就绪的）&lt;/font&gt;" style="rhombus;whiteSpace=wrap;html=1;fontSize=18;" parent="1" vertex="1">
          <mxGeometry x="1936.5" y="2710" width="137" height="80" as="geometry" />
        </mxCell>
        <mxCell id="0q4AZMgEHPv3-rVPQX4F-30" value="是Listenfd" style="rhombus;whiteSpace=wrap;html=1;fontSize=12;" parent="1" vertex="1">
          <mxGeometry x="1906.5" y="2807.5" width="90" height="80" as="geometry" />
        </mxCell>
        <mxCell id="0q4AZMgEHPv3-rVPQX4F-32" value="读就绪？" style="rhombus;whiteSpace=wrap;html=1;fontSize=12;" parent="1" vertex="1">
          <mxGeometry x="2053" y="2807.5" width="80" height="80" as="geometry" />
        </mxCell>
        <mxCell id="0q4AZMgEHPv3-rVPQX4F-33" value="写就绪？" style="rhombus;whiteSpace=wrap;html=1;fontSize=12;" parent="1" vertex="1">
          <mxGeometry x="2200" y="2807.5" width="80" height="80" as="geometry" />
        </mxCell>
        <mxCell id="0q4AZMgEHPv3-rVPQX4F-34" value="一次性读完数据后，对应客户端http连接的类地址压入任务队列，信号灯sem ，post，+1资源" style="rounded=1;whiteSpace=wrap;html=1;fontSize=12;" parent="1" vertex="1">
          <mxGeometry x="2037.5" y="2911.25" width="120" height="92.5" as="geometry" />
        </mxCell>
        <mxCell id="0q4AZMgEHPv3-rVPQX4F-35" value="主线程一次性写完，写给socket" style="rounded=1;whiteSpace=wrap;html=1;fontSize=12;" parent="1" vertex="1">
          <mxGeometry x="2180" y="2927.5" width="120" height="60" as="geometry" />
        </mxCell>
        <mxCell id="0q4AZMgEHPv3-rVPQX4F-36" value="断开连接、发生错误" style="rhombus;whiteSpace=wrap;html=1;fontSize=12;" parent="1" vertex="1">
          <mxGeometry x="1730" y="2807.5" width="80" height="80" as="geometry" />
        </mxCell>
        <mxCell id="0q4AZMgEHPv3-rVPQX4F-37" value="关闭连接，对应客户端数量-1，epoll中取消注册，删除；epoll_ctl_del" style="rounded=1;whiteSpace=wrap;html=1;fontSize=12;" parent="1" vertex="1">
          <mxGeometry x="1710" y="2927.5" width="120" height="60" as="geometry" />
        </mxCell>
        <mxCell id="0q4AZMgEHPv3-rVPQX4F-57" value="" style="whiteSpace=wrap;html=1;aspect=fixed;" parent="1" vertex="1">
          <mxGeometry x="1087.5" y="1557.5" width="390" height="390" as="geometry" />
        </mxCell>
        <mxCell id="0q4AZMgEHPv3-rVPQX4F-58" value="只要访问公共资源任务队列，就需要上锁" style="ellipse;whiteSpace=wrap;html=1;" parent="1" vertex="1">
          <mxGeometry x="1060" y="1702.5" width="120" height="80" as="geometry" />
        </mxCell>
        <mxCell id="0q4AZMgEHPv3-rVPQX4F-59" value="新信号灯（只有消费者信号灯，-1）wait再锁" style="rounded=0;whiteSpace=wrap;html=1;" parent="1" vertex="1">
          <mxGeometry x="1382.5" y="1812.5" width="120" height="60" as="geometry" />
        </mxCell>
        <mxCell id="0q4AZMgEHPv3-rVPQX4F-60" value="2.构造函数：&lt;br&gt;进行了线程的创建，使用this传入，保证了静态函数worker（线程执行函数）可以访问类内成员。并进行了线程的分离，保证不会主线程终止带来子线程的终止；" style="rounded=1;whiteSpace=wrap;html=1;" parent="1" vertex="1">
          <mxGeometry x="1182.5" y="1637.5" width="200" height="90" as="geometry" />
        </mxCell>
        <mxCell id="0q4AZMgEHPv3-rVPQX4F-61" value="1.线程池类：&lt;br&gt;规定了创建线程的数量和任务请求队列的最大数量，描述小城吃的数组，以及一系列状态、信号量、互斥锁；" style="rounded=1;whiteSpace=wrap;html=1;" parent="1" vertex="1">
          <mxGeometry x="1177.5" y="1562.5" width="200" height="70" as="geometry" />
        </mxCell>
        <mxCell id="0q4AZMgEHPv3-rVPQX4F-62" value="&lt;br&gt;&lt;br&gt;3.线程的执行函数worker：&lt;br&gt;运行run，while检测（线程池是否停止运行），&lt;br&gt;取出任务队列中任务前，防止多个线程访问公共资源任务队列，进行互斥锁，同时使用信号量保证消费者线程（工作线程）的个数&lt;br&gt;&lt;br&gt;检测到任务队列不为空，取出任务request执行任务" style="rounded=1;whiteSpace=wrap;html=1;" parent="1" vertex="1">
          <mxGeometry x="1187.5" y="1747.5" width="190" height="185" as="geometry" />
        </mxCell>
        <mxCell id="0q4AZMgEHPv3-rVPQX4F-63" value="线程同步类" style="shape=table;startSize=20;container=1;collapsible=0;childLayout=tableLayout;fixedRows=1;rowLines=0;fontStyle=1;labelBackgroundColor=#FFFFFF;labelBorderColor=none;fontSize=11;fontColor=#000000;strokeColor=default;fontFamily=Helvetica;" parent="1" vertex="1">
          <mxGeometry x="1497.5" y="1627.5" width="140" height="90" as="geometry" />
        </mxCell>
        <mxCell id="0q4AZMgEHPv3-rVPQX4F-64" value="" style="shape=tableRow;horizontal=0;startSize=0;swimlaneHead=0;swimlaneBody=0;top=0;left=0;bottom=0;right=0;collapsible=0;dropTarget=0;fillColor=none;points=[[0,0.5],[1,0.5]];portConstraint=eastwest;labelBackgroundColor=#FFFFFF;labelBorderColor=none;fontSize=11;fontColor=#000000;strokeColor=default;fontFamily=Helvetica;" parent="0q4AZMgEHPv3-rVPQX4F-63" vertex="1">
          <mxGeometry y="20" width="140" height="20" as="geometry" />
        </mxCell>
        <mxCell id="0q4AZMgEHPv3-rVPQX4F-65" value="1" style="shape=partialRectangle;html=1;whiteSpace=wrap;connectable=0;fillColor=none;top=0;left=0;bottom=0;right=0;overflow=hidden;pointerEvents=1;labelBackgroundColor=#FFFFFF;labelBorderColor=none;fontSize=11;fontColor=#000000;strokeColor=default;fontFamily=Helvetica;" parent="0q4AZMgEHPv3-rVPQX4F-64" vertex="1">
          <mxGeometry width="19" height="20" as="geometry">
            <mxRectangle width="19" height="20" as="alternateBounds" />
          </mxGeometry>
        </mxCell>
        <mxCell id="0q4AZMgEHPv3-rVPQX4F-66" value="互斥锁locker" style="shape=partialRectangle;html=1;whiteSpace=wrap;connectable=0;fillColor=none;top=0;left=0;bottom=0;right=0;align=center;spacingLeft=6;overflow=hidden;labelBackgroundColor=#FFFFFF;labelBorderColor=none;fontSize=11;fontColor=#000000;strokeColor=default;fontFamily=Helvetica;" parent="0q4AZMgEHPv3-rVPQX4F-64" vertex="1">
          <mxGeometry x="19" width="121" height="20" as="geometry">
            <mxRectangle width="121" height="20" as="alternateBounds" />
          </mxGeometry>
        </mxCell>
        <mxCell id="0q4AZMgEHPv3-rVPQX4F-67" value="" style="shape=tableRow;horizontal=0;startSize=0;swimlaneHead=0;swimlaneBody=0;top=0;left=0;bottom=0;right=0;collapsible=0;dropTarget=0;fillColor=none;points=[[0,0.5],[1,0.5]];portConstraint=eastwest;labelBackgroundColor=#FFFFFF;labelBorderColor=none;fontSize=11;fontColor=#000000;strokeColor=default;fontFamily=Helvetica;" parent="0q4AZMgEHPv3-rVPQX4F-63" vertex="1">
          <mxGeometry y="40" width="140" height="20" as="geometry" />
        </mxCell>
        <mxCell id="0q4AZMgEHPv3-rVPQX4F-68" value="2" style="shape=partialRectangle;html=1;whiteSpace=wrap;connectable=0;fillColor=none;top=0;left=0;bottom=0;right=0;overflow=hidden;labelBackgroundColor=#FFFFFF;labelBorderColor=none;fontSize=11;fontColor=#000000;strokeColor=default;fontFamily=Helvetica;" parent="0q4AZMgEHPv3-rVPQX4F-67" vertex="1">
          <mxGeometry width="19" height="20" as="geometry">
            <mxRectangle width="19" height="20" as="alternateBounds" />
          </mxGeometry>
        </mxCell>
        <mxCell id="0q4AZMgEHPv3-rVPQX4F-69" value="信号量sem" style="shape=partialRectangle;html=1;whiteSpace=wrap;connectable=0;fillColor=none;top=0;left=0;bottom=0;right=0;align=center;spacingLeft=6;overflow=hidden;labelBackgroundColor=#FFFFFF;labelBorderColor=none;fontSize=11;fontColor=#000000;strokeColor=default;fontFamily=Helvetica;" parent="0q4AZMgEHPv3-rVPQX4F-67" vertex="1">
          <mxGeometry x="19" width="121" height="20" as="geometry">
            <mxRectangle width="121" height="20" as="alternateBounds" />
          </mxGeometry>
        </mxCell>
        <mxCell id="0q4AZMgEHPv3-rVPQX4F-70" value="" style="shape=tableRow;horizontal=0;startSize=0;swimlaneHead=0;swimlaneBody=0;top=0;left=0;bottom=0;right=0;collapsible=0;dropTarget=0;fillColor=none;points=[[0,0.5],[1,0.5]];portConstraint=eastwest;labelBackgroundColor=#FFFFFF;labelBorderColor=none;fontSize=11;fontColor=#000000;strokeColor=default;fontFamily=Helvetica;" parent="0q4AZMgEHPv3-rVPQX4F-63" vertex="1">
          <mxGeometry y="60" width="140" height="20" as="geometry" />
        </mxCell>
        <mxCell id="0q4AZMgEHPv3-rVPQX4F-71" value="3" style="shape=partialRectangle;html=1;whiteSpace=wrap;connectable=0;fillColor=none;top=0;left=0;bottom=0;right=0;overflow=hidden;labelBackgroundColor=#FFFFFF;labelBorderColor=none;fontSize=11;fontColor=#000000;strokeColor=default;fontFamily=Helvetica;" parent="0q4AZMgEHPv3-rVPQX4F-70" vertex="1">
          <mxGeometry width="19" height="20" as="geometry">
            <mxRectangle width="19" height="20" as="alternateBounds" />
          </mxGeometry>
        </mxCell>
        <mxCell id="0q4AZMgEHPv3-rVPQX4F-72" value="条件变量cond" style="shape=partialRectangle;html=1;whiteSpace=wrap;connectable=0;fillColor=none;top=0;left=0;bottom=0;right=0;align=center;spacingLeft=6;overflow=hidden;labelBackgroundColor=#FFFFFF;labelBorderColor=none;fontSize=11;fontColor=#000000;strokeColor=default;fontFamily=Helvetica;" parent="0q4AZMgEHPv3-rVPQX4F-70" vertex="1">
          <mxGeometry x="19" width="121" height="20" as="geometry">
            <mxRectangle width="121" height="20" as="alternateBounds" />
          </mxGeometry>
        </mxCell>
        <mxCell id="0q4AZMgEHPv3-rVPQX4F-73" value="C封装&lt;br&gt;私有：类型&lt;br&gt;公有：函数" style="rounded=0;whiteSpace=wrap;html=1;" parent="1" vertex="1">
          <mxGeometry x="1507.5" y="1557.5" width="120" height="60" as="geometry" />
        </mxCell>
        <mxCell id="0q4AZMgEHPv3-rVPQX4F-74" value="构造失败，即非0，抛出异常" style="rounded=0;whiteSpace=wrap;html=1;" parent="1" vertex="1">
          <mxGeometry x="1651.5" y="1557.5" width="120" height="60" as="geometry" />
        </mxCell>
        <mxCell id="0q4AZMgEHPv3-rVPQX4F-75" value="使用mutex的init和destroy构造析构；&lt;br&gt;lock和unlock上锁和解锁；&lt;br&gt;私有数据，互斥锁，C，get函数获取" style="rounded=0;whiteSpace=wrap;html=1;" parent="1" vertex="1">
          <mxGeometry x="1795" y="1547.5" width="225" height="80" as="geometry" />
        </mxCell>
        <mxCell id="0q4AZMgEHPv3-rVPQX4F-76" value="线程同步，有pthread前缀" style="rounded=1;whiteSpace=wrap;html=1;" parent="1" vertex="1">
          <mxGeometry x="1847.5" y="1457.5" width="120" height="60" as="geometry" />
        </mxCell>
        <mxCell id="0q4AZMgEHPv3-rVPQX4F-77" value="trylock、trywait不会阻塞" style="ellipse;whiteSpace=wrap;html=1;" parent="1" vertex="1">
          <mxGeometry x="2137.5" y="1447.5" width="130" height="80" as="geometry" />
        </mxCell>
        <mxCell id="0q4AZMgEHPv3-rVPQX4F-78" value="处理" style="rounded=1;whiteSpace=wrap;html=1;fontSize=12;" parent="1" vertex="1">
          <mxGeometry x="2670" y="2175" width="120" height="60" as="geometry" />
        </mxCell>
        <mxCell id="0q4AZMgEHPv3-rVPQX4F-79" value="&lt;font style=&quot;font-size: 18px;&quot;&gt;&lt;b&gt;工作线程的流程&lt;/b&gt;&lt;/font&gt;" style="ellipse;shape=cloud;whiteSpace=wrap;html=1;" parent="1" vertex="1">
          <mxGeometry x="2440" y="2140" width="180" height="105" as="geometry" />
        </mxCell>
        <mxCell id="0q4AZMgEHPv3-rVPQX4F-80" value="线程池的标志位true" style="rhombus;whiteSpace=wrap;html=1;fontSize=12;" parent="1" vertex="1">
          <mxGeometry x="2470" y="2255" width="113" height="80" as="geometry" />
        </mxCell>
        <mxCell id="0q4AZMgEHPv3-rVPQX4F-81" value="先sem，wait后mutex互斥锁" style="rounded=1;whiteSpace=wrap;html=1;fontSize=12;" parent="1" vertex="1">
          <mxGeometry x="2463" y="2350" width="120" height="60" as="geometry" />
        </mxCell>
        <mxCell id="0q4AZMgEHPv3-rVPQX4F-82" value="sem保证工作线程的个数" style="rounded=1;whiteSpace=wrap;html=1;fontSize=12;" parent="1" vertex="1">
          <mxGeometry x="2678" y="2350" width="120" height="60" as="geometry" />
        </mxCell>
        <mxCell id="0q4AZMgEHPv3-rVPQX4F-83" value="任务队列不为空" style="rhombus;whiteSpace=wrap;html=1;fontSize=12;" parent="1" vertex="1">
          <mxGeometry x="2487" y="2430" width="80" height="80" as="geometry" />
        </mxCell>
        <mxCell id="0q4AZMgEHPv3-rVPQX4F-84" value="解锁" style="rounded=1;whiteSpace=wrap;html=1;fontSize=12;" parent="1" vertex="1">
          <mxGeometry x="2467" y="2530" width="120" height="60" as="geometry" />
        </mxCell>
        <mxCell id="0q4AZMgEHPv3-rVPQX4F-85" value="读，插入请求到任务队列，工作线程处理" style="ellipse;shape=cloud;whiteSpace=wrap;html=1;fontSize=12;" parent="1" vertex="1">
          <mxGeometry x="2050" y="3003.75" width="120" height="80" as="geometry" />
        </mxCell>
        <mxCell id="0q4AZMgEHPv3-rVPQX4F-87" value="" style="shape=flexArrow;endArrow=classic;html=1;rounded=0;fontSize=12;entryX=1;entryY=0.5;entryDx=0;entryDy=0;" parent="1" target="0q4AZMgEHPv3-rVPQX4F-26" edge="1">
          <mxGeometry width="50" height="50" relative="1" as="geometry">
            <mxPoint x="2430" y="2240" as="sourcePoint" />
            <mxPoint x="2140" y="2700" as="targetPoint" />
          </mxGeometry>
        </mxCell>
        <mxCell id="0q4AZMgEHPv3-rVPQX4F-88" value="注册写就绪事件" style="ellipse;shape=cloud;whiteSpace=wrap;html=1;fontSize=12;" parent="1" vertex="1">
          <mxGeometry x="2210" y="2335" width="120" height="80" as="geometry" />
        </mxCell>
        <mxCell id="0q4AZMgEHPv3-rVPQX4F-89" value="注册读就绪事件" style="ellipse;shape=cloud;whiteSpace=wrap;html=1;fontSize=12;" parent="1" vertex="1">
          <mxGeometry x="1876.5" y="3003.75" width="120" height="80" as="geometry" />
        </mxCell>
        <mxCell id="0q4AZMgEHPv3-rVPQX4F-90" value="" style="shape=flexArrow;endArrow=classic;html=1;rounded=0;fontSize=12;entryX=0;entryY=0.5;entryDx=0;entryDy=0;exitX=0.07;exitY=0.4;exitDx=0;exitDy=0;exitPerimeter=0;" parent="1" source="0q4AZMgEHPv3-rVPQX4F-89" target="0q4AZMgEHPv3-rVPQX4F-26" edge="1">
          <mxGeometry width="50" height="50" relative="1" as="geometry">
            <mxPoint x="1840" y="3040" as="sourcePoint" />
            <mxPoint x="2011.5" y="2642.5" as="targetPoint" />
            <Array as="points">
              <mxPoint x="1870" y="2830" />
            </Array>
          </mxGeometry>
        </mxCell>
        <mxCell id="LmTQRD-9G7nvdm8Ks5E--1" value="构造函数，默认创建8个工作线程（sem=8），任务队列的大小位10000" style="ellipse;shape=cloud;whiteSpace=wrap;html=1;" vertex="1" parent="1">
          <mxGeometry x="1340" y="1430" width="180" height="118" as="geometry" />
        </mxCell>
        <mxCell id="LmTQRD-9G7nvdm8Ks5E--2" value="解析http请求并且生成响应" style="shape=callout;whiteSpace=wrap;html=1;perimeter=calloutPerimeter;" vertex="1" parent="1">
          <mxGeometry x="2570" y="2040" width="120" height="80" as="geometry" />
        </mxCell>
        <mxCell id="LmTQRD-9G7nvdm8Ks5E--3" value="监听socket水平触发，通信socket边沿触发" style="ellipse;shape=cloud;whiteSpace=wrap;html=1;" vertex="1" parent="1">
          <mxGeometry x="1920" y="1717.5" width="120" height="80" as="geometry" />
        </mxCell>
        <mxCell id="LmTQRD-9G7nvdm8Ks5E--11" value="http_conn类" style="swimlane;fontStyle=0;childLayout=stackLayout;horizontal=1;startSize=30;horizontalStack=0;resizeParent=1;resizeParentMax=0;resizeLast=0;collapsible=1;marginBottom=0;" vertex="1" parent="1">
          <mxGeometry x="2380" y="1840" width="290" height="120" as="geometry" />
        </mxCell>
        <mxCell id="LmTQRD-9G7nvdm8Ks5E--12" value="用户数量，读写缓冲区大小，static" style="text;strokeColor=none;fillColor=none;align=left;verticalAlign=middle;spacingLeft=4;spacingRight=4;overflow=hidden;points=[[0,0.5],[1,0.5]];portConstraint=eastwest;rotatable=0;" vertex="1" parent="LmTQRD-9G7nvdm8Ks5E--11">
          <mxGeometry y="30" width="290" height="30" as="geometry" />
        </mxCell>
        <mxCell id="LmTQRD-9G7nvdm8Ks5E--13" value="私有的读写缓冲区" style="text;strokeColor=none;fillColor=none;align=left;verticalAlign=middle;spacingLeft=4;spacingRight=4;overflow=hidden;points=[[0,0.5],[1,0.5]];portConstraint=eastwest;rotatable=0;" vertex="1" parent="LmTQRD-9G7nvdm8Ks5E--11">
          <mxGeometry y="60" width="290" height="30" as="geometry" />
        </mxCell>
        <mxCell id="LmTQRD-9G7nvdm8Ks5E--14" value="Item 3" style="text;strokeColor=none;fillColor=none;align=left;verticalAlign=middle;spacingLeft=4;spacingRight=4;overflow=hidden;points=[[0,0.5],[1,0.5]];portConstraint=eastwest;rotatable=0;" vertex="1" parent="LmTQRD-9G7nvdm8Ks5E--11">
          <mxGeometry y="90" width="290" height="30" as="geometry" />
        </mxCell>
        <mxCell id="LmTQRD-9G7nvdm8Ks5E--15" value="recv和send相比较read和write多了flags" style="ellipse;whiteSpace=wrap;html=1;" vertex="1" parent="1">
          <mxGeometry x="2775" y="1860" width="120" height="80" as="geometry" />
        </mxCell>
        <mxCell id="LmTQRD-9G7nvdm8Ks5E--16" value="通信socket设置为非阻塞，读操作，读缓冲区0不会阻塞" style="ellipse;shape=cloud;whiteSpace=wrap;html=1;" vertex="1" parent="1">
          <mxGeometry x="2090" y="1733" width="120" height="80" as="geometry" />
        </mxCell>
        <mxCell id="LmTQRD-9G7nvdm8Ks5E--17" value="epoll的oneshot" style="swimlane;fontStyle=0;childLayout=stackLayout;horizontal=1;startSize=30;horizontalStack=0;resizeParent=1;resizeParentMax=0;resizeLast=0;collapsible=1;marginBottom=0;" vertex="1" parent="1">
          <mxGeometry x="2870" y="2005" width="720" height="180" as="geometry" />
        </mxCell>
        <mxCell id="LmTQRD-9G7nvdm8Ks5E--18" value="EV边沿触发，只触发一次epoll，while读取数据" style="text;strokeColor=none;fillColor=none;align=left;verticalAlign=middle;spacingLeft=4;spacingRight=4;overflow=hidden;points=[[0,0.5],[1,0.5]];portConstraint=eastwest;rotatable=0;" vertex="1" parent="LmTQRD-9G7nvdm8Ks5E--17">
          <mxGeometry y="30" width="720" height="30" as="geometry" />
        </mxCell>
        <mxCell id="LmTQRD-9G7nvdm8Ks5E--19" value="水平触发，数据没有发完就一直触发，监听的一定不能oneshot" style="text;strokeColor=none;fillColor=none;align=left;verticalAlign=middle;spacingLeft=4;spacingRight=4;overflow=hidden;points=[[0,0.5],[1,0.5]];portConstraint=eastwest;rotatable=0;" vertex="1" parent="LmTQRD-9G7nvdm8Ks5E--17">
          <mxGeometry y="60" width="720" height="30" as="geometry" />
        </mxCell>
        <mxCell id="LmTQRD-9G7nvdm8Ks5E--22" value="多线程的EV，可能会有多个线程处理同一个客户端socket" style="text;strokeColor=none;fillColor=none;align=left;verticalAlign=middle;spacingLeft=4;spacingRight=4;overflow=hidden;points=[[0,0.5],[1,0.5]];portConstraint=eastwest;rotatable=0;" vertex="1" parent="LmTQRD-9G7nvdm8Ks5E--17">
          <mxGeometry y="90" width="720" height="30" as="geometry" />
        </mxCell>
        <mxCell id="LmTQRD-9G7nvdm8Ks5E--20" value="oneshot事件使得操作系统最多触发其注册的一个可读、可写、异常事件，且只触发一次&#xa;除非使用ctl重置该文件描述符注册的epoll_oneshot事件" style="text;strokeColor=none;fillColor=none;align=left;verticalAlign=middle;spacingLeft=4;spacingRight=4;overflow=hidden;points=[[0,0.5],[1,0.5]];portConstraint=eastwest;rotatable=0;" vertex="1" parent="LmTQRD-9G7nvdm8Ks5E--17">
          <mxGeometry y="120" width="720" height="30" as="geometry" />
        </mxCell>
        <mxCell id="LmTQRD-9G7nvdm8Ks5E--23" value="所以在工作线程处理时，读操作没解析完需要重置可读oneshot,直接return；&#xa;如果解析完了，写操作生成响应后也需要重置可写以及oneshot" style="text;strokeColor=none;fillColor=none;align=left;verticalAlign=middle;spacingLeft=4;spacingRight=4;overflow=hidden;points=[[0,0.5],[1,0.5]];portConstraint=eastwest;rotatable=0;" vertex="1" parent="LmTQRD-9G7nvdm8Ks5E--17">
          <mxGeometry y="150" width="720" height="30" as="geometry" />
        </mxCell>
        <mxCell id="LmTQRD-9G7nvdm8Ks5E--21" value="主线程读到类的缓冲区，http_conn的read；工作线程从读缓冲区进行解析和生成响应报文，http_conn_process_read" style="shape=hexagon;perimeter=hexagonPerimeter2;whiteSpace=wrap;html=1;fixedSize=1;" vertex="1" parent="1">
          <mxGeometry x="2870" y="1718" width="260" height="122" as="geometry" />
        </mxCell>
        <mxCell id="LmTQRD-9G7nvdm8Ks5E--25" value="" style="shape=stencil(lVfLctswDPwaXTEkwRfOafofmYlTe+raGcdtk78vVEWxCCob+ybTWBJLLB4c+O5l+/C8GYJ7OZ+OPzd/d4/n7cDfhhB2h+3mtDvr18D3A989HU+bH6fj78Pj9Pv5YbQcv34d/4w7vE447xw5N8KCe3tfopL+L3yfAPvdYQGQSlIa+0rJQfvA7f5CsQJAJpcbQPjYYh2gDocGwJVi+BxQMyXfAKJQBpyrI0kNIDuqgENJFGoDKJ484JCFkrlVR4wATLV1qZZ5i3VAoBgbgOgKIJ000NICCnGEJ1RvARW5xMQtaRVLRKQdZW8BAuKQItVWGiKQdMzdCUIVyJsz1WgByKWg4uNbAD5Tybe4pPmYbuEcuv3xpXYF44uoOUpmfyyLSFytPdKd9+QM4UwCLkgLUBULeA/7+g1phLIFRAEUHAVvAQnprst/BRRwQiod6UIeRC37uWItABkBuNOR1mGU//0Jda4I13IQYgAYb6lLhQIiPcbBWYAADmOkW5cWDfJTMVV7BOoNK3JVWgAQuyop5JGWuvzB9tpozB0FCkB6mlxtAdPOE1F+ap/pelsA/dkXm27aPR2oMIHnXrnszyBoWiONS5cEXC/zTL6bMRhcqvaF3E8xqJGUeey6ck5SgKnDeBDjZAc3POgpA/HGHk0krDNU2wndLJR1mcY5phd7mAYfXe9iz4Bvyr0/HtjnOE9oF3uU+KpJM4F9YS9zF7vOH51SfbmBr47BYv1B96kNhi1fFC+tIs7qB+nh5pfFFQD9uDxknnb7/fQOWv5vHz66ND2a+P4f);lineShape=1;" vertex="1" parent="1">
          <mxGeometry x="2927.9946726509033" y="1606.5952230553662" width="4.420413997689138" height="80.13729984096517" as="geometry" />
        </mxCell>
        <mxCell id="LmTQRD-9G7nvdm8Ks5E--26" value="" style="shape=stencil(lVjZctswDPwavWJI8H5O0//ITJzaUzfOOE6Pvy9YDe0AilbNm+LsUjgWBzWFu9f9w8tuYvd6OZ++734dHi/7KXyZmA/P+935cJGnKdxP4e7pdN59O5/enh/nv18eOrI//Tj97Cf8nnmOuHUSuz/zD6VQCf9++Trjj4fnd3gm5zSeKQN8ohQUPjeKbR1fKVSNL9TA+d5T9ZoQKVZAyOQ1ITVygMCeYtIEJi6AUEZEBiEmirxOCJECK0KolNI6IXpiQ/CUMyBUm2aOVIAPKVGOiuALVUDIwQrDMzRJdFB0WBtVIIwiSsoKX8lHICQ3Yn4VBlUgpCpJ0B4nKh7gi1VqhP5W8VfbHyiDHDfJqA4ojmcLIxzXBFAGCWuRUlF4RxmUQUvUmsEzsl/0kgwelVmT+LDFO4g3he8ogXy1q7xu8XQY37T9IhCgn443nZQYNS7nFhUjksUeN604H0Z3XSXoRiTND3WuHiOtUV9HVawmzZjUtkzKzRIKdtqUgZhUke7EAK0j6VwOFY4MJON0HEesEkxYPZxpS8K1Hf+nRYkYe2BcZti6ljF11LDDuRr8RkSLxaNS+EB2FDdKU8czwJG/LBwpA3D+B6XZtsrA1L4Mv41mZJqLxyvCsnuJqgs2ybRHKTTeKGW2hLKR5c8RFhNBCBWZtBg5XXgoSlK41RIieoMMTW1Slx6S6nIqM0xcH/t6zHaxIsJir5DBg0xaLi7SLlA59M1Il4/UQwZq7auX8QEv5cvdjhtcLvr2qNUaJKwb+6l+QyhjsqxtwEG/Icq+BvLQd2wdpeTHBrq6xRuCbPFgtPV7gvYhJ6jWrk2dB7l8oY2h33W0NIo0MjA8+23KTKo4OtXadU1XaK0w0aIkbVBzUHqyo5lLQiQP0uyGe7edCq+RbixE1xc0OAsF7yye4fleB7R3QRAgsdbYk8kBTQjenB/gxc7ZQmsezubFJJQEJ2yPPr8meG90w7srPoz+t4Y3gvNwljvb4KUCUHN09mZd8K722e8n23h5uH2seTocj/O3nvf/tx935Kf5w1C4/ws=);lineShape=1;" vertex="1" parent="1">
          <mxGeometry x="2935.585501704002" y="1600.7570336278523" width="439.09654143667467" height="12.65206250473966" as="geometry" />
        </mxCell>
        <mxCell id="LmTQRD-9G7nvdm8Ks5E--27" value="" style="shape=stencil(lZfbbtswDIafJrcERR153XXvUaDpGqxrijQ7vf3oBXIsOv6L3jm2vkg8/aR28e79+eFtvxN+P5+O3/e/D4/n5138shM5vD7vT4ezPe3i/S7ePR1P+2+n48/Xx8vvt4dp5fT04/hr+oc/F06Vapko4b+XN4E0/H/x9bL+5fC6WN+0f57XM7FsAzWS8ADYDgKAYgdoI9CotW0gM5XxSLFSjNtANJvjAKRCnLcBUSp5AHKiioBAPHq1SLfqJhAStTQCtmcBgHQTO1ATZQzI6NbaKAEvhUihDkALVBjaEGQEEkWQSyGTuB20H/I2UCiMNqj0yNyOQ6GqIxCpARsSUxptUIuMguQTytkDqIAsEWrzQAVxKJkqeyBWADRfogYIAKoQVw8k4FZLtVZWXkI7FFK3Q6YMvGS56SNdSEAcDIgOqD0dbwOVcvKAgjjU3Et+BhoVBFgBueRTCsitTCF6ICGpNLfyCkC5ZNm/2iEA1TAxlrQyGgDZDhBWbgWpkRtl8QA6kgHF5VKhCLxkR2oucLnHfrMDrURAgWqURGVV0wm5ta7i8EGJht6gliIAdrDkU/VABTZYicaVl5AYWwE19XGAk8DcbxZAA3Goc0EuUqNgmUmrbEUFZEIWXLYqMfLSZ4GU+ufrvMSQmHqWeCNQRwlWo8W7iQHA/kjWFANcL2MYrE2jvs6+OzTcTph0zLxp0ABaH7o+LCYZNO/Z5DPGzKIoIAK5e28xi6HxcArAqEjW5FGzCtq75TxPzuW6NYA6F6Xcg7I1x7QxxnGuja05xg1vUvEcs+puU56glm6dwaVd7/G3bxrNO8k0EFjQ1MsLUwXnUfYDMcPeqaEL7nU9sncaTYNbz0C8rAjV/z/SCZPn6O1F8mtiW5JbH5C9pu/i1qOqN5VyszbDC4kJZ2a3Hs2Qur55Qv8vdPYKfHCgT12FP15vD9d799Ph5eVybV9+9/d0e3W548f7fw==);lineShape=1;" vertex="1" parent="1">
          <mxGeometry x="3360.4223800579985" y="1599.579038311645" width="24.999008010297985" height="96.26304853088186" as="geometry" />
        </mxCell>
        <mxCell id="LmTQRD-9G7nvdm8Ks5E--28" value="" style="shape=stencil(lVfZktpADPwaXlWae+Z5s/mPrVo2UCGwxZLr7yPHNQ6SMw28GaP2SOrWMZvw9LF7ed9uPH9czqev25/718tuEz5tvN8fd9vz/iJPm/C8CU9vp/P2y/n0/fg6/35/mSynp2+nH9MXfs04puAnkOff84vqKJa/bz7P9of98creU2vKvlRiHtsXKvr7hSm3sb1zVPUBOVHKAFDIFQVIjXICEYQe4AKQoOIYEJgSK0CM1AIALCnpgJCpAkBMlKMGMDmQVfG4VgWQqBoIWnISnQK4SsmPAZJ1ThrgKYIsCa9eM50pASGVRE575MkBYZRGTdPGVIB9jZS9sc8V2FcqbOyRsFugysZ/DzhuzVaC4/5mBKiGMkceRCyApj0SylAlTICsAZI0wNkE0MU5VR8I2jHbUnCSB0BDW9EseQ04r03n1UdKGFB1sYlSHVD2xJwuBelqUBrSgPKDgFRWLoGmJ4DYVkHfAMRVWjHVtmEserwXUG7GYDpM7CU4zJI5wd+SazJydRRuEGcAN2u0VHsC4yzVYmNwGNA0cS7A4TMBjEuZPMjS/2q09iF85xHedWruDELGVcXaMGnyCXbvNRFSQfUhqqVG0ch9HBD6fLpKawZiWk8gYS6CE9YjTkqOQZbWM1QAHhA3DemwigGte7IFrPpMA1qa9gzDdO27zXCT0S6F2OU42pXMWIzcO89wG9ONKea+nw33Pe1SCt3J4UapAdlBaUw7q9mKl6E02oq9DrpIDGhSOztGq4cnFDsURb5ofwvE+vstwT4mFxMzHRgvZNy73HLAMugH9q5ZezSv2JZCK1B3bIXdMgWQILYiapEi9Md07eb7Xe5Oe3mD/TGCKHAqsL0w1AR7/HLDWewjnITc2blToKtOJDfbCu0fuwnftpeHf9fut/3hMN/ar/+313R5NV/xw/Mf);lineShape=1;" vertex="1" parent="1">
          <mxGeometry x="2925.5883698109383" y="1670.159012723655" width="422.2186766470777" height="15.254235719582994" as="geometry" />
        </mxCell>
        <mxCell id="LmTQRD-9G7nvdm8Ks5E--29" value="" style="shape=stencil(lVfbctpADP0av2pWq70+p+l/ZCakMKWQIfT295VrDF4tnMCbMTpeXY6OtIM8faxf3leDdx/Hw/776vfm9bge5Mvg/Wa3Xh02R30a5HmQp7f9YfXtsP+5e51+v7+MluPTj/2v8Qt/Jhw7R86NMO/+nl5RSf9ffJ0A281uAaiVSmjsC7kC7AtVab+fSSoAJCq+AfhANQOAp8INQISKuw0o6nFqAEFIBACEXBtzFPLxNiBnqm0MyVMCWcqecm0AmSkAl1Km1MaQKzngUtIQW0CJ5NEJ3gZdHXkQgwJybgGaBgRgcm2WlCwJuBQTcRuDstHzbUAolNkCEmC3VArBAipwydeZOWd6XzrqKoKvHVFA5djNbF4AIjghkLBNawUd5yyV1F5AwykNTNnynObrSZ2JubB34PtlTsfZPlEENVBBMRKmAEZFS13EEVZZOk36BBAShd4lUOQYKPguaMDU5LrmycSgCqMCiQVkpBhMtePFycnrMRTijqgO9fNZ45bMRmnVGLIFoGklqkmPtafXI3oFAFGzUOh8On3iel6Ji7Vn0A48p2RRhghktRvoowyDpD5qH8m1o0rnAiKe6ldt+1knDxpVnGzRsgoYqhlTak/Q6SnAJa1BbCVSuyOCGgiTb3tBNwAGRZZIua2y7hge0Egnj5EY3WKQqmovGJkc9yTUPGKZ/ckmFrrmwateOOfwvlVSHQps7AOKOM6fm+0dnGuh2qVKJx3SrzCvKxd7AfYqkEbvcCPozlbE2CMpymHW5/vsC1slwv4U3SGt/yheXbSzzQ/Kp04ws33hel108D4+PHx3uQOgD5er0ttmu51uWsv/7dVKX03XMnn+Bw==);lineShape=1;" vertex="1" parent="1">
          <mxGeometry x="3057.4691215779994" y="1603.588116564967" width="4.953123715758011" height="75.8481816956778" as="geometry" />
        </mxCell>
        <mxCell id="LmTQRD-9G7nvdm8Ks5E--30" value="" style="shape=stencil(lVfLctswDPwaXTEEQRLkOU3/IzNxak9dO+O4r78vVFWJCEXb+CbLWAqvXYCD3L3sH553Qwwv18v56+7n4fG6H+TTEOPhtN9dDld7GuR+kLun82X35XL+fnqcfj8/jJbj07fzj/GEXxOOQ6AQRlgMv/+9otb+vvg8AY6H0wLQGol09vaCgT1Tjv35jYpsA2oi7QFRqeg2QJVS6wCixAUAAnEfcrIvhG1AiVRyB8hKNW0DcibuXSpKuW4DzAHts6qFEkhripRSB6hCFdQtCbH2gEYMYkgWgyu0kIA6pOZdavo/gPR1aJU4AkChUj2gIgBT7Qtn7YvSKpkkekAFAOtN7V1aMOp9xIpw9omWtwEc5xgXgAL6u1BTb4/4IBRWWc0gq8boVZ0VtF70CmD2AQScqTn7QgLIw0zSs61lSE+uJMkDMqpymR1eABIosogXsfELQPVSmP9exoD4nOecL7KUEJ8rNfFlYOTSq04vABXxWVeNWqGumiZ5PjeKwCUT9rLis6I6BJIVoAEujM1aVgBQB85+mIwugW6tXunHiQrYkFYybCcguSBVbx9ATt+1B320li8bCyijFPsK2NwJwH6lwDbYkNpx8HJkoxP1Nb/O7sVwFqB35lLoqWbjP4OeEIu5z6lRA+VIVpNQTMTR+C9zjRZLEtLIHIm5A9gaBgE2WR0R4J5n9m7lwXuk2au3RxJcwrxAvdmjNirit5GAh6ZSjM5eAA2UvXYFuLtYU2Z19mhNqHY+32Jf5vR9zJ8W/JaA4222lt+ST5sVzn9cr1EFb+mHmy8uHwDYw9s96elwPE7XrOX//l5lr6Y7mdz/AQ==);lineShape=1;" vertex="1" parent="1">
          <mxGeometry x="3108.646633461014" y="1604.5952230553662" width="6.768453187578416" height="70.70279033511497" as="geometry" />
        </mxCell>
        <mxCell id="LmTQRD-9G7nvdm8Ks5E--31" value="" style="shape=stencil(lZfbbtswDIafxrcERYo6XHfdexRougTLkiJNd3j7yTO8RFTyF71zXX6mSP6kmEkf3rZPr5tJ+O18On7f/No9n7eTfplEdoft5rQ7t6dJHyd9eDmeNt9Ox/fD8/L369NsOT/9OP6cv/B74VIgs5kS/rO8EdL078XXxX6/O1zZ5+TtQ6ECgBLJcgdopBwAUEh6IBpJuQ9U8UeyRAUBRqn3kJpPBkD7Xu2AwjBLNZOGDqiBuN4HAjMx90SmBNJUC1nsgUKaARBJHFCJUeUyWfKAgSBypVA9UEEMuQUtvZguebhJJKY6uCjxPmBKnD0QARDzmpSrvCKBR6UkHgjIg65SuCo1qlzTv2kPJEoKgmZKpQdszdttoBAHD5iAOiTK5gEBMWQbCoeBNjdGD4YaQijIEDQaAy3rMqQVeWhSc0DGY6CSuhiaNEDh5hOP4gNaqjwUrskbeCgtSwNQAJCVQj+YPuxRpSreRQVislHflRLwEFtS2AOMOihSHAqhoCGiUHVHyrDlPg8YsevRsJbmXgzSe2iXUESA+KDbNaegDlp8HawNQxCD6qrmq6saDVfJXhptGagACAMQKhwbwzUqlEGded0sLuYBfL3tRn28YV1ubncCcXTmKJ2hCaA/DZOBAdaSE7OzFwOnj+tMv9gzsNew1ubKHrSlttJUZx9QGycK5uwV3eXDhGe4Sc5roM9/AGJI/9Nxsc8gP5/dnT+2bw+XRf1lt98ve/71//1i314tPwr08S8=);lineShape=1;" vertex="1" parent="1">
          <mxGeometry x="3091.4945449341167" y="1518.4904025841374" width="4.891457925124996" height="58.5816602150785" as="geometry" />
        </mxCell>
        <mxCell id="LmTQRD-9G7nvdm8Ks5E--32" value="" style="shape=stencil(lVfLbttADPwaX4nlcp/nNP2PAHFqo24cOO7r70vVWNmkpQlyUxyOtBwOh9yNPLzvnt62mxjez6fj9+3v/fN5t5Evmxj3r7vtaX/Wp408buTh5Xjafjsdf74+X/5+e5oip6cfx1/TG/5ccBxJ0oSK4e/ll0S1/P/h6yX+sH+9iY+BSjbxEiglAKiULCA1arwOkEi5GEBuVBoANErNAEqnEtYBKVG2OVc9EgBkoWoBLQ0aFgElDBLnL1RikHTJ1O9yyIDWql+oFhBIAEs1k4itQ6cuANAp2hwEs9SE2AJioRABIFPrBqA5gxO1QsWWoVADKbdGwUmPCtB2U0JcxsQg4R6JbdG0mSqIT16oEda4a77szoN03RuJzTdTAnx2pTtalVIDquYQKAQD4EC5wy9UKzoWqFJNodoUWDsDNE6vXnRcqSNSM7FNmlXoiKU4SLkBFFRm5aR5AAOWVKc5+xwaEmqh3j1LyFMVEJKvQwSlnlrzrtIJH0m8lirq/eq1N/vTWm9GS6pAr+hMyb5few3pSMZxb3oZCTUP87zxCkCo6rQ5+x1KX+ucaHt/rvlafLfn79DrpnhX4AgLPAH4U4AyJt7MEFP9wE6dXefRGGsaqlYTuinAgROp2CLolK2A1VqGvc2DPwyel+d4H5zMZQhj/1nbFLqd46qUCvwrM4kzvKstL687kaKThooXnEkyBUvTxDRaCucF7XbdAbxqczW37mQ42iZTt2LKOkyBCatdBZu0FMiSmvad4SGS9P2ubsTAj+4mZ6UIqqy7nEsXutGdiAROKB6ZXb0uAmpk1HKmZuxVy3qjYpmfk1nuAN/1WM11eMg1HPoucXXhqLumKedzRTbN7C8rMtaL5fhPXrc+jteH693uZX84XK6Gt//3d0H96XKPlMd/);lineShape=1;" vertex="1" parent="1">
          <mxGeometry x="3084.011288712093" y="1556.0069416999959" width="30.964662187541762" height="25.384448638663343" as="geometry" />
        </mxCell>
        <mxCell id="LmTQRD-9G7nvdm8Ks5E--33" value="" style="shape=stencil(rZfLctswDEW/RlsMCb7XafofmYlTa+LaGcfN4+8LVaUiQM5NF93Jso5A4F6A1BBunvd3T7uB3fPlfHrcvY73l/0Qvg3M43G/O48XuRrC7RBuHk7n3Y/z6dfxfv79dDc9OV39PL1Mb3ibuVSI40Sxe5/vcKFY/tz5PgOH8bgCYqRSNMCU+HMgeGqsgUQFABzJeQWEShVFiBSdAlKmEkAOmVpSQHHkQYQcqOollUoZAM0T6wjVUU0AiOSbBjwlkEOTFLMGAnkUoVLRVaoJR2hUzJIqRZR0o6a9JGVA1hDA67JKGZIHgHjTAIUccGtL5HTSUoaGkmbyJgfJyn0O1NadswJqBUAmLnZJFeQguv593wKIf1EEJt6UNaIcfNd1JdwXQDZeqhQQwFR0WcV8EehQ48atASpdS1/AqoFiA0o7O/mmFo0ACBtAuhwkLeZrpkXxqBQjGPNJGTKyd+sdvAAFtqh3btMQDpep9b8XIFDCc8bprMWuDOwqZaoGqNB9soBty2UUwVlgVYf/RCQZppssAtBO9kXeaBeA/3yxE7/gaRn7Ntufz65vMlef31gjclfmegZ9C1w29ty3yesJeCu0DxCYTgI6QsALkorrkn6hGVtve3gyycn2Z8HHBhFUT25ZIBAgN7s1eFEMGFuOLdkkwD3kdcBbl/oINx8BqmmEAueFAFFHEBE8EFlySHq3mg6UQGWpknHF5HQQIS9nhJVR0ZTM8j6tmwidUQTuE24BKmy11PqK1wCYqtM5PdgloXP6Pxzs5eLjs+BhPBzmr4r1//YzQm7NnyDh9jc=);lineShape=1;" vertex="1" parent="1">
          <mxGeometry x="3030.7427513880048" y="1474.6364599169428" width="20.032966954452604" height="19.448284139391944" as="geometry" />
        </mxCell>
        <mxCell id="LmTQRD-9G7nvdm8Ks5E--34" value="" style="shape=stencil(7VjLctswDPwaXzEgQYLkOU3/IzNxak/dOOOkr78vVJeJCFnbcU895OYoWJHAAlhAG7l53t09bTeRn19Ox8/b7/v7l91GPmxi3D/utqf9i/3ayO1Gbh6Op+2n0/Hr4/3576e7yXL69eX4bXrDjzNOhXKeUJF/np9E4vL7wcez/WH/OLPPjbgO9oEhIFUKYTxAqVYAYIplAEijGtcBEv2VslDJ64Bo/9YBoIU0rAOCUogDoJrT4EoWkzI6XRs1WQdUSjLYNyUBUbUDwkhbq5TTOqD1mM/s0YUaSRrtG0XAmp1evX0G9hZw8fYVUKA+Tc2+AY4zpZGAwEYZg7SjqNccIBTaNQ5EiouAogAFSuUaApiaez8mmEnV26MEumQfgH2i6gjOPcIrCceOYKshVGKJxJVYooYIYM9wqfAEy7k4ulCMdBBSYV8EWqmCKpZEYSRZM+xcYu8bWbb+HYAPKVF2rY5x3QQfVuv4fzL9cmEW4vFKuZCAKJVMmT0ACYK1TneCBmJwpZZ6c55FSUGUWvEapUoJAapvp9qooGp+6z6vyZS7W5ePaKTNAxBzU/2OFVQU3skkxolUKZTQlVLXpBmgopoOPZtnJYeasFHtZG06AVypqm8zkw/oBIu6LKKElFl61Gc8VJB9BvDEWWNC+W3SswAwAmRSx4OQIKfLgukIW5/1XteYDCAol2IXvzkA5VImyR6gwAer0Ry906j1WQEF9gCYra3rx4wHlBqT4i9KVFGJWidzJ2j3as1pcSeUPkeshTUsAEhRjDhNHoCytS0bmQGAD5Z8vi/ZE6CKlt5OsyxKDQGsgKIHBFRAVqJj+zbi4HT7DwB2BWTjDCpR9gPxJEGA6ZJ8tk4iB5jW5CcsjXCCsy3K667A1Eji270NByhKttj51MDLpA1M6phOcDqxvcSNxaVBHmyul5EHS8cKwhqqF0VTPbQIvK9u76vb/726LTq8TYoMhDMuNrEGh4WyGJAanNlC9ovYtHTgInYpZL0MeSyhj/uzb05IQWSxrkYsOan16eY1qD1L1ppvHoMUoByYfVNnzyCHcvLv5z5UXra3qszOHn2gyqZe/v0BFX3xScr4/osNDPcIW3t5YQ/4shUz+PtHpK7Rd3WmjJpipMbOHi06Jr1ptA+9KNbsnVIGPB1c+R347/b24+2j88P+cDh/s57/33+ktkfnD9xy+ws=);lineShape=1;" vertex="1" parent="1">
          <mxGeometry x="3054.496165208997" y="1430.4908342071067" width="29.88533041017945" height="86.08743689640187" as="geometry" />
        </mxCell>
        <mxCell id="LmTQRD-9G7nvdm8Ks5E--35" value="" style="shape=stencil(lVfZctswDPwav2JIArye0/Q/MhOn9tSNM457/X3BaqQKkL3TvMmSl8SxuwR3/PB+eHrb71J4v17OX/c/j8/Xw44/7VI6vh72l+NVn3b8uOOHl/Nl/+Vy/v76PP1+exr/HE/fzj/GCr8mHGeKZaBS+D29yUxR/r75PAFOx9cVIGfibADCxPU+oAgVNgAuxOk+oCYqNqTUSEBItVETA4iVItghK6DZHWRe4iZACgWbNDMlAOBNDiIUQZVSomx30EI3BoBAoRtAydQDAFQqFtACrJJ0qrastc91u91ppmyTrnXO6nbjCiVLjaKdKQDQiR1AOw2q1BJ1W9ai5IsAUKgGDxAQUg+Ugg8pdwBgCtUCOmVAjZ4pRFvWNO95D9BslaqqHIWUSRygQXprDs3m0CIF0IceKTnyqYBA0q1SdzsIVdQ4mddbAJkSoLey37F17AByUDI7tmoODPpQ1flkUyWQdFVqlE0fQOOGVTqJZtg43UEcIGFAns19xdYC+jAi3ki0oD7Eua9rxSFq5PnzWtOgD61vrFJdA+TQ00bTDZpxFxJ7oNQI6a2Kc2Zc8fmgAOdLg45IokLZlnXYPTDjvhBhASi7kM0oIH8EoEUUS+/hVOicVn05gC4BGsd1MwkEPSfRqbhJoqt9g5iU/c5m1L3RBhvzrpCsS7gL9dI8cN2uEUky/9dZpYDzSkcjl7DOKoiqrPq03I4dUlWqb3OD854OiK5EEa4/DMM6DG6xksydPRVOuCvKLAE16mgGKF46HGbm3k6hUbBdY8wiJY0zSWmU0Sy2KGuZJwucMpQ2eWOSSM060LLz7TZbzm1A9CEpoKMhulNqHoAGUL1YOPkXTD3e3E0KVqdqxYlhFBqFFEmcngVOrMqc7E63BOUwqOaSVqNHOQSvH70PBWAxwwFsDsolpKBxObLUyAKP9A/fQv8DoA//Lr0vx9NpujOvv/tLsr6aLtj8+Ac=);lineShape=1;" vertex="1" parent="1">
          <mxGeometry x="3091.8230309568" y="1476.2146120235793" width="20.004301915621" height="24.491750244704235" as="geometry" />
        </mxCell>
        <mxCell id="LmTQRD-9G7nvdm8Ks5E--36" value="" style="shape=stencil(lVfLctswDPwaXzF8Azin6X9kJk7tqWtnHPf194WqoWLC1ra5ybKWILC7ALnJD2+7p9ftJoW3y/n0dftz/3zZbfKnTUr742573l/saZMfN/nh5XTefjmfvh+f59+vT9OX09O3049phV8zjjPlMqFS+D2/SZU4/H3zeQYc9scrQFGq1QOkrAMyUwgjQKm0dUBqfku5UKvrgFgo6wAoTEVBhEphjFAbxQRyKFTHCC1TRVWqlNIIEGp5HWAbaCOAIzEoa7OyOkCCSbNFYB9BeR0gBhiJa4UEVEmUUvBVCnEdoMnn0BJkWgtx8xEYJK1MMY8AUxcgToXEMa2kIGlVktEPXCgJBKgjTkhRlZSCDAAx0wItWdJljCDcl7gPqF39C0CJgTSMOBdBI0WQg63nDKThX+LT4reUgTTEpDHyYEsUUCUrYnIRElUkb/vbGUi6ftcAEkdApgLEZ1tySZv4ImiVYq3Xydu6N9qSdPVfGQg1Y+M1jElPFkVqzSTsIyTk6dZrcpUDlLf4dj/1VmzRNlbJWiUDP8QQ/MxipowMsYy0RUwRm9qk4+RaO/lrHr01BGyuBqgfAViKbipOvQ1ow1ppHAFXhbs/5bLvfVYH1L9L6B5eANar0GhnSo4I6TPjPteV6ghghXPUvh9NbZMYOehGSjVQBjRkX9QcqKEEIsk4HqLxDPyTkteqLVGBuO30w86hsFEWm2ejQRMp2NDkxlEVWEU2YFt036MOwzcdJvbWf/97uTmxkqL9aCd0obifOu434WW7i+TwuSr0YfzuMxI0R4I/k8TcjzVrgOIiNEyZdk1eiY4RQLzorKioSEaaa1/mDEXnWztyjywYDQnR9tGrz38A7OH9pvWyPxzmi9r1//5mZq/mW11+/AM=);lineShape=1;" vertex="1" parent="1">
          <mxGeometry x="3115.8129873183516" y="1477.9415233922173" width="26.27179582062581" height="16.021588531361886" as="geometry" />
        </mxCell>
        <mxCell id="LmTQRD-9G7nvdm8Ks5E--37" value="" style="shape=stencil(lVfLkhoxDPyauapky8/zZvMfW7VsoEJgiyWvv4/IlAmWmSZzG4Zu25K6Jc8kTx/bl/fN5PnjfDp+3fzcvZ63k3yavN8dtpvT7qxPkzxP8vR2PG2+nI7fD6/z7/eXC/Ly9O3447LCr5lXK5V0YXn+Pb/x5OvfF59n/H53uMV7yrnDO0fRLRNyoRD7DRIJ2CEV4p4gmZxfJsRsCaFQlmVCiFRcR0hMCewggQp3hOxbVHcJ3lH1HaFESmmZ4AJF6Qg1kIAjuaEOtVBkSHB90Fp6BjE4phItIYIj1ValG3wJQBkW75iJQQiRONgNagZlI8cWn1HELbwbvID12SpbS1AgntniBcTL5I0mMmWkiSFeTTFwmh80l5qo7vumZeMGH5CTKQzrBxCvdoqyZn1VqPg1AWirynFNhtQ0aV0J/GAaXGMlhEEUSEQag5gjYZWq5gfXIBdk2+seuCy2hPyvjcUSHvQJP9imwonDdwJGjU5Pu6qTKt7INFOF51mHFxLTqIUiUgS3aXcdNtd5dT+h0mx1HWeu6Xxp/kkfQlQNFdApIoX+VhEyVHVM5PuiSWrd735vSdb7KkTULIqWoc/SJW/gSCXZceDg+CvDNcS1wi/ha38gvYSgAKod4Ix9zxSDwTtgM73ZmXmsGUPjXn2cLB6orkaSAY9umsm2UsY30zKeP4L8a1cw45KpgjZRh0bqmisWbDnMe0cFSHr1VfwhXh/+3fvfdvv9/Nlw+7/9TtBX8zeGPP8B);lineShape=1;" vertex="1" parent="1">
          <mxGeometry x="3138.491954406354" y="1430.5063094664702" width="22.00577337379218" height="78.43402404453263" as="geometry" />
        </mxCell>
        <mxCell id="LmTQRD-9G7nvdm8Ks5E--38" value="" style="shape=stencil(lZbZctswDEW/Rq8YkiBB8jnLf2QmTq2pa2ccJ23/vlA1VAXauk3eZJmHwnKxDHz3tn963Q3BvV3Op++7n+PzZT/w/RDCeNzvzuNFnwZ+GPju5XTefTuf3o/P8+/Xp+nk9PTj9DHd8GvmqifvJyq43/MbX0ji3zePM3AYjytAItVggBAp+20gZnJiAHZU8jbAnqRYoFIRACRK1qTEJG4bSJ6K/YJ65YEPxREnA+RCMQEgUqwG0CsEAZlitID6UAFQWhAXIFMAiStLXhtQHVUECGUbpRqJkUlMsQPUJN4GciXXAZU8kEaO5GwevHPkQKqlUPX9J/6j7+AsUMgHADiK3RcSCRBTyi3sCxCIgb7TVQVpLjMwSYHSiSm1K7Z8CNaH4lvybwNMlW1B1HbFVh6SLYicSYAPmZuLK8ADk7QiO7nmjPXNTZwrHwrqAtLyukQpwExrmlJXo0IOFES5UmupMNNa890XqnqFajT2Ya1CDEpu6ludWvGAyImyVatWXAGtL7vWrNcA8EFS64wrkzL4wpcBHUHeRknDkIBJXmeW1ZIIbN+hz1uSdsPN80uXa+fjModvG6QDzRoUtAWAtLG06bG01kgJdSVpw2ApHypI256qddm1sX37fOo9wJ1ea4dLfx44rJtPtzU4mIFp+Flda4tE90tfB0wMmoVKMtnzCc7zaY5JF/+IFOGuNKS9BTlce4N8gN1LPegjpCoERaAhilYSXtpGsJUD122rGdbll9fbTwD68G+bfhkPh3kZX//fb9/6at7c+eEP);lineShape=1;" vertex="1" parent="1">
          <mxGeometry x="3153.158183560451" y="1473.8593102538448" width="15.99405576072877" height="22.345766895567067" as="geometry" />
        </mxCell>
        <mxCell id="LmTQRD-9G7nvdm8Ks5E--39" value="" style="shape=stencil(lVdJcttADHwNryjMPnN2nH+4ynKkiiK5ZDnL7wOGGYoAqU58o8huYd+G8PC2f3rdDZ7frpfz192Pw/N1P4RPg/eH0353OVzlaQiPQ3h4OV92Xy7n99Pz9Pv1aUSOT9/O38d/+DnxWqPqR5bnX9MbTyn8efF5wh8PpyXeEyeFlz8A+JqpZYV3kWoGBEexaYWYHJBQEpWgCYlyu0/IjXJVhOAoA5VyoBY1oVAr9wmpUdRGx0jBA0ImXxQhMYUECJG8Njql7uhtQqCk45zF0UilQFF7KWfKDhKK9lKZQ3nXBkOQUCIb5syZCY0CkpCJtQ01kWdISDr5qkgAyZc8NdblIG+AlyQ3i5bQsATvrJduJbtJcJmcJjhmYmC1c8RhJSKCgqC4wgdQD763iBlfKQObuSfajC9UgAGzeTNeUhXoI/bqPGoJNoDQ+8mMj1TA/xfKbPEOBcD3NJ4JUkwgi1yhlC0hg4iNXX1FgHmaqVZrw9+GsO0jXg0GqTVQnNJ0iyHMXfAeoRq3FgrAraKSN4RKHtgggXOG0MghL/leJwsCmj0SuFosoQGVJDXKSqWGxuGGgARzuzbro4ZylVy1eAbtiPvXRdAwPpleIYMNeNT3yl3gGUzOvNI/wjT9KH4sfm1ArdiAOcX+c0hJWgcd4nEMotJ0tjTHQQu6xViaWqVxlAOnBt/Xm8WykJCEQG61jsDil+6j60AWHjRDZEVjbUOUwgE2ROkWZmkLcNDKTuc0QWQG0C1EAWO0hLKiPTLa4vcRbttZqkcTXCMPbJAwRa2SC3CPLKtItz5Mt/GVqg6D5BZQSFLZzE7XN93tc4HtfcF9wdrGeztEuC8z2/hk+5dcIyBktdjzhftytX1Pyedi8aD4Zb3MVn+0Wki3MrcLwxxtq3uNYZlJ9zf9WpoNKPzbNLrhE9p0eLXceTg/PnzQ/hMvD7fr+eVwPE7H9/K7vbbl1XSph8ff);lineShape=1;" vertex="1" parent="1">
          <mxGeometry x="3299.6191529585403" y="1598.4007421219062" width="14.98213156620568" height="75.20967965021964" as="geometry" />
        </mxCell>
        <mxCell id="LmTQRD-9G7nvdm8Ks5E--40" value="" style="shape=stencil(lVfZctswDPwavWJI8AD5nKb/kZk4tadunHGcHn9fqBq5AuSskjdZxtpcHIvlkO5e9w8vu4HD6+V8+r77dXi87If0ZWA+PO9358NFn4Z0P6S7p9N59+18ent+nD6/PIyR49OP08/xF35PuCaU44ji8Gd6w8T934uvU/zx8LyMLxS6ie8kKD5Tsr8fK1UBgEpd7IEi1QQAQiFbgFAPkEKrBpAySYZHyvYfcsQc2nyAK6AR1/cBPVKzgJKpRQBgarYMNVIGdeiJOFlAo9gAIFOxAMnEBQDqfOIroFMGheuduBmANksAgBgCBZsmzXQEletCtdhuZUqItVByACFGhciUbTN1PRLDZhLxgA4AUiha0pq4AkjXQLV6QAcccqa+BoBm0pn3ae0zq9uVq5SyBzCoQ/WqpEkqYIDCTHBRNgEaECi7nFZIQDPkCJd5AG8T1k5uHhBBbyvj5jKkAwj+QSWoiQck0EdFZ4FXANBHwl72FFCBAuj4SvWkGSlA8stByxBA2bSqsXkA0no9QHcAoYbGs89fLzoPab2KXFoNTwKtWgvV5gHoSCUQ2yMthPAmQvdZXUlGA+M2zsOKRAas+7zOFllCHNRUBB+PGKyEXssWAIHPxueVXjAF0NoxUrQC0DCBWCjZBb213FSwbFuM6xOMZ7yWdLmgQeNpksTOs1oABhzGrFrSajIK4tBIbFrVxqDdpllydVCjhIYnplnjFlYMebcY/ObZMHudou3sDTfZva/asKvaSc65bRjisfWcImHH7a0kNvS66W1+NvKpBQgunlGFm1e7MC+J2z1X/BiEeZDek7ooLh7t2azn9/Fojgv7vYzjK/vbCD6PhNkjf4yviLflOJ+N/YTheqk9ZRk+3g+fvj9uxuvD/8vq0+F4nO66y+/95VZfTRfjdP8X);lineShape=1;" vertex="1" parent="1">
          <mxGeometry x="3261.0524998728824" y="1601.4202480831468" width="4.048646184088284" height="69.00216456400267" as="geometry" />
        </mxCell>
        <mxCell id="LmTQRD-9G7nvdm8Ks5E--41" value="" style="shape=stencil(lVfZctswDPwavWLAAzye0/Q/MhOn9tSNM457/X3haiiLoLWZvEnirkQAiwU1hYf3/dPbbvL8fjmfvu9+H54v+yl8mbw/vO5358NFr6bwOIWHl9N59+18+vn6PN+/PV2R16sfp1/XN/yZeTVQ9VeW57/zE0c1/H/wdcYfD68rvGMm5o5QqbptQuW23PA+EPttQk5UpSOETBK3CSlTSR0hJiq8TZBKHDqCZPKAEKuNWb+ZwJZCoVg6Qs7kCiAwhb4MRYhlm+B1x30M1ZEDMfjUlhdCpgy25GX4QiEBhbvWNfeESi4DLVUqAyElQBCqyRIqqINzlONAqEB8lMTiM8BHcsP7AwqZRGxOURG4JXCFZ5AhHvaTKYDudBRNQhMJjNc2v3yQT9MHihdUYddafUUIWBI5DwSwIxVddpaAROe99SPNkUOtKW15RUAi0tbkaqsmwIT1C2mQhUe9PLi8EioK2lmLVGELEtKisxWhoE4INkur0XKXoTse3KKAoNW//BACMAtPvg45AmVjigMe9do4ODPshc/iQxt6C54pwXyasVkiBaBrl6z76qiOSKbDjEr6CjQFl+VlMCdKYOREaRGuRr8DBImtT5bDRWpp2DpcGMdWnQjIahZrF44hIWkdep16aMGKNzPNw5NCqhT7HDk4xjNTNgE0L7iP95T7/avsQBtoglw1eI9GSGnHxRuegYiKbjdaPGqDaN2XYT5Lsj7ETeb38bV5+Q2PzF3PccnGi07keoJ3vfO6VvAt/KdO/B/j9eL2e/FyOB7nv5P1uv0d0Ufzr0x4/Ac=);lineShape=1;" vertex="1" parent="1">
          <mxGeometry x="3286.5470016608206" y="1515.5267969644729" width="11.616770056808491" height="65.13878535015147" as="geometry" />
        </mxCell>
        <mxCell id="LmTQRD-9G7nvdm8Ks5E--42" value="" style="shape=stencil(rVfZbttADPwavRJ77/I5Tf8jQJzaqBsHjtPj70tVXdmkpDEK9E2SOV4ewyF3iA/v+6e33RDc++V8+rr7cXi+7If4aQjh8LrfnQ8XeRri4xAfXk7n3Zfz6eP1eXp/exotx6dvp+/jP/yccEy5jqDgfk0fEjn/58Pnyfx4eL0x94VCVvYhUnbbgOAosgLETOPrJiCRb9qj+cx1QKUWFSBXSsCl6LsDHVAq5QgAiVJRgFogIAUKOujmKYG05kg16RMy1boNKJJWXYfqKQKXSqGmYyiZGGSpRgqaGZmpIgBT0i5JVH/ztgpomZzhXu1sXAWwBG2oMadhHRDIOU2+RhW4xJFasgDHACBlChaQAL1ZuKnZGiWtgBrcqOkYkqeGTmAqmnwpUU6gp52zabpXiJkJc6kdlTtB6DQJNxBdxzQZMuX+ZbMQunK5UEWAaBtCZAOWWsgU7AkJxeC6DM2ARA241Ji8ablAGaS1CddMB0nx0QmNogGIkjUIaAYQYaUlBtZZEro61HJ+pSE8qoMIk7ctFxD5MvmFCgSgZCxayQuXQJaE3mnRow60nDSQmSiSVlQHAbABSOEQvXlROKEGlo0l+RJyqRKbFk19Ev8ngCevAUVqDwAyUQy9C/fab80sZya7yAwoXA12ZrUAR1BJXYVmQIOFExWKuh+E8KhwIr1O98MonqBwsp0Y8t1MgK0FiM0R3MVwfSeTtCcbRAAqEKRyWjZa6gReBwS7Jla8V3q2Q65g9vnc034zs9Dy4MUlXTnJdAUuLVRDNtMIDnCWSnIiisD1ZrnWmRgo62INaPfMTbN1jdowNzqf8U3D/vu8j26YsyYcXpKi7RkHl4XUJ9LV3AOVmDXkao7aq1CpxhxJitx3vAnVg8zIxqt9D3hB/bcL4V1zebjePV8Ox+N0db393d5V5dN0z42PvwE=);lineShape=1;" vertex="1" parent="1">
          <mxGeometry x="3264.927392812493" y="1561.9256621790219" width="40.15552608490725" height="24.63087481751927" as="geometry" />
        </mxCell>
        <mxCell id="LmTQRD-9G7nvdm8Ks5E--43" value="" style="shape=stencil(7VjLbttADPwaX4ldcp/nNP2PAHFqo24cOE4ff1+6xsoibU2QY4HcZJmz4mOGpLSSu9fNw8t6xeH1eNh/X//aPh43K/myYt4+b9aH7VGvVnK/krun/WH97bB/e348/355OFmern7sf55O+H3GSaQiJxSHP+c7HEn4352vZ8Bu+zwHBJJuAFIp1GUAFyrBAHKmmAAgU4gGUAqlAABC3AygVuoIwBRs0K1S6RBQrEtdKGUAiNStS12DbgAQqFqXeqFalgGxUU8W0CiCoKOeZ+vQO0VQ6ZhGmWaACiodIyUbQwyBAvCp3XCpxWX7QlGuQgB1E2rZ54gRMTzztAgNnK9Fc/aZRJC9453SqIB4p+xN9pEakE7z+WmMSZQp2wCqUAQOcaLOVpuaA9QuMjUbQtJ2AVKqf2erHFF5I05EqpamKg0G2tScNAcYNLxtn32LDJRBkVvzrMMi6EyxOPsIiqYcY3b+w/OrVxlTAiVTTYn1PxGDis1EPpFizIilB+RqaUoZOdQGJy99BXZfzVC1HIpTP14qQXNPYOqIQ314PAEEk64QF/+EBqrchKT4GFBvbHF081mWGKS1ajfvrgwoBLXPvsyoV7QwaHPhUUC60e5rI2Yo/JaoWB2HIbzb9qoDr0s0MLXXhurskf89jfRd7AtiaaHuKgyHjcqgW5LKaExLMutu8aKCRKCz1/a5Om4s+eOnH8y/xuvqpYxGjfTDgNooWYBSLoGQS6ZuSyx9HHEToKurWJFlGcK+Pc6ybxSlwm4tuutaVqjuOtqvP3fTz930P9hNw3iHm6ZNgWsO+2lTdasA5ydqltVlunO7WZDY/KiSkf9TNadWUUaGF+zZ9aIwVLFg77bM2OH40+le3PjQ1Rntaeznk8oO6V5F5pqdvi8EpPtytYq/szrqqukWNRkvGItv7tcAxKI0Zt7MpQRkoLwIyQfNqDt2L0xNQwKtSMKYSbPCdeCSRBI7pTRvGbj08Y867wP04vIN6Wm7250/Qc3/99+c9Nb5e5Xc/wU=);lineShape=1;" vertex="1" parent="1">
          <mxGeometry x="3277.3366622481544" y="1461.142651821142" width="17.927891218186232" height="27.723449567896296" as="geometry" />
        </mxCell>
        <mxCell id="LmTQRD-9G7nvdm8Ks5E--44" value="" style="shape=stencil(lVfLctswDPwaXzEkQZDgOU3/IzNxGk/TOOM4ffx9oXqomJC0aW6yzBUJYBdY7vjm9fHuZb9L4fV8On7f/zrcnx93/GWX0uH5cX86nO1px7c7vnk4nvbfTse35/vL75e7aeX09OP4c/rC7wsuBmp5QqXw5/ImK8Xw783XC+Dp8HwF4EwcRkClytsAqcRxBATKcRtQ5u91ADO1tA2ojWIbAClQATGUQkkGQGyUwA65UKzjDkpaYZbSmCVWyroNSJnUZamRIkD0QRcrJUirnbikAVCFSgFBC4UxS2qFAwDRnsQZECkBgHInwnwkJREAqJQWAMSlFkjLCLBKZwAwqjUfdAOVbqWHOAMYH6lSdmktXSGbAJfWRgzSakdy1Gjpo6B1pHfLVEAdLK11rIPtyWAHK1wY24xFFRGAvURthwaOZHV1XaMJKWgCtZC6HbhrcB2QexeaAbMGtwBxPJJq5+8WQMY6qFAETaAuKq2pk2UdYG3LcSnAzmffczu8f2IdIH6gGICRphsVXeyA6M0U2McABSS+81lUgvRQF2mVjyTqC6dQD0Zmz9ZIDNJqgqxOQHgo2vd0qQfQyCZuuq5higPkm0IMnwGIsXVslTEECshstEXbsCkGzEZK3mxY4iJq336wa4b0jr7b1wjdzxxfX29JEJCjQmE8z2SW0HkWZikJVQBgo/5Y5siwKZkPcdzOvSjrEaifb7jGJi0Z9T/re0trzinFBDlxRbKrHBVQBBuX2TlQ7a18PYbQndSVKW6gh5kDLeMOgtUp0VulErte1+ss3avNAIZHsiy6aVUE5tV4Efz6DE5UvLMquU/gdeL5jmcBVLA+db88r8euJ5K4eLHUzPOMCTW/mwGxg586Jn1UMTMTY4UlQ2Em74XF3gBWs/c7EmB9bZCP+bFOwEgEfeJd3SQzoPSnr57/AbCH95vuw+Hp6XJRvv7f34zt1eVWzbd/AQ==);lineShape=1;" vertex="1" parent="1">
          <mxGeometry x="3303.767876426965" y="1458.2861303337131" width="19.352001324768935" height="24.114762337267166" as="geometry" />
        </mxCell>
        <mxCell id="LmTQRD-9G7nvdm8Ks5E--45" value="" style="shape=stencil(7VjLchMxEPwaX6ek0WNG5xD+I1VxiIsQp5zw+ntmMRLWrN0BLnDg5jjb3nn09LS0SVfP9zdP2w2H55fD/v328+725X6T3myYd4/328PuxT5t0vUmXd3tD9t3h/3Hx9vj3083y5PLpw/7T8svfDnipFCoC4rD1+M3Uanq92/eHgEPu8cTQI3EZQaMnzgLKEw1zQChKpcBmUlmAGfK5TIgMYU5pJQpxMsAtpDaBMiFEniDpcg6AYrAkGIk4QlQlVoDgERBJoAmYlBWrpTmxkmjDJJOQmnOQSI1kENWkjjnEKkG0GkLwJW1UQGAKp1qo3FCAQAk9b4OalQKCQAqaZ7Jl6kB8ol48llnUFlFSd0AMUXQaQ0U504bWRKYOI1U1ANQ0rqqkgEi6LRmT42FvwhQqEaftKCkK1X2fWDQaRVPb5vBhgHichBS0DgD+MY1nIN09g/yvVKlQeYBSFTATFtZ2zxAqRGjTtf+e2NEA2XApRa8LtmECAKYkjrVEOIMANVLpU1IAn1oSnEOySYkgU43k5m5rAvhASCG4Bthhfvx0kuv0HmjaIMLwpJocyMaU0Jlsv0x64xVGjaidBkagAqFqSWK7g3Sd8wlbij7NyAroKsFYUEynqAwq7EFCZWsdLEeAFNPPEHObFinGwKM/XFCJgFVshyio0agBjqtqwVhAyGIGsGrgI1cRmxNfcBOABFRo/iNYgBF9BavM2Y2CgI0b8mUe+8vTtwckmJbaYDmAArJZ4Dk5sH2LgKoV41FDFHS1StZK9BsWOPaaqYhwKyArABggNrKO7wCMCI0p8YZKp9kr3yLSQOqIStdMluJlE/Yu0SzlajTFlJ0excr33mXiEL67xL/2CWiHP6SS8SAf84lRs9WO+6iHGQcbscA1W4Dz5/LTMjmKpmtLEC9S+4rcIhAhiKQVzNtvU9gRLn1AE61FUycEcEZrBMbeD4mKk6MU5/Bs8+vTKUNORrp2G89RlEZ3oOI3yZZ+o68lLF7gfECOe/l7DwbDYsRndftdN6CqykElODtGMNLDauIzs/jlplwO94xJLYMizBKBONZXM7MiQwPP6baZe6ZOS0kFpF4bhk+XNnz3nH3Fl6UCieoryyF6NXLJBv65+gtvUk2lLvQFX0AKmSp9SC6LSJQjBYv60JSqC3Gory6AxVEi9+9NP0FgH34eUd7t3t4OF7xnv7f3+naV8f74HT9DQ==);lineShape=1;" vertex="1" parent="1">
          <mxGeometry x="3327.4099745962612" y="1459.5050417692282" width="32.35559234452103" height="23.321091950469963" as="geometry" />
        </mxCell>
        <mxCell id="LmTQRD-9G7nvdm8Ks5E--46" value="" style="shape=stencil(lVjLctswDPwaXzEk+D6n6X9kJk7jqWtnnPT1913VpSxC1ba5KYpXJIjFLsBduHt9fnjZ79S9vl3On/ffD49vz7vwYad6OD3vL4c3PO3C/S7cPZ0v+0+X89fT4/Xvl4fpl9PTl/O36Qs/rjj10tyEUvfz+qYECeH3m49XwPFwWgB8kRJHgEqtBBAllRGAT+g2QJMkHQFJWtwGhCJuBOQmvmwDYpMybik1ukJWiWEA4BPebwNwiK0NAGwyt21ADf17HaBZSiaAJmlMnM9SyQpNxY+n1ETJITUvcUx0lJzIhqLUaL5fyfdLlTaeqU8cEETHADRIJBHnancUVBLJWs7iRl5ElUJizoh5jCEFTqTUqT9TNYqyFaokU26oT8ILVGMeY6iOBo1qDGMMFXlgzINkjDGAi5UxA3kYqdoi3VJzEpIFZLIlcLWMMbQkjogSiqF6CyhE9hqolkdA7pnZAmRTbkUikT0AdExcq6K8oO2Wmji2JS+6AmSyJeS1NAtg9EamNawAJA8123oAoLAVUj/EBUAZIEqs9lgTyTSUuBnAP6XbaD2o8YfwW1sy0g3yNVZxaZXpRFWjzt6xKCDqJkhctQB6SnPJLwGs4ryElQg0JgLaxX0RNJP7qYBWeVCmGn8rUc9L1FgiuOR4DGVFvsoAvlNtQe9IMj1JpbMAqt61O9psu86JY3R9N2Lqfoy6Knfq1rkzW0qhlgIf9eM5wZVY85Cd3VKJ4gnBU7HWDqdmMaRsPQi9QCYVgRXMuaLbYKaVV7kOnhL8tuO5Y/LUtJAHI2UefSkBFJjgCMi0giB9xXSt4hi91RoKZ97N0OYjog63YPKN3OKYyhTLPF+7KmxVqGk1tPbxY6u/MqIRHU+Ck2jGGaWnlGoPcc5aoL1JTJLHNKDEI4khBEkjt6eoCAA8MM09FECZn/SGcP59pUzy1uBARUfqf8ULzCtMYObSXegLE+71kOt6477BVMvsXHobsTWot5EVmXcZKBXT12MeYklGDKZNB6AQd4M4GBohBibCWqwdAkBXqLbbwwDFmA1AGy0dGqgMgB57JB4Sx4in1dY/AOzCRFdNdPF08tbVBIchMLAYINLVApjd6mq2n4ZxQj5wKVQLCLz+33cP9R8APNyuvZ4Ox+P11mz5f3tNhlfXK7Zw/ws=);lineShape=1;" vertex="1" parent="1">
          <mxGeometry x="3380.18737030637" y="1424.8502338837693" width="34.09626898798342" height="60.301013749027334" as="geometry" />
        </mxCell>
        <mxCell id="LmTQRD-9G7nvdm8Ks5E--47" value="" style="shape=stencil(fZbdcgIhDIWfZm8zQAg/17Z9j85U606tdqz9e/tmZ0c0uJ47xP0I5JwEBl59bp8/1kNwn6fj4W39M76ctgM/DCGM++36OJ50NPDjwKvN4bh+PR6+9i/z74/n6ctp9H74nlb4nbmSKZeJCu5vngmZ6jzzNAO7cX8FVKEsBuBKrgKg9oAE8gkCbLeUhEoEQKSUDZDLeWYRKIl8MEDRmHwfyBrBG6Amyu4+kDxxMoB3jhwgYu7TVAsVkFcWCs4CTBEoF4RctKeOxHIf8IXYpikHikAIf+MNUW94AGSSaoAoFIE3AlOyeWU+p2E5S9yfQZcQILVuQOwZdJNoS9Ls3wA5u2XZTIHECqeJ9kDpSaauRiNVcAY1QhdBzeLBli5WazpkSsBLV25uRaqWRyFawTQzRRIQYirJzq5atkBqLfouwqUxLBepthWb10vrWZY6UOAeyKCCtDV625mm9gmUC4Wc3VLJMMIE1BsA2FW9JraVlQB7n3c9oMKhCLEvIM1zBPZ25/umNQ1tVEC2G+fFCC8g398O2hNQuQlVu752DBfA+q0ptnqO5JFmeuIuo9DY7KjY71UxdJV4EntifPWorW++R/dC4t7V3DlIB5cHx2bc7eb3yvX//QNFp+bHDT/+Aw==);lineShape=1;" vertex="1" parent="1">
          <mxGeometry x="3459.9979608424755" y="1442.8353124585192" width="4.67253977211567" height="4.665236216357698" as="geometry" />
        </mxCell>
        <mxCell id="LmTQRD-9G7nvdm8Ks5E--48" value="" style="shape=stencil(lVfLctswDPwaXTEESfBxTtP/yEyc2lPXzjhum/x9oWooi5C1mdxkeVfkQtglNISHt/3T627w7u16Of/c/T08X/dD+DZ4fzjtd5fDVa+G8DiEh5fzZffjcv59ep5+vz6NyPHq1/nP+IT3iVcrlTyyvPuY7gRy8v/G9wl/PJyWeCZfOjwzubxNKIlqvwAnkggITDF2BO8phW1CDlT7LXkV5bYJKZEPveZMGWxJCsV+hZigaGEqvQaJFP02YXwed4TkKYIVIpO4jpAdMRAdyoqQySNCJpaOUALFBAneEGpTtUUwrVEzOfAegvZS/+JqIYc0RFtWJRSwgnaOGEJtdbtP0ObzllABgXPrzdkPzkERarCyWiIX0N8kxeI9wKu9oi0ScqijaGqU2xM28GzeWqIEenutVyiDTBIKZj+RKsCzs/5XQkAbmt2+ICD/a0n9aksOvYKyalQNDNTZ3ub2KLpC75jgHquKCNqohpAogwxTQqyrvkArCLHRUFrr3icwcbKdHUDCaGvYKuGjgfXvfoVP3Rlaby6XAKpLS90FPiLRzevLCAOaHdVo3wJywyxvGcJA8Ffx3Koxnwql1XhDrwlUPXYY4PWY6vE5tfzYilPjzVQpobhIxIbAsKIqWfotSYAtoYld+kCK0oagLfenvqhqPoe8OffMPCOVVuf784XYCUZVZTCFiW+ZPjtHoPulriZJzWVA0LFNem9qyoIiJU0f42U4R45tYBTAkM++jUMN7ygBY2axgap6UWPXFrc3vAN49UnOFg+MWXLL/xseTZA6+ksw+ADqrweSmXQcPD80R0I19fcIX+1pwPBAWyT5rYEieGFf/jb6FK8Xtw+xl8PxOH3HLf+3H256a/roC4//AA==);lineShape=1;" vertex="1" parent="1">
          <mxGeometry x="3462.2420811061047" y="1419.4297726170894" width="9.322982455903912" height="59.33375122005373" as="geometry" />
        </mxCell>
        <mxCell id="LmTQRD-9G7nvdm8Ks5E--49" value="" style="shape=stencil(lVjbchshDP0av2oAARLPafofmYnTeJrGGce9/X219bA28u6J87bGHISkoxsbvnt/fnjbblJ4Px7237e/d4/H5w1/2aS0e33eHnZH+9rw/YbvnvaH7bfD/ufr4+n328O0c/r6sf81nfDnhJNMsUyoFP6eVmKkGP+vfD0BXnavF4AaKbQBINTq+v6cSdIoIJGmdQAXyjICGiUgIRXSPACSUgrrgCgUwwDgRkEAIFDVAVACaVkH2HHjjWrqIpcFRFIejRqoKNA5UXFeKH1l2aqV2gioAiXkQm00UmkkeR1Q2LvBjNSA0kW9VTNTRtRjrzQLJeAGI3eKI6BC7mkkHiVkoQq4p0zimGF2A2bVSrmOfigUGAAalTFATSsGVmqJeAw4tYgCV2rir9SM3cBxTT01TGZAAGPOGNLNXAl0iCH0A2dE6YlqTYQzU6td6JoSLs3YSgQRZOfp6GqTmZCETC17gCJHWGKsHtCQhDkLXQAKJlNMXukKPKdydSWBShsgjhFkjhMswQMyBeDphSul7spblY6YS9dmDZRA2rh2nMkU5GmjRvEARZ428jV/pYzYqj3mL5QuIJMtBFCCmWwpRjMk00IaqDB/LyQaIUGA61SmsDsxclbHDbskiKApcbl+6WyHZUTsjrpRhFGhlislUER8GhCIR7taUFVAcJFeo+YiJLBjEu5ku2w3UKkOvrZbe8Cg3ajqPTeVahAR1oKJk1BgE1dyv8BFqa4AYK2uM6uVagWe5rkTnv0QSVCra1ZyAJwsLahHFXQ+YVlA7wlnDWwFkPsqBdh4wEgBCq7lU8gj9RnDpoMA7m+tvevHTCRKACbBzz+mMbgRNy/Bkh7YXyK1MXSwB6zJlez2o/RigegUYIpAYdHePZ73o7ogze+3iRF5LPjhKn+Ui+pon9KL6dp+HSlR+9yxut8F5Uf7swsZ2Aybfdz5DU4MZv82hrBNl4xSqfhuJOK5SqovBzZeJtBt2+jopp4JAEr/px8NbgDYx/mN4mn38nJ64rj8379p2NLpPYTv/wE=);lineShape=1;" vertex="1" parent="1">
          <mxGeometry x="3492.523220491351" y="1441.212839629849" width="31.032988730540637" height="39.072269771898846" as="geometry" />
        </mxCell>
        <mxCell id="LmTQRD-9G7nvdm8Ks5E--50" value="" style="shape=stencil(lVfZUhtBDPwav6qk0ZzPhPwHVZjgCsGUMTn+PnJc43g0uw28rdfqWanVOmajN6+Pdy/bTeDX42H/fftrd3983OiXTQi758ftYXe0p43ebvTmYX/Yfjvs357vz79f7k6Wp6cf+5+nE36fcU0o5RMq8J/zm0Kx/nvx9Wz/tHu+si9MuTn7kNftUyOWwb6ShHX7GKikwV4CtQIAQrkMgMAkIIKYqdURkPoRyyGkzkgHqDkJYs523hiDOckRkGpfGJOQLIa0DqhK7ACtH7EMyBTjAMgVslQj5RFQclfKcgyFxCVaO9GrLPEIaNSQlAKFUXotUgIsaaU2fqEVqroOMCHEMQZhJmbgE8Ux0611Gpa/QM3ZV1JAknhSLQIFEZhsdLTPxOB8s2dPKZL2RccXe6UE463On9AZW+FTXbxCBfBfKbC3R/yILAEaAMSe/ytABd1C8hSCdQvQ8cQ0WT2nFXAktav+Akg97WuA4AAZZsFc4kl2GQFir9wrXWcUdCANvnAC+EIjzd4ezancs3p9Pkib9hxdBwALIatnqIBCYNIpBQkQxJPsUlfuin12/lv3hYUpzh9TKRqzFN35As+3rWAq5AjshRcAihSkU2sUOMY/D7BxFD1HCYxxZWoTSe8sOzp+oVa8iqhPc7XSB4Cs3YELgHu7WQa0LuPL3E+w9Iv4dcqOQEHb327jzAJLLQdfC0aDoEVB/MIWbZsBQatleqxmxcuOtaM0Js4mESp/q7d5S0VBW0Nyk9n0y2jZYb9DFqgM056TUugkLJOae3/o9kwFDM7TRcHbB8DQfBHBm5f1N7c+Mty8rH8mcfYRxGv9PPjzGyh+mxfOf1M18qd5f8I7DXIaCdr34Y8CIgkAzB6lfsv4YMSJKrKfGM2wnc4ZK7ACZkXYrgwq4LNX3/ft7eH/Pfth9/R0vqZf/+/v5fbqfKfX278=);lineShape=1;" vertex="1" parent="1">
          <mxGeometry x="3533.830130720713" y="1442.1282070362363" width="22.028025176127812" height="50.076042131482154" as="geometry" />
        </mxCell>
        <mxCell id="LmTQRD-9G7nvdm8Ks5E--51" value="" style="shape=stencil(lZfbUuMwDIafJrca27It+xrY92CGss1QWqaUPbz9KptJqeXmh97l4C+ylF8HD3z3vn182wzBvZ+Oh5fN7/HptB34fghh3G83x/GkVwM/DHz3fDhufh4PH/un+f7tcVo5Xb0efk1f+DNztVJOExXc3/lJIM//H/yY1+/G/cV6KcSxWe8zSVwHkr5uDbAn8etAZMq1AaKHFthRbS0kJp/WAV+ptEBO5BwAvAUkkysAcJRaH0qkjIDzBhagOpK8DgR1UVpALYCwciA2FjIFYCEW8tkCDlhIQj7aLXFdB7KnWlpAAw0sZHW6A6bbVUDDGm8JaxbiYoEoAKhUuQOAliRQTBZIQN4SbYYqUEBYVZscbJTgloSC0VIgB8KqQPQWyHhLYqLESx25DiQK1QLQaabQiw85rUF0FkhIfIUCdwAWn9RbtqTylmidrgjocxqHVTMudz9OkAVvq/ckDdAf8vl73xRf1piYMoPlnTOlDkig3GuKOrEAzAeNUp/ToAio+GpnQcCWVN4l2igFID7NOFvIcKmcUtREKWAfeguMJwEF0i3AVIxNPgicBJI2drOlCtXKxXZR7xzs7CHazl7LkrXXGzUvxfqbXVGrt5GGh0XAWRd0ckhocrDpo9pK4D/XpSWfZ58IS4ZuKLZACovJ6z9BK3HrQdSEBnUy5mVaO0+IDg5L2qRjm586PmXgcym2I3rY33R9bX12sL0VHQKyWY8KjErA2/UeOKypm4JZ70B5qV09wllQE8Xu+0ATKnmx8YH7lz6eaDDUHOziiQQxHWLMoQT+34uq8AkwnOevAIKy7MZj1dfr9eLzDPc87nbzEfDyvT3z6aP5vMgP/wA=);lineShape=1;" vertex="1" parent="1">
          <mxGeometry x="3589.462036396104" y="1403.5476458736052" width="23.980199939297563" height="91.97760490151813" as="geometry" />
        </mxCell>
        <mxCell id="LmTQRD-9G7nvdm8Ks5E--52" value="" style="shape=stencil(lVbLctswDPwaXTEkwOc5Tf8jM3FqT1074zh9/H2haqgYSLWZ3GQZK5K72AUnuXvZPzzvJg4v18v5++7X4fG6n+TLxHw47XeXw1WfJrmf5O7pfNl9u5xfT4/L7+eHuXJ++nH+OX/h94JjkjSDOPxZXuRKvf9783WpPx5ON/UxUBIDKEIStwGcqUS7QqIAVpBGKRhAylTLNiAzFXsGqRTzNqDGccQB4EgCVujKiV0hUAigvlH29fD7naLliAcHW/W5Wk6p4/rWTL3KmIFoMawHXBEqgsAlunhOA0NAKRaQqWEAW1K5D+G3VChWZmEKDQLCO0CrsC+SA8RBw/8BhXr2ZxC0QvGdpCwl0NsKYNfbKjWw2wywwqnSjFgqY8c3zYQMrQCnQ6aM3RZdZ1DEKlR7gkCMvt985un+EaXNt3Ycomw1qovIRAW7s1p+2rDrptWcm4U6jpfuFOtYYt2RBegRUMgrQFzXNRgwvflEUuckbGZ+582Kuu6zgKqj0HpTB1UGgaRzp7MB1EAN6KCTrdqYbwEOqrdYXwEdsqROjN6beFRpIlqAujWh+e/zqGcYwjoErJe7wDkS/CzvyimgKIy+XBnS9AD7Dz7iG4/ZvlVvFagNBrbWW+/Xj84b7X5KH327UZ+sXiWTgCZd2VvrVXGol9jzZjxkIzV3u1PfAX4+e9/8uF4f3i63T4fjcbkb3/7vL8P6arlIy/1f);lineShape=1;" vertex="1" parent="1">
          <mxGeometry x="3568.495269649614" y="1449.9628802369434" width="68.21104061202641" height="7.81585284823359" as="geometry" />
        </mxCell>
        <mxCell id="LmTQRD-9G7nvdm8Ks5E--53" value="" style="shape=stencil(lVfLbttADPwaXQnum3tO0/8IEKc26saB477+vlSFVbXcaArfZIsj7ZBDcjSFh/fj09th8vx+u16+Hn6enm/HKXyavD+9Hg/X002vpvA4hYeXy/Xw5Xr5/vq8/H57miPnq2+XH/MTfi04V6jWGeX59/KPp+j+/vF5iT+fXrfxmUT6eEcxAoCnkjpA9FQZAJg4d4CUIEBIShefhULej68UewalkgfxyoC5A0imCnLkI7n+RJIo1H1A0Nu+BzAlQDkWyn3VSqKU9gFJKboe4Kj6fYDe9uYNTBlkSRyFvs4lEIMsiVCKPaAQgyPVQKUXxvxOBCi20lJaZXakx7bUNcM01UoSekAhAe2gAO4LUYWyQBK514Y+IgASNZE4C5C78rrJw8cIR4WHVwASMqZJuxCQUHEYNWmaEAmtbPS2EBX03CyFaAGMOBRKhkMmhwDSWnIFJFw5JmfSGltpPgb4QUwRDhq9zXUAgCadKQ5vSEjfxU5jJc0BNoQTCyhglCmgDj2aEQcF9Pquayn3AMEABC5FvW21pKxQ4TLFZAEFdVykmC2gIi35JrUtAKWVhwaqlEGWVN6lWgCjDVHaAtmk1eOOc0PhkLzvB6RGcd0QArUkvg3rFaDTE9ShxLbIt1sOAHJsB9iudpClFMn3HIpyAJVW/2XeoBwQ6eCs+DRLyAA5FbOZGuoFkElkW4fq4RDQAxtLpi0NTsRteWw8HxrFgw9QT+nh82s/ANSzJtALgfxgihNShT2/um50/mLtno4D0Mtrl6wOAO6dYca7JsEdg26Ky3irWcPDsIdVO0VMvAOnme18MvHI7LhgrQhDX+ui1SbDXeB03UUTH9H5szVfDJ2RG5yRSgfx1eoaOwgd7d1fkP+N14t/n6svp/N5+drd3reft/rX8mkcHv8A);lineShape=1;" vertex="1" parent="1">
          <mxGeometry x="3289.130463182678" y="1324.3528768980245" width="30.704506100723847" height="69.48237744447943" as="geometry" />
        </mxCell>
        <mxCell id="LmTQRD-9G7nvdm8Ks5E--54" value="" style="shape=stencil(lVfLctswDPwaXzEkAT5wTtP/yEyc2lM3zjju6+8L1UNVhKWd5mZLXJFY7ALgjh/eD09v+10K79fL+ev+5/H5etjxp11Kx9fD/nK82q8dP+744eV82X+5nL+/Pt/+vz1NK6df384/pi/8uuFKJpYJlcLv25MYiMvfJ59vgNPxdQEQJXGAQtPfLQALaRoAqVFq24CUSccduFGp24BYSdsAyIFEASBR4QFQEmUQ9MSJDoDKpBkAIqUyABqToKAD1TgClGqAtLbxSC1SiSBxieoYdLWgQeIs03rHEqI1F+Ix05l7ZlYB0/fyAJBGWbYBtVIZaZVKDezQpEttPpJQQICZ9Tno0gW/ClChKj4PDeRBlfK4g8ae+w3xBQoOwTBztkUbE6FmcxC1Nu8grRRAqu11riOgkQCP2gEcTXZIeCTunl8AKgra5B88QICp2/y9RQwF7NCsbolniYFHW/WGMBrgDsb6aAijoQJaDSCjIYwGBXK1GLz6Qj/kOq0mvjEPxhtykCavVtuTQa00BwX1gIQcVCiyB6AGYWnytVKpoBiU0p1HI4rBauVYvo0GBdKYAC7TAjM92WUM2mjI6EjN0zo9AX6w77ErAkoRlz6+syikNVG6B2DxcfQxKPJ06wdYWLSCQmYGysXTisT3ccDcZWfxZcq8Dagm71F8NXYPrrfRQs31rAD7g712M1xpfcBZ7+z3s4NCT8us/kWZqSBoDl2bi0w3ID6bOusIWPTJ9agpOAMJHGdCr+1z3gS2uLsubfMVHIwpjtrOisuer0mS4exjY7EbZZg7BeszaPVZTpEyGinF9+jaO+SW7txlI0BGS/RDQ4Ctp3AncLEeKcLOn916eH67mahbj2p2qb1pzBqljM7fvAkSHOltvRuHuVeCrfXuKpYxn2ZBdwOAZcLWi7MAFcTn/Hq2WDf1VqHzIx7sNx++3P4HwH78u0u/HE+n21V8+d7fve3R7d7Oj38A);lineShape=1;" vertex="1" parent="1">
          <mxGeometry x="3334.6879769460384" y="1362.227073661888" width="29.14096095880359" height="32.76187076033011" as="geometry" />
        </mxCell>
        <mxCell id="LmTQRD-9G7nvdm8Ks5E--55" value="" style="shape=stencil(lZfLctswDEW/RlsMCRB8rNP0PzITp/bUjTOO+/r7QlXkiJB8M9nJEo8pEPcC0CB3r/uHl93A4fVyPn3f/T48XvaDfBmYD8/73flwsatB7ge5ezqdd9/Op5/Pj9Pvl4dx5Xj14/Rr/Ic/E1ep8Ahx+DvdUJL4/8bXafnx8LxYHgOF1q1npiwAsMe1A1KkwABQiv0OylTRDpViv0POFNJtwN445Q4omVoDQKHcH1JVCnobECHtd6h1/otNIAWqDijEBQCNkvZAJAZBayOOfdCRGgDscewBNa2APNREoXSANJi4JlT6oNn2BKfUEmkfNAeopaYeiI0EAZnyCojAD61QWQEJASvDWQxv+t0GmlernZKAxBnQgrdoAVoaAefpRIIS11YxKFX8StEBhWKGp8Qu0+ZytEPx8jYgo2PNFIMHCtZSEA8wiiFRFB+0gKphfkh9IWMrZCgGoehOyRwCCtkIuB1kjuoWoCvxKQ6aHRBw0Erc58EMpAEmjqsHIorBTr15gNEr1dnBC6BiA72V3kXQDRUBM9Cqi6JyH4MVOidXoYq3qE4bihPR5scL9ZUPgPwZoDavjWQASHVRH4N19gp2yDI3nEVXRPpWIe6BxnNd2O67kXIfw5hL4FEJ3qOLXG5PG9Ef02hbNJOp79T1OuHcGuJSH3W+jhPbifCFSRV2FPUWTQLlzXOZW9QxBkd07frXWYYCOKCVd2wsAKII3s0JVuFAxXUe6IJIydU7OBmyF0OYh6Ztufl3D3Nf3JYzcXPLkTTVl4iruLftOM8p78szVJnzYpxld2N5c0WXFGis+oFZYE3/5HfRh8vt4v0T7OlwPE5fcMvn/pPNbk2fe3L/Dw==);lineShape=1;" vertex="1" parent="1">
          <mxGeometry x="3373.2430669004516" y="1358.233979000715" width="40.19961745683213" height="28.664591575806753" as="geometry" />
        </mxCell>
        <mxCell id="LmTQRD-9G7nvdm8Ks5E--56" value="" style="shape=stencil(lVbLbttADPwaXQdLcp/nJP2PAHFqIa4dOO7r70tVUGquLKa5yWvOiuTMUBzk7m3/+LobOLxdzqeX3c/x6bIf5H5gHo/73Xm86NMgD4PcPZ/Ou6/n0/fj0/z79XGKnJ6+nX5MN/yacbmB6oTi8Hs+aYzW/p58mQGH8XgFiAQhC2iosg3ghhh6ADsAquBsAYLkpNQQkomvGs9ORig2vgSEvB2v/9oCUkR27ieQjZfqdiihiYnnCPEaJAtDC4AYOToFR0Q2gIhWt+Mlg2yHGFQcTRS02N0fHcJSRbIMEyE7gJxRbcUsCE6LCiMUy0GBOJwVlYwtIYkriqIs2xpyRSanhtQ7rbJLc8pgy5pas3jWTCtAXfp2m2eB2KIpvIv9tpIItXN/dgFKbLWvqGUZILeLQLRdKtE1T1iU9s6bjiNH26EfXzEiOMKQlTkrmpM/hZU51U3efAyrceQnxL2OeJHuZnz5RHzWjtp8VBJefO075EuolHX+2TFajSih649HcKPe+pRcn7W0EHo1f7NTgbqq2Q5JWgbmhiZWn5CYIQ5CP5HB5pQKkjOCJxtaFpQXcmjTNrEFKDHRSUl5aLaG6cRJabqv+/AHsPOGaRexzH2wi/zH8qIP/1af5/FwmDen6//7VUmP5jVLHv4A);lineShape=1;" vertex="1" parent="1">
          <mxGeometry x="3442.4600590604896" y="1361.0913646501695" width="5.461774247085486" height="4.103253289986242" as="geometry" />
        </mxCell>
        <mxCell id="LmTQRD-9G7nvdm8Ks5E--57" value="" style="shape=stencil(lVjZUhsxEPwav07p1uiZkP+gChNcIZgykOPv0xuXjDXa7RRvZlGv5mi1enYXb14f7172u+Be307H7/tfh/u3x138sgvh8Py4Px3e8GsXb3fx5uF42n87Hd+f789/v9wtK5dfP44/lzf8PuOyxLSAgvtzfhCDqP/35Ot5/dPh+Wp9CBKbBSTdBsQiNY4AL8FtAxJC0gEQWn/FKiBnCWMOoUoq24CSxZcRkCSTHWoUNSF5cWQHdVLGKvkqgVRJk6Q6ArxEFlIRP5bVO6mkrAU7hBGQeFmd5GyTLoQa6HQZyxp5lVD1NJY1hV6GVYAvEsYd0HuXCCCKcwOgVJoDalJGLlXtdFzPwYsfq6QIklUJRRwBDZ3O5DygSn4EpE749capPQ8A1Ea5ZKrUouSwDWhBmrNJF5IDAnBqAZ4BsmWrZmmEra2ITiE5loOKqxaQyAFqTdx4prVS8gFQiwUoo7dzthGqPa2tLWzWXCsB8GPWDcecxIQy+bFzoGvgjWjRAgoDZKszAFROpuAsIBOdaZMKAODIgQC/TatRJaYCHwFc9SETFQAgGYDyPvh+LV+RqbCkQ3/fFb8Z+1AlI9+LkrEqJWlmh9yfbFEj5gnAckCKUw6BUUOlTjrD7AzOQ1Zb1sw63aaklfqfBWAa17q2bQGM9C3kYyIA5hi9B73ZifssABeEjtTAK5je5yrV2JkPbVu/5XxnwmWLRlsNj+eMzmQaE672ZNin0oh+l+6nLlYA4slSEB0DKngD4Z52g3cxM0EqIYafMo5IgADgm8vIJOTE/BWshhFKn/tNv2U1jMhUmnL1dhgI3Yqvlyja9ZxFs3BDBZmElcm90Xiw3vgYOEw2akBUzfXptY8G6xlX64lD7Ff2ekmbTQE9iARQmjXRi00nCoYmG0GKiZq3NOWA0SARAHgcRo2MXIVRE2cAjTL74gUvk4ajE1+yJh3r6ZRrx2isZ0NusDYM8dOzby0P1rPRCtGaKV171zfWG15HTqLJqC4dJvV0Xcsv6zOdMJx1O6BcYdZ5Gj0jHRegtMmuj6Q+eNv01YNZnc9+Vvn/evz4+IbzcHh6On8Cuv6//eaDR+fvRfH2Lw==);lineShape=1;" vertex="1" parent="1">
          <mxGeometry x="3425.082798971165" y="1355.8025685728917" width="33.77725827508766" height="49.62409329456568" as="geometry" />
        </mxCell>
        <mxCell id="LmTQRD-9G7nvdm8Ks5E--58" value="" style="shape=stencil(lVfLctswDPwaXTEkQRLkOU3/IzNxak9dO+M4ffx9oWqoiJC0bW+OwiWIxXIBDvzwdnx6PQzBvd1v16+HH6fn+3HgT0MIp8vxcDvd9dfAjwM/vFxvhy+36/vlefr79WlcOf76dv0+7vBzwkki50ZUcL+mL95TLn++fJ4A59NlAUhCvvYA/ZL2AdFTKh0gMAUQgRXQRwiFHAAET77PgTUC7wN8oBB7QKEEcvCJag+IuW2xfaTQSGyA5CBLeuJiABohA1qFSs9SZkp+H5AT5dABxJMDRyqeYuoBhQpIuhYK0gFqaOraBtSW4gxgcgIBxQAicYWA2rNUExUgDQVkE0FgpTVpUzj9ElEOQtLTqjFhDpm4WEAFlVZOalgB0JFm5SwACYhP68reJi2IVtVStLTCCG5VuNyMZy+CM0eKJKhwajO9aygNjFgKFE2EAG1G98vcA2YatgGpXcgFAN6HvCqceiEWXxELgIUrTTmLpFF/UOWIt7RWZMbO2RakPDAwptEFjL4zCXYB07M0LYcAhbxxAd0C0ZRXxlTxkZIV04KHPTXVdQikplUPUgAy/P8GiFgbKPol7AOyp9KXurhmbttdjhvtcw/iRtx24y221FngFdLWbpLOs5Ns50BiGnWCAVwzlcXoUEHKq9vA0hr3znm4l0XQdgJk4bNVns5j6EYHaZYyS7VQRrOMHthoO7YJbXumZDvxKUVg/Ti49By5JsTt9cF2H3zVVGPV7u8ApTpEczDrI3ALyZTN0E0e7a+E9hUI0I1knkBmDUFD1fW17zvaOoHkpDb3/KiXB818nBv780gjYG+99ZU2f+/xY+rrddpGgsg2gL56YIWjHUf+8kz6h3eV/vh4lb2czufpUbf8v33F6afpBciPvwE=);lineShape=1;" vertex="1" parent="1">
          <mxGeometry x="3259.636397816148" y="1694.0582158136503" width="32.00579338031912" height="32.41021879067512" as="geometry" />
        </mxCell>
        <mxCell id="LmTQRD-9G7nvdm8Ks5E--60" value="" style="rounded=1;whiteSpace=wrap;html=1;" vertex="1" parent="1">
          <mxGeometry x="3568.5" y="1586.56" width="120" height="60" as="geometry" />
        </mxCell>
        <mxCell id="LmTQRD-9G7nvdm8Ks5E--65" value="http_process_read，解析" style="swimlane;fontStyle=0;childLayout=stackLayout;horizontal=1;startSize=30;horizontalStack=0;resizeParent=1;resizeParentMax=0;resizeLast=0;collapsible=1;marginBottom=0;" vertex="1" parent="1">
          <mxGeometry x="3084.38" y="1737.5" width="765.62" height="210" as="geometry" />
        </mxCell>
        <mxCell id="LmTQRD-9G7nvdm8Ks5E--66" value="主状态机是否为解析请求行；或者解析是否为一行完整的数据（从状态机），\r\\n；while，" style="text;strokeColor=none;fillColor=none;align=left;verticalAlign=middle;spacingLeft=4;spacingRight=4;overflow=hidden;points=[[0,0.5],[1,0.5]];portConstraint=eastwest;rotatable=0;" vertex="1" parent="LmTQRD-9G7nvdm8Ks5E--65">
          <mxGeometry y="30" width="765.62" height="30" as="geometry" />
        </mxCell>
        <mxCell id="LmTQRD-9G7nvdm8Ks5E--67" value="解析请求行、请求头、请求数据，可以通过正则表达式获取，传统字符串" style="text;strokeColor=none;fillColor=none;align=left;verticalAlign=middle;spacingLeft=4;spacingRight=4;overflow=hidden;points=[[0,0.5],[1,0.5]];portConstraint=eastwest;rotatable=0;" vertex="1" parent="LmTQRD-9G7nvdm8Ks5E--65">
          <mxGeometry y="60" width="765.62" height="30" as="geometry" />
        </mxCell>
        <mxCell id="LmTQRD-9G7nvdm8Ks5E--70" value="状态转移，解析完请求同行后，主状态机状态切换为解析请求头，。。。直到" style="text;strokeColor=none;fillColor=none;align=left;verticalAlign=middle;spacingLeft=4;spacingRight=4;overflow=hidden;points=[[0,0.5],[1,0.5]];portConstraint=eastwest;rotatable=0;" vertex="1" parent="LmTQRD-9G7nvdm8Ks5E--65">
          <mxGeometry y="90" width="765.62" height="30" as="geometry" />
        </mxCell>
        <mxCell id="LmTQRD-9G7nvdm8Ks5E--68" value="直到解析得到一个完整、正确的HTTP请求时，我们就分析目标文件的属性，do_request()" style="text;strokeColor=none;fillColor=none;align=left;verticalAlign=middle;spacingLeft=4;spacingRight=4;overflow=hidden;points=[[0,0.5],[1,0.5]];portConstraint=eastwest;rotatable=0;" vertex="1" parent="LmTQRD-9G7nvdm8Ks5E--65">
          <mxGeometry y="120" width="765.62" height="30" as="geometry" />
        </mxCell>
        <mxCell id="LmTQRD-9G7nvdm8Ks5E--71" value="do_request()，根据网站的根目录，判断请求的文件属性是什么，能否访问等，访问以只读方式打开文件" style="text;strokeColor=none;fillColor=none;align=left;verticalAlign=middle;spacingLeft=4;spacingRight=4;overflow=hidden;points=[[0,0.5],[1,0.5]];portConstraint=eastwest;rotatable=0;" vertex="1" parent="LmTQRD-9G7nvdm8Ks5E--65">
          <mxGeometry y="150" width="765.62" height="30" as="geometry" />
        </mxCell>
        <mxCell id="LmTQRD-9G7nvdm8Ks5E--72" value="未打开的文件创建内存映射mmp（用完还要unmp），close文件，return文件请求获取成功的解析结果File_request。写的时候发送给对应" style="text;strokeColor=none;fillColor=none;align=left;verticalAlign=middle;spacingLeft=4;spacingRight=4;overflow=hidden;points=[[0,0.5],[1,0.5]];portConstraint=eastwest;rotatable=0;" vertex="1" parent="LmTQRD-9G7nvdm8Ks5E--65">
          <mxGeometry y="180" width="765.62" height="30" as="geometry" />
        </mxCell>
        <mxCell id="LmTQRD-9G7nvdm8Ks5E--69" value="http连接的初始化" style="ellipse;shape=cloud;whiteSpace=wrap;html=1;" vertex="1" parent="1">
          <mxGeometry x="3371.9" y="1500.71" width="190" height="120" as="geometry" />
        </mxCell>
      </root>
    </mxGraphModel>
  </diagram>
</mxfile>
